{
.appVersion = "1270";
DisplayStrings = (
Z
);
classes = (
{
code = "c d i idotless j m n p q r s u w x y z i.jr idotless.jr j.jr m.jr n.jr\012u.jr c.oar ccedilla.oar umacron.fina igrave.jr\012iacute.jr icircumflex.jr idieresis.jr imacron.jr\012ugrave.jr uacute.jr ucircumflex.jr ccedilla\012udieresis.jr umacron.jr igrave icircumflex iacute\012idieresis imacron ugrave ucircumflex uacute\012udieresis umacron ntilde ntilde.jr et q.jr\012yacute ydieresis ymacron";
name = WillJoinLeft;
},
{
code = "a i idotless j l m n q q.alt01 u i.hl idotless.hl j.hl m.hl n.hl u.hl i.jl idotless.jl j.jl\012m.jl n.jl u.jl a.init m.init r.init i.init idotless.init n.init q.init\012# u.ql\012i.el idotless.el j.el l.el m.el n.el u.el\012i.rl idotless.rl m.rl n.rl u.rl agrave aacute atilde adieresis\012acircumflex aring amacron igrave.el iacute.el\012icircumflex.el idieresis.el imacron.el igrave.hl\012iacute.hl icircumflex.hl idieresis.hl imacron.hl\012igrave.jl iacute.jl icircumflex.jl idieresis.jl\012imacron.jl igrave.rl iacute.rl icircumflex.rl\012idieresis.rl imacron.rl ugrave.el uacute.el\012ucircumflex.el udieresis.el umacron.el ugrave.hl\012uacute.hl ucircumflex.hl udieresis.hl umacron.hl\012ugrave.jl uacute.jl ucircumflex.jl udieresis.jl\012umacron.jl ugrave.rl uacute.rl ucircumflex.rl\012udieresis.rl umacron.rl igrave icircumflex iacute\012idieresis imacron ugrave ucircumflex uacute\012udieresis umacron i.gl idotless.gl m.gl n.gl u.gl igrave.gl\012iacute.gl icircumflex.gl idieresis.gl imacron.gl\012ugrave.gl uacute.gl ucircumflex.gl udieresis.gl\012umacron.gl lslash ntilde ntilde.jl q.jl r.high";
name = WillJoinRight;
},
{
code = "a b c d e f g h i i.init idotless j k l m n o p q r s t u v w x y z\012longs longs.alt01 c.oar ccedilla.oar h.alt01 d.init\012e.fina e.init e.initjrd emacron.fina amacron.fina\012lslash t.oar r.high h.alt q.alt01 v.init";
name = NonJoining;
},
{

glyphs = (
{
glyphname = A;
lastChange = "2020-03-08 11:23:38 +0000";
layers = (
{
anchors = (
{
name = bottom;
position = "{586, 0}";
},
{
name = ogonek;
position = "{2027, 10}";
},
{
name = top;
position = "{586, 984}";
}
);
layerId = "BA9C892D-7698-4063-AF69-14CFA3D9CF82";
paths = (
{
closed = 1;
nodes = (
"721 -147 OFFCURVE",
"999 -79 OFFCURVE",
"1117 11 CURVE SMOOTH",
"1170 51 OFFCURVE",
"1196 85 OFFCURVE",
"1196 121 CURVE SMOOTH",
"1196 145 OFFCURVE",
"1187 157 OFFCURVE",
"1170 171 CURVE SMOOTH",
"1092 235 OFFCURVE",
"854 277 OFFCURVE",
"777 289 CURVE SMOOTH",
"654 308 OFFCURVE",
"568 344 OFFCURVE",
"450 400 CURVE",
"594 472 OFFCURVE",
"841 537 OFFCURVE",
"1062 537 CURVE SMOOTH",
"1123 537 OFFCURVE",
"1185 526 OFFCURVE",
"1274 500 CURVE SMOOTH",
"1283 497 OFFCURVE",
"1291 498 OFFCURVE",
"1293 508 CURVE SMOOTH",
"1295 516 OFFCURVE",
"1290 520 OFFCURVE",
"1280 524 CURVE SMOOTH",
"1190 556 OFFCURVE",
"1126 571 OFFCURVE",
"1021 571 CURVE SMOOTH",
"789 571 OFFCURVE",
"593 516 OFFCURVE",
"394 432 CURVE",
"329 475 OFFCURVE",
"270 548 OFFCURVE",
"270 650 CURVE SMOOTH",
"270 785 OFFCURVE",
"379 857 OFFCURVE",
"549 857 CURVE SMOOTH",
"719 857 OFFCURVE",
"1112 675 OFFCURVE",
"1346 528 CURVE SMOOTH",
"1603 366 OFFCURVE",
"1815 197 OFFCURVE",
"2076 -72 CURVE SMOOTH",
"2091 -87 OFFCURVE",
"2105 -94 OFFCURVE",
"2120 -94 CURVE SMOOTH",
"2149 -94 OFFCURVE",
"2226 -49 OFFCURVE",
"2226 -16 CURVE SMOOTH",
"2226 -6 OFFCURVE",
"2221 6 OFFCURVE",
"2210 21 CURVE SMOOTH",
"1999 307 OFFCURVE",
"1816 483 OFFCURVE",
"1552 660 CURVE SMOOTH",
"1246 865 OFFCURVE",
"889 996 OFFCURVE",
"648 996 CURVE SMOOTH",
"529 996 OFFCURVE",
"433 984 OFFCURVE",
"300 872 CURVE SMOOTH",
"216 801 OFFCURVE",
"135 696 OFFCURVE",
"135 574 CURVE SMOOTH",
"135 477 OFFCURVE",
"190 400 OFFCURVE",
"248 354 CURVE",
"139 284 OFFCURVE",
"51 204 OFFCURVE",
"51 94 CURVE SMOOTH",
"51 56 OFFCURVE",
"63 21 OFFCURVE",
"84 -11 CURVE SMOOTH",
"160 -128 OFFCURVE",
"322 -147 OFFCURVE",
"500 -147 CURVE SMOOTH"
);
},
{
closed = 1;
nodes = (
"500 -57 OFFCURVE",
"391 -55 OFFCURVE",
"300 -4 CURVE SMOOTH",
"243 28 OFFCURVE",
"188 87 OFFCURVE",
"188 171 CURVE SMOOTH",
"188 241 OFFCURVE",
"226 301 OFFCURVE",
"282 333 CURVE",
"377 276 OFFCURVE",
"573 227 OFFCURVE",
"688 211 CURVE SMOOTH",
"759 201 OFFCURVE",
"1070 151 OFFCURVE",
"1070 63 CURVE SMOOTH",
"1070 -8 OFFCURVE",
"713 -57 OFFCURVE",
"622 -57 CURVE SMOOTH"
);
}
);
width = 2252;
}
);
note = A;
unicode = 0041;
},
{
glyphname = Aring;
lastChange = "2020-03-08 11:15:02 +0000";
layers = (
{
layerId = "BA9C892D-7698-4063-AF69-14CFA3D9CF82";
paths = (
{
closed = 1;
nodes = (
"721 -147 OFFCURVE",
"999 -79 OFFCURVE",
"1117 11 CURVE SMOOTH",
"1170 51 OFFCURVE",
"1196 85 OFFCURVE",
"1196 121 CURVE SMOOTH",
"1196 145 OFFCURVE",
"1187 157 OFFCURVE",
"1170 171 CURVE SMOOTH",
"1092 235 OFFCURVE",
"854 277 OFFCURVE",
"777 289 CURVE SMOOTH",
"654 308 OFFCURVE",
"568 344 OFFCURVE",
"450 400 CURVE",
"594 472 OFFCURVE",
"841 537 OFFCURVE",
"1062 537 CURVE SMOOTH",
"1123 537 OFFCURVE",
"1185 526 OFFCURVE",
"1274 500 CURVE SMOOTH",
"1283 497 OFFCURVE",
"1291 498 OFFCURVE",
"1293 508 CURVE SMOOTH",
"1295 516 OFFCURVE",
"1290 520 OFFCURVE",
"1280 524 CURVE SMOOTH",
"1190 556 OFFCURVE",
"1126 571 OFFCURVE",
"1021 571 CURVE SMOOTH",
"789 571 OFFCURVE",
"593 516 OFFCURVE",
"394 432 CURVE",
"329 475 OFFCURVE",
"270 548 OFFCURVE",
"270 650 CURVE SMOOTH",
"270 785 OFFCURVE",
"379 857 OFFCURVE",
"549 857 CURVE SMOOTH",
"719 857 OFFCURVE",
"1112 675 OFFCURVE",
"1346 528 CURVE SMOOTH",
"1603 366 OFFCURVE",
"1815 197 OFFCURVE",
"2076 -72 CURVE SMOOTH",
"2091 -87 OFFCURVE",
"2105 -94 OFFCURVE",
"2120 -94 CURVE SMOOTH",
"2149 -94 OFFCURVE",
"2226 -49 OFFCURVE",
"2226 -16 CURVE SMOOTH",
"2226 -6 OFFCURVE",
"2221 6 OFFCURVE",
"2210 21 CURVE SMOOTH",
"1999 307 OFFCURVE",
"1816 483 OFFCURVE",
"1552 660 CURVE SMOOTH",
"1267 851 OFFCURVE",
"937 978 OFFCURVE",
"698 994 CURVE",
"711 1001 OFFCURVE",
"723 1009 OFFCURVE",
"733 1018 CURVE SMOOTH",
"769 1050 OFFCURVE",
"805 1138 OFFCURVE",
"805 1191 CURVE SMOOTH",
"805 1244 OFFCURVE",
"749 1303 OFFCURVE",
"690 1303 CURVE SMOOTH",
"652 1303 OFFCURVE",
"621 1291 OFFCURVE",
"591 1278 CURVE SMOOTH",
"522 1249 OFFCURVE",
"489 1132 OFFCURVE",
"489 1087 CURVE SMOOTH",
"489 1051 OFFCURVE",
"508 1013 OFFCURVE",
"541 990 CURVE",
"465 979 OFFCURVE",
"391 949 OFFCURVE",
"300 872 CURVE SMOOTH",
"216 801 OFFCURVE",
"135 696 OFFCURVE",
"135 574 CURVE SMOOTH",
"135 477 OFFCURVE",
"190 400 OFFCURVE",
"248 354 CURVE",
"139 284 OFFCURVE",
"51 204 OFFCURVE",
"51 94 CURVE SMOOTH",
"51 56 OFFCURVE",
"63 21 OFFCURVE",
"84 -11 CURVE SMOOTH",
"160 -128 OFFCURVE",
"322 -147 OFFCURVE",
"500 -147 CURVE SMOOTH"
);
},
{
closed = 1;
nodes = (
"500 -57 OFFCURVE",
"391 -55 OFFCURVE",
"300 -4 CURVE SMOOTH",
"243 28 OFFCURVE",
"188 87 OFFCURVE",
"188 171 CURVE SMOOTH",
"188 241 OFFCURVE",
"226 301 OFFCURVE",
"282 333 CURVE",
"377 276 OFFCURVE",
"573 227 OFFCURVE",
"688 211 CURVE SMOOTH",
"759 201 OFFCURVE",
"1070 151 OFFCURVE",
"1070 63 CURVE SMOOTH",
"1070 -8 OFFCURVE",
"713 -57 OFFCURVE",
"622 -57 CURVE SMOOTH"
);
},
{
closed = 1;
nodes = (
"630 1036 OFFCURVE",
"573 1095 OFFCURVE",
"573 1151 CURVE SMOOTH",
"573 1192 OFFCURVE",
"590 1234 OFFCURVE",
"626 1234 CURVE SMOOTH",
"647 1234 OFFCURVE",
"729 1195 OFFCURVE",
"729 1151 CURVE SMOOTH",
"729 1124 OFFCURVE",
"707 1036 OFFCURVE",
"662 1036 CURVE SMOOTH"
);
}
);
width = 2252;
}
);
note = Aring;
unicode = 00C5;
},
{
glyphname = AE;
lastChange = "2020-03-28 09:49:00 +0000";
layers = (
{
anchors = (
{
name = bottom;
position = "{1270, 0}";
},
{
name = top;
position = "{1270, 984}";
}
);
layerId = "BA9C892D-7698-4063-AF69-14CFA3D9CF82";
paths = (
{
closed = 1;
nodes = (
"1030 -165 LINE SMOOTH",
"1036 -161 OFFCURVE",
"1040 -157 OFFCURVE",
"1041 -150 CURVE SMOOTH",
"1051 -107 OFFCURVE",
"1061 -66 OFFCURVE",
"1070 -23 CURVE",
"1179 -133 OFFCURVE",
"1342 -201 OFFCURVE",
"1550 -201 CURVE SMOOTH",
"1724 -201 OFFCURVE",
"1870 -167 OFFCURVE",
"2003 -113 CURVE SMOOTH",
"2009 -111 OFFCURVE",
"2013 -108 OFFCURVE",
"2017 -103 CURVE SMOOTH",
"2056 -59 LINE SMOOTH",
"2064 -50 OFFCURVE",
"2060 -43 OFFCURVE",
"2048 -47 CURVE SMOOTH",
"1943 -87 OFFCURVE",
"1814 -110 OFFCURVE",
"1672 -110 CURVE SMOOTH",
"1607 -110 OFFCURVE",
"1541 -104 OFFCURVE",
"1478 -89 CURVE SMOOTH",
"1317 -49 OFFCURVE",
"1118 62 OFFCURVE",
"1109 251 CURVE SMOOTH",
"1109 259 OFFCURVE",
"1113 263 OFFCURVE",
"1121 263 CURVE SMOOTH",
"1284 263 OFFCURVE",
"1443 268 OFFCURVE",
"1593 289 CURVE SMOOTH",
"1599 290 OFFCURVE",
"1604 292 OFFCURVE",
"1609 296 CURVE SMOOTH",
"1691 359 LINE SMOOTH",
"1701 367 OFFCURVE",
"1697 374 OFFCURVE",
"1685 373 CURVE SMOOTH",
"1590 359 OFFCURVE",
"1486 357 OFFCURVE",
"1384 355 CURVE SMOOTH",
"1373 354 OFFCURVE",
"1371 360 OFFCURVE",
"1381 365 CURVE SMOOTH",
"1455 404 OFFCURVE",
"1567 471 OFFCURVE",
"1567 564 CURVE SMOOTH",
"1567 640 OFFCURVE",
"1501 682 OFFCURVE",
"1422 682 CURVE SMOOTH",
"1355 682 OFFCURVE",
"1299 663 OFFCURVE",
"1247 643 CURVE SMOOTH",
"1235 638 OFFCURVE",
"1229 646 OFFCURVE",
"1237 656 CURVE SMOOTH",
"1310 751 OFFCURVE",
"1402 823 OFFCURVE",
"1501 884 CURVE SMOOTH",
"1581 934 OFFCURVE",
"1650 979 OFFCURVE",
"1760 979 CURVE SMOOTH",
"1865 979 OFFCURVE",
"1960 933 OFFCURVE",
"1996 836 CURVE SMOOTH",
"1999 829 OFFCURVE",
"2004 826 OFFCURVE",
"2011 828 CURVE SMOOTH",
"2035 834 LINE SMOOTH",
"2041 836 OFFCURVE",
"2045 839 OFFCURVE",
"2047 845 CURVE SMOOTH",
"2056 869 OFFCURVE",
"2062 889 OFFCURVE",
"2062 910 CURVE SMOOTH",
"2062 1012 OFFCURVE",
"1952 1063 OFFCURVE",
"1840 1063 CURVE SMOOTH",
"1723 1063 OFFCURVE",
"1590 979 OFFCURVE",
"1486 914 CURVE SMOOTH",
"1358 834 OFFCURVE",
"1234 741 OFFCURVE",
"1138 630 CURVE SMOOTH",
"1131 622 OFFCURVE",
"1124 624 OFFCURVE",
"1124 635 CURVE SMOOTH",
"1123 744 OFFCURVE",
"1116 840 OFFCURVE",
"1116 950 CURVE SMOOTH",
"1116 962 OFFCURVE",
"1118 982 OFFCURVE",
"1120 1000 CURVE SMOOTH",
"1121 1006 OFFCURVE",
"1122 1011 OFFCURVE",
"1123 1015 CURVE SMOOTH",
"1125 1028 OFFCURVE",
"1116 1035 OFFCURVE",
"1104 1027 CURVE SMOOTH",
"1098 1023 OFFCURVE",
"1092 1019 OFFCURVE",
"1086 1016 CURVE SMOOTH",
"987 957 LINE SMOOTH",
"981 953 OFFCURVE",
"979 949 OFFCURVE",
"979 943 CURVE SMOOTH",
"980 926 OFFCURVE",
"980 907 OFFCURVE",
"980 891 CURVE",
"946 704 OFFCURVE",
"863 577 OFFCURVE",
"769 442 CURVE SMOOTH",
"728 384 OFFCURVE",
"689 321 OFFCURVE",
"648 264 CURVE SMOOTH",
"583 169 OFFCURVE",
"463 -3 OFFCURVE",
"366 -3 CURVE SMOOTH",
"267 -3 OFFCURVE",
"179 63 OFFCURVE",
"179 165 CURVE SMOOTH",
"179 262 OFFCURVE",
"276 302 OFFCURVE",
"394 302 CURVE SMOOTH",
"432 302 OFFCURVE",
"467 299 OFFCURVE",
"504 294 CURVE SMOOTH",
"511 293 OFFCURVE",
"516 295 OFFCURVE",
"522 299 CURVE SMOOTH",
"624 368 LINE SMOOTH",
"633 374 OFFCURVE",
"632 382 OFFCURVE",
"621 384 CURVE SMOOTH",
"586 388 OFFCURVE",
"549 392 OFFCURVE",
"514 392 CURVE SMOOTH",
"451 392 OFFCURVE",
"388 388 OFFCURVE",
"316 361 CURVE SMOOTH",
"209 325 OFFCURVE",
"43 223 OFFCURVE",
"43 88 CURVE SMOOTH",
"43 -22 OFFCURVE",
"137 -91 OFFCURVE",
"246 -91 CURVE SMOOTH",
"276 -91 OFFCURVE",
"304 -87 OFFCURVE",
"340 -76 CURVE SMOOTH",
"426 -48 OFFCURVE",
"522 19 OFFCURVE",
"575 69 CURVE SMOOTH",
"641 131 OFFCURVE",
"678 187 OFFCURVE",
"725 254 CURVE SMOOTH",
"729 260 OFFCURVE",
"735 263 OFFCURVE",
"742 263 CURVE SMOOTH",
"955 263 LINE SMOOTH",
"963 263 OFFCURVE",
"967 258 OFFCURVE",
"966 250 CURVE SMOOTH",
"964 242 OFFCURVE",
"964 233 OFFCURVE",
"964 226 CURVE SMOOTH",
"964 203 OFFCURVE",
"967 179 OFFCURVE",
"971 156 CURVE",
"961 23 OFFCURVE",
"939 -94 OFFCURVE",
"908 -216 CURVE SMOOTH",
"905 -227 OFFCURVE",
"912 -231 OFFCURVE",
"921 -226 CURVE SMOOTH"
);
},
{
closed = 1;
nodes = (
"862 450 OFFCURVE",
"921 531 OFFCURVE",
"973 616 CURVE SMOOTH",
"979 626 OFFCURVE",
"987 623 OFFCURVE",
"987 612 CURVE SMOOTH",
"987 561 LINE SMOOTH",
"987 496 OFFCURVE",
"986 431 OFFCURVE",
"983 366 CURVE SMOOTH",
"983 358 OFFCURVE",
"978 354 OFFCURVE",
"971 354 CURVE SMOOTH",
"813 354 LINE SMOOTH",
"803 354 OFFCURVE",
"799 360 OFFCURVE",
"805 369 CURVE SMOOTH"
);
},
{
closed = 1;
nodes = (
"1119 392 OFFCURVE",
"1119 421 OFFCURVE",
"1123 438 CURVE SMOOTH",
"1135 481 OFFCURVE",
"1154 519 OFFCURVE",
"1173 557 CURVE SMOOTH",
"1176 563 OFFCURVE",
"1180 567 OFFCURVE",
"1187 569 CURVE SMOOTH",
"1224 581 OFFCURVE",
"1259 592 OFFCURVE",
"1303 592 CURVE SMOOTH",
"1369 592 OFFCURVE",
"1430 554 OFFCURVE",
"1430 488 CURVE SMOOTH",
"1430 446 OFFCURVE",
"1355 399 OFFCURVE",
"1278 358 CURVE SMOOTH",
"1272 355 OFFCURVE",
"1267 354 OFFCURVE",
"1261 354 CURVE SMOOTH",
"1129 354 LINE SMOOTH",
"1121 354 OFFCURVE",
"1117 358 OFFCURVE",
"1117 367 CURVE SMOOTH"
);
}
);
width = 1999;
}
);
note = AE;
unicode = 00C6;
},
{
glyphname = B;
lastChange = "2020-04-06 13:14:03 +0000";
layers = (
{
anchors = (
{
name = bottom;
position = "{860, 0}";
},
{
name = top;
position = "{1140, 984}";
}
);
background = {
paths = (
{
closed = 1;
nodes = (
"450 -315 OFFCURVE",
"560 -289 OFFCURVE",
"667 -256 CURVE SMOOTH",
"823 -208 OFFCURVE",
"952 -157 OFFCURVE",
"1089 -66 CURVE",
"1059 -43 LINE",
"983 -94 OFFCURVE",
"871 -142 OFFCURVE",
"764 -170 CURVE SMOOTH",
"662 -197 OFFCURVE",
"561 -225 OFFCURVE",
"439 -225 CURVE SMOOTH",
"344 -225 OFFCURVE",
"246 -194 OFFCURVE",
"246 -97 CURVE SMOOTH",
"246 -77 OFFCURVE",
"253 -41 OFFCURVE",
"267 -34 CURVE SMOOTH",
"324 -7 OFFCURVE",
"439 8 OFFCURVE",
"528 8 CURVE SMOOTH",
"585 8 OFFCURVE",
"644 4 OFFCURVE",
"701 0 CURVE SMOOTH",
"836 -9 OFFCURVE",
"967 -14 OFFCURVE",
"1102 -18 CURVE SMOOTH",
"1214 -21 OFFCURVE",
"1333 -26 OFFCURVE",
"1445 -30 CURVE",
"1455 -43 LINE",
"1531 5 OFFCURVE",
"1581 54 OFFCURVE",
"1615 97 CURVE SMOOTH",
"1648 139 OFFCURVE",
"1672 181 OFFCURVE",
"1672 244 CURVE SMOOTH",
"1672 371 OFFCURVE",
"1559 419 OFFCURVE",
"1455 438 CURVE",
"1512 494 OFFCURVE",
"1570 552 OFFCURVE",
"1618 617 CURVE SMOOTH",
"1656 668 OFFCURVE",
"1691 730 OFFCURVE",
"1691 811 CURVE SMOOTH",
"1691 928 OFFCURVE",
"1600 1003 OFFCURVE",
"1486 1003 CURVE SMOOTH",
"1448 1003 OFFCURVE",
"1412 998 OFFCURVE",
"1364 980 CURVE SMOOTH",
"1238 933 OFFCURVE",
"1116 828 OFFCURVE",
"1040 731 CURVE",
"1010 880 OFFCURVE",
"884 983 OFFCURVE",
"716 983 CURVE SMOOTH",
"712 983 LINE SMOOTH",
"631 983 OFFCURVE",
"581 968 OFFCURVE",
"510 941 CURVE SMOOTH",
"303 862 OFFCURVE",
"105 702 OFFCURVE",
"36 508 CURVE SMOOTH",
"17 455 OFFCURVE",
"8 403 OFFCURVE",
"8 347 CURVE SMOOTH",
"8 328 OFFCURVE",
"8 310 OFFCURVE",
"11 292 CURVE",
"57 319 OFFCURVE",
"101 346 OFFCURVE",
"147 373 CURVE",
"144 391 OFFCURVE",
"142 411 OFFCURVE",
"142 429 CURVE SMOOTH",
"142 574 OFFCURVE",
"217 693 OFFCURVE",
"286 764 CURVE SMOOTH",
"372 853 OFFCURVE",
"473 889 OFFCURVE",
"598 889 CURVE SMOOTH",
"777 889 OFFCURVE",
"910 769 OFFCURVE",
"910 584 CURVE SMOOTH",
"910 518 OFFCURVE",
"894 454 OFFCURVE",
"871 396 CURVE SMOOTH",
"826 283 OFFCURVE",
"759 185 OFFCURVE",
"683 99 CURVE",
"607 99 OFFCURVE",
"547 97 OFFCURVE",
"476 86 CURVE SMOOTH",
"420 77 OFFCURVE",
"334 61 OFFCURVE",
"221 -19 CURVE SMOOTH",
"153 -67 OFFCURVE",
"109 -123 OFFCURVE",
"109 -179 CURVE SMOOTH",
"109 -282 OFFCURVE",
"221 -315 OFFCURVE",
"320 -315 CURVE SMOOTH"
);
},
{
closed = 1;
nodes = (
"1409 68 OFFCURVE",
"1367 70 OFFCURVE",
"1244 71 CURVE SMOOTH",
"1080 72 OFFCURVE",
"913 82 OFFCURVE",
"750 95 CURVE",
"822 166 OFFCURVE",
"882 240 OFFCURVE",
"933 328 CURVE",
"1019 347 OFFCURVE",
"1106 358 OFFCURVE",
"1200 358 CURVE SMOOTH",
"1349 358 OFFCURVE",
"1536 324 OFFCURVE",
"1536 164 CURVE SMOOTH",
"1536 122 OFFCURVE",
"1520 91 OFFCURVE",
"1505 63 CURVE"
);
},
{
closed = 1;
nodes = (
"984 422 OFFCURVE",
"994 446 OFFCURVE",
"1003 469 CURVE SMOOTH",
"1025 524 OFFCURVE",
"1032 574 OFFCURVE",
"1059 622 CURVE SMOOTH",
"1112 716 OFFCURVE",
"1207 847 OFFCURVE",
"1252 880 CURVE SMOOTH",
"1279 900 OFFCURVE",
"1317 912 OFFCURVE",
"1368 912 CURVE SMOOTH",
"1471 912 OFFCURVE",
"1557 840 OFFCURVE",
"1557 731 CURVE SMOOTH",
"1557 659 OFFCURVE",
"1521 604 OFFCURVE",
"1489 561 CURVE SMOOTH",
"1459 520 OFFCURVE",
"1428 482 OFFCURVE",
"1392 446 CURVE",
"1369 449 OFFCURVE",
"1344 450 OFFCURVE",
"1321 450 CURVE SMOOTH",
"1204 450 OFFCURVE",
"1090 433 OFFCURVE",
"973 399 CURVE"
);
}
);
};
layerId = "BA9C892D-7698-4063-AF69-14CFA3D9CF82";
paths = (
{
closed = 1;
nodes = (
"450 -315 OFFCURVE",
"560 -289 OFFCURVE",
"667 -256 CURVE SMOOTH",
"818 -209 OFFCURVE",
"948 -165 OFFCURVE",
"1077 -74 CURVE SMOOTH",
"1094 -62 OFFCURVE",
"1066 -40 OFFCURVE",
"1050 -49 CURVE",
"976 -98 OFFCURVE",
"867 -142 OFFCURVE",
"764 -170 CURVE SMOOTH",
"662 -198 OFFCURVE",
"561 -225 OFFCURVE",
"439 -225 CURVE SMOOTH",
"344 -225 OFFCURVE",
"246 -194 OFFCURVE",
"246 -97 CURVE SMOOTH",
"246 -77 OFFCURVE",
"253 -41 OFFCURVE",
"267 -34 CURVE SMOOTH",
"323 -6 OFFCURVE",
"439 8 OFFCURVE",
"528 8 CURVE SMOOTH",
"585 8 OFFCURVE",
"644 4 OFFCURVE",
"701 0 CURVE SMOOTH",
"836 -9 OFFCURVE",
"967 -14 OFFCURVE",
"1102 -18 CURVE SMOOTH",
"1202 -21 OFFCURVE",
"1308 -23 OFFCURVE",
"1410 -29 CURVE SMOOTH",
"1427 -30 OFFCURVE",
"1439 -31 OFFCURVE",
"1448 -37 CURVE SMOOTH",
"1453 -40 OFFCURVE",
"1460 -40 OFFCURVE",
"1472 -32 CURVE SMOOTH",
"1539 13 OFFCURVE",
"1584 57 OFFCURVE",
"1615 97 CURVE SMOOTH",
"1648 139 OFFCURVE",
"1672 181 OFFCURVE",
"1672 244 CURVE SMOOTH",
"1672 364 OFFCURVE",
"1571 413 OFFCURVE",
"1472 435 CURVE SMOOTH",
"1463 437 OFFCURVE",
"1460 443 OFFCURVE",
"1467 450 CURVE SMOOTH",
"1520 503 OFFCURVE",
"1573 557 OFFCURVE",
"1618 617 CURVE SMOOTH",
"1656 668 OFFCURVE",
"1691 730 OFFCURVE",
"1691 811 CURVE SMOOTH",
"1691 928 OFFCURVE",
"1600 1003 OFFCURVE",
"1486 1003 CURVE SMOOTH",
"1448 1003 OFFCURVE",
"1412 998 OFFCURVE",
"1364 980 CURVE SMOOTH",
"1238 933 OFFCURVE",
"1116 828 OFFCURVE",
"1040 731 CURVE",
"1010 880 OFFCURVE",
"884 983 OFFCURVE",
"716 983 CURVE SMOOTH",
"712 983 LINE SMOOTH",
"631 983 OFFCURVE",
"581 968 OFFCURVE",
"510 941 CURVE SMOOTH",
"303 862 OFFCURVE",
"105 702 OFFCURVE",
"36 508 CURVE SMOOTH",
"17 455 OFFCURVE",
"8 403 OFFCURVE",
"8 347 CURVE SMOOTH",
"8 268 OFFCURVE",
"142 351 OFFCURVE",
"142 429 CURVE SMOOTH",
"142 574 OFFCURVE",
"217 693 OFFCURVE",
"286 764 CURVE SMOOTH",
"372 853 OFFCURVE",
"473 889 OFFCURVE",
"598 889 CURVE SMOOTH",
"777 889 OFFCURVE",
"910 769 OFFCURVE",
"910 584 CURVE SMOOTH",
"910 518 OFFCURVE",
"894 454 OFFCURVE",
"871 396 CURVE SMOOTH",
"827 286 OFFCURVE",
"761 192 OFFCURVE",
"690 107 CURVE SMOOTH",
"685 101 OFFCURVE",
"680 99 OFFCURVE",
"673 99 CURVE SMOOTH",
"601 99 OFFCURVE",
"544 96 OFFCURVE",
"476 86 CURVE SMOOTH",
"420 78 OFFCURVE",
"334 61 OFFCURVE",
"221 -19 CURVE SMOOTH",
"153 -67 OFFCURVE",
"109 -123 OFFCURVE",
"109 -179 CURVE SMOOTH",
"109 -282 OFFCURVE",
"221 -315 OFFCURVE",
"320 -315 CURVE SMOOTH"
);
},
{
closed = 1;
nodes = (
"1406 75 OFFCURVE",
"1362 70 OFFCURVE",
"1244 71 CURVE SMOOTH",
"1086 72 OFFCURVE",
"926 77 OFFCURVE",
"769 93 CURVE SMOOTH",
"759 94 OFFCURVE",
"756 101 OFFCURVE",
"764 109 CURVE SMOOTH",
"828 173 OFFCURVE",
"877 243 OFFCURVE",
"928 319 CURVE SMOOTH",
"932 325 OFFCURVE",
"936 329 OFFCURVE",
"943 330 CURVE SMOOTH",
"1027 342 OFFCURVE",
"1110 358 OFFCURVE",
"1200 358 CURVE SMOOTH",
"1349 358 OFFCURVE",
"1536 324 OFFCURVE",
"1536 164 CURVE SMOOTH",
"1536 127 OFFCURVE",
"1525 99 OFFCURVE",
"1510 73 CURVE SMOOTH",
"1506 66 OFFCURVE",
"1501 63 OFFCURVE",
"1493 64 CURVE SMOOTH"
);
},
{
closed = 1;
nodes = (
"989 434 OFFCURVE",
"996 452 OFFCURVE",
"1003 469 CURVE SMOOTH",
"1026 524 OFFCURVE",
"1032 574 OFFCURVE",
"1059 622 CURVE SMOOTH",
"1112 716 OFFCURVE",
"1207 847 OFFCURVE",
"1252 880 CURVE SMOOTH",
"1279 900 OFFCURVE",
"1317 912 OFFCURVE",
"1368 912 CURVE SMOOTH",
"1471 912 OFFCURVE",
"1557 840 OFFCURVE",
"1557 731 CURVE SMOOTH",
"1557 659 OFFCURVE",
"1521 604 OFFCURVE",
"1489 561 CURVE SMOOTH",
"1461 523 OFFCURVE",
"1432 487 OFFCURVE",
"1399 454 CURVE SMOOTH",
"1393 448 OFFCURVE",
"1389 446 OFFCURVE",
"1381 447 CURVE SMOOTH",
"1362 449 OFFCURVE",
"1341 450 OFFCURVE",
"1321 450 CURVE SMOOTH",
"1210 450 OFFCURVE",
"1101 437 OFFCURVE",
"991 404 CURVE SMOOTH",
"981 401 OFFCURVE",
"977 407 OFFCURVE",
"981 416 CURVE SMOOTH"
);
}
);
width = 1719;
}
);
note = B;
unicode = 0042;
},
{
glyphname = C;
lastChange = "2020-04-06 13:14:07 +0000";
layers = (
{
anchors = (
{
name = bottom;
position = "{1158, 0}";
},
{
name = top;
position = "{1158, 984}";
}
);
layerId = "BA9C892D-7698-4063-AF69-14CFA3D9CF82";
paths = (
{
closed = 1;
nodes = (
"1407 -103 OFFCURVE",
"1964 36 OFFCURVE",
"2375 331 CURVE SMOOTH",
"2400 348 OFFCURVE",
"2347 357 OFFCURVE",
"2326 340 CURVE SMOOTH",
"2041 134 OFFCURVE",
"1551 -13 OFFCURVE",
"1059 -13 CURVE SMOOTH",
"834 -13 OFFCURVE",
"213 -10 OFFCURVE",
"213 361 CURVE SMOOTH",
"213 531 OFFCURVE",
"372 697 OFFCURVE",
"538 782 CURVE SMOOTH",
"671 850 OFFCURVE",
"981 942 OFFCURVE",
"1124 942 CURVE SMOOTH",
"1147 942 LINE",
"1154 941 OFFCURVE",
"1154 935 OFFCURVE",
"1146 933 CURVE SMOOTH",
"976 883 OFFCURVE",
"757 785 OFFCURVE",
"757 643 CURVE SMOOTH",
"757 626 OFFCURVE",
"761 604 OFFCURVE",
"768 586 CURVE SMOOTH",
"775 570 OFFCURVE",
"834 587 OFFCURVE",
"831 609 CURVE SMOOTH",
"829 618 OFFCURVE",
"828 628 OFFCURVE",
"828 637 CURVE SMOOTH",
"828 818 OFFCURVE",
"1146 892 OFFCURVE",
"1375 892 CURVE SMOOTH",
"1409 892 OFFCURVE",
"1443 892 OFFCURVE",
"1476 890 CURVE SMOOTH",
"1484 889 OFFCURVE",
"1489 885 OFFCURVE",
"1491 877 CURVE SMOOTH",
"1511 801 OFFCURVE",
"1563 741 OFFCURVE",
"1624 702 CURVE SMOOTH",
"1631 698 OFFCURVE",
"1637 698 OFFCURVE",
"1644 703 CURVE SMOOTH",
"1679 726 OFFCURVE",
"1714 750 OFFCURVE",
"1750 772 CURVE SMOOTH",
"1759 778 OFFCURVE",
"1758 785 OFFCURVE",
"1749 791 CURVE SMOOTH",
"1709 817 OFFCURVE",
"1676 854 OFFCURVE",
"1652 896 CURVE SMOOTH",
"1648 903 OFFCURVE",
"1649 910 OFFCURVE",
"1656 915 CURVE SMOOTH",
"1675 931 OFFCURVE",
"1693 946 OFFCURVE",
"1713 959 CURVE SMOOTH",
"1722 966 OFFCURVE",
"1720 974 OFFCURVE",
"1709 974 CURVE SMOOTH",
"1636 978 OFFCURVE",
"1575 980 OFFCURVE",
"1496 980 CURVE SMOOTH",
"1480 980 LINE SMOOTH",
"1472 980 OFFCURVE",
"1465 981 OFFCURVE",
"1457 985 CURVE SMOOTH",
"1394 1016 OFFCURVE",
"1325 1032 OFFCURVE",
"1244 1032 CURVE SMOOTH",
"1156 1032 OFFCURVE",
"1069 1010 OFFCURVE",
"985 990 CURVE SMOOTH",
"683 918 OFFCURVE",
"414 799 OFFCURVE",
"203 561 CURVE SMOOTH",
"140 490 OFFCURVE",
"79 401 OFFCURVE",
"79 282 CURVE SMOOTH",
"79 -84 OFFCURVE",
"688 -103 OFFCURVE",
"941 -103 CURVE SMOOTH"
);
}
);
width = 2316;
}
);
note = C;
unicode = 0043;
},
{
glyphname = Ccedilla;
lastChange = "2020-03-28 10:34:43 +0000";
layers = (
{
layerId = "BA9C892D-7698-4063-AF69-14CFA3D9CF82";
paths = (
{
closed = 1;
nodes = (
"2041 134 OFFCURVE",
"1551 -13 OFFCURVE",
"1059 -13 CURVE SMOOTH",
"834 -13 OFFCURVE",
"213 -10 OFFCURVE",
"213 361 CURVE SMOOTH",
"213 531 OFFCURVE",
"372 697 OFFCURVE",
"538 782 CURVE SMOOTH",
"671 850 OFFCURVE",
"981 942 OFFCURVE",
"1124 942 CURVE SMOOTH",
"1147 942 LINE",
"1154 941 OFFCURVE",
"1154 935 OFFCURVE",
"1146 933 CURVE SMOOTH",
"976 883 OFFCURVE",
"757 785 OFFCURVE",
"757 643 CURVE SMOOTH",
"757 626 OFFCURVE",
"761 604 OFFCURVE",
"768 586 CURVE SMOOTH",
"775 570 OFFCURVE",
"834 587 OFFCURVE",
"831 609 CURVE SMOOTH",
"829 618 OFFCURVE",
"828 628 OFFCURVE",
"828 637 CURVE SMOOTH",
"828 818 OFFCURVE",
"1146 892 OFFCURVE",
"1375 892 CURVE SMOOTH",
"1409 892 OFFCURVE",
"1443 892 OFFCURVE",
"1476 890 CURVE SMOOTH",
"1484 889 OFFCURVE",
"1489 885 OFFCURVE",
"1491 877 CURVE SMOOTH",
"1511 801 OFFCURVE",
"1563 741 OFFCURVE",
"1624 702 CURVE SMOOTH",
"1631 698 OFFCURVE",
"1637 698 OFFCURVE",
"1644 703 CURVE SMOOTH",
"1679 726 OFFCURVE",
"1714 750 OFFCURVE",
"1750 772 CURVE SMOOTH",
"1759 778 OFFCURVE",
"1758 785 OFFCURVE",
"1749 791 CURVE SMOOTH",
"1709 817 OFFCURVE",
"1676 854 OFFCURVE",
"1652 896 CURVE SMOOTH",
"1648 903 OFFCURVE",
"1649 910 OFFCURVE",
"1656 915 CURVE SMOOTH",
"1675 931 OFFCURVE",
"1693 946 OFFCURVE",
"1713 959 CURVE SMOOTH",
"1722 966 OFFCURVE",
"1720 974 OFFCURVE",
"1709 974 CURVE SMOOTH",
"1636 978 OFFCURVE",
"1575 980 OFFCURVE",
"1496 980 CURVE SMOOTH",
"1480 980 LINE SMOOTH",
"1472 980 OFFCURVE",
"1465 981 OFFCURVE",
"1457 985 CURVE SMOOTH",
"1394 1016 OFFCURVE",
"1325 1032 OFFCURVE",
"1244 1032 CURVE SMOOTH",
"1156 1032 OFFCURVE",
"1069 1010 OFFCURVE",
"985 990 CURVE SMOOTH",
"683 918 OFFCURVE",
"414 799 OFFCURVE",
"203 561 CURVE SMOOTH",
"140 490 OFFCURVE",
"79 401 OFFCURVE",
"79 282 CURVE SMOOTH",
"79 -56 OFFCURVE",
"598 -98 OFFCURVE",
"877 -103 CURVE SMOOTH",
"889 -103 OFFCURVE",
"891 -110 OFFCURVE",
"882 -117 CURVE SMOOTH",
"736 -220 LINE SMOOTH",
"709 -239 OFFCURVE",
"693 -259 OFFCURVE",
"693 -271 CURVE SMOOTH",
"693 -279 OFFCURVE",
"696 -283 OFFCURVE",
"704 -289 CURVE SMOOTH",
"743 -318 OFFCURVE",
"769 -342 OFFCURVE",
"781 -358 CURVE SMOOTH",
"793 -373 OFFCURVE",
"799 -390 OFFCURVE",
"799 -411 CURVE SMOOTH",
"799 -421 OFFCURVE",
"796 -433 OFFCURVE",
"793 -444 CURVE SMOOTH",
"790 -454 OFFCURVE",
"782 -458 OFFCURVE",
"773 -458 CURVE SMOOTH",
"747 -458 OFFCURVE",
"711 -428 OFFCURVE",
"700 -418 CURVE",
"689 -411 OFFCURVE",
"679 -406 OFFCURVE",
"668 -406 CURVE SMOOTH",
"661 -406 OFFCURVE",
"654 -408 OFFCURVE",
"648 -411 CURVE SMOOTH",
"585 -440 LINE SMOOTH",
"569 -447 OFFCURVE",
"559 -457 OFFCURVE",
"559 -465 CURVE SMOOTH",
"559 -472 OFFCURVE",
"561 -473 OFFCURVE",
"567 -479 CURVE SMOOTH",
"595 -512 OFFCURVE",
"639 -549 OFFCURVE",
"686 -549 CURVE SMOOTH",
"698 -549 OFFCURVE",
"724 -539 OFFCURVE",
"761 -527 CURVE SMOOTH",
"821 -506 OFFCURVE",
"934 -451 OFFCURVE",
"934 -376 CURVE SMOOTH",
"934 -327 OFFCURVE",
"883 -261 OFFCURVE",
"854 -236 CURVE SMOOTH",
"846 -229 OFFCURVE",
"843 -222 OFFCURVE",
"843 -215 CURVE SMOOTH",
"843 -208 OFFCURVE",
"847 -203 OFFCURVE",
"857 -197 CURVE SMOOTH",
"989 -108 LINE SMOOTH",
"996 -104 OFFCURVE",
"1002 -102 OFFCURVE",
"1010 -102 CURVE SMOOTH",
"1462 -89 OFFCURVE",
"1984 50 OFFCURVE",
"2375 331 CURVE SMOOTH",
"2400 348 OFFCURVE",
"2347 357 OFFCURVE",
"2326 340 CURVE"
);
}
);
width = 2316;
}
);
note = Ccedilla;
unicode = 00C7;
},
{
glyphname = D;
lastChange = "2020-04-06 13:14:14 +0000";
layers = (
{
anchors = (
{
name = bottom;
position = "{978, 0}";
},
{
name = center;
position = "{978, 492}";
},
{
name = top;
position = "{978, 984}";
}
);
layerId = "BA9C892D-7698-4063-AF69-14CFA3D9CF82";
paths = (
{
closed = 1;
nodes = (
"1529 -28 OFFCURVE",
"1948 173 OFFCURVE",
"1948 438 CURVE SMOOTH",
"1948 545 OFFCURVE",
"1885 627 OFFCURVE",
"1832 688 CURVE SMOOTH",
"1638 911 OFFCURVE",
"1387 1006 OFFCURVE",
"1025 1006 CURVE SMOOTH",
"782 1006 OFFCURVE",
"38 968 OFFCURVE",
"38 736 CURVE SMOOTH",
"38 652 OFFCURVE",
"143 600 OFFCURVE",
"226 586 CURVE SMOOTH",
"236 584 OFFCURVE",
"238 578 OFFCURVE",
"229 571 CURVE SMOOTH",
"127 502 OFFCURVE",
"48 417 OFFCURVE",
"48 310 CURVE SMOOTH",
"48 19 OFFCURVE",
"653 -28 OFFCURVE",
"880 -28 CURVE SMOOTH"
);
},
{
closed = 1;
nodes = (
"714 61 OFFCURVE",
"185 120 OFFCURVE",
"185 389 CURVE SMOOTH",
"185 486 OFFCURVE",
"248 548 OFFCURVE",
"301 575 CURVE SMOOTH",
"307 578 OFFCURVE",
"312 579 OFFCURVE",
"318 578 CURVE SMOOTH",
"370 574 OFFCURVE",
"413 569 OFFCURVE",
"461 560 CURVE SMOOTH",
"687 516 OFFCURVE",
"973 487 OFFCURVE",
"1156 477 CURVE SMOOTH",
"1301 469 OFFCURVE",
"1639 453 OFFCURVE",
"1786 446 CURVE SMOOTH",
"1794 446 OFFCURVE",
"1799 443 OFFCURVE",
"1802 435 CURVE SMOOTH",
"1809 411 OFFCURVE",
"1813 387 OFFCURVE",
"1813 358 CURVE SMOOTH",
"1813 132 OFFCURVE",
"1235 61 OFFCURVE",
"998 61 CURVE SMOOTH"
);
},
{
closed = 1;
nodes = (
"1614 516 OFFCURVE",
"1301 564 OFFCURVE",
"1201 575 CURVE SMOOTH",
"966 600 OFFCURVE",
"805 617 OFFCURVE",
"585 649 CURVE SMOOTH",
"574 651 OFFCURVE",
"573 663 OFFCURVE",
"584 666 CURVE SMOOTH",
"671 689 OFFCURVE",
"784 709 OFFCURVE",
"874 709 CURVE SMOOTH",
"951 709 OFFCURVE",
"1042 705 OFFCURVE",
"1127 696 CURVE SMOOTH",
"1180 690 OFFCURVE",
"1183 714 OFFCURVE",
"1131 723 CURVE SMOOTH",
"1050 737 OFFCURVE",
"957 747 OFFCURVE",
"880 747 CURVE SMOOTH",
"715 747 OFFCURVE",
"548 719 OFFCURVE",
"416 673 CURVE SMOOTH",
"410 671 OFFCURVE",
"406 670 OFFCURVE",
"399 671 CURVE SMOOTH",
"307 677 OFFCURVE",
"211 723 OFFCURVE",
"211 792 CURVE SMOOTH",
"211 870 OFFCURVE",
"702 918 OFFCURVE",
"903 918 CURVE SMOOTH",
"1120 918 OFFCURVE",
"1317 881 OFFCURVE",
"1467 796 CURVE SMOOTH",
"1581 731 OFFCURVE",
"1725 591 OFFCURVE",
"1772 506 CURVE SMOOTH",
"1777 497 OFFCURVE",
"1772 491 OFFCURVE",
"1762 493 CURVE SMOOTH"
);
}
);
width = 1955;
}
);
note = D;
unicode = 0044;
},
{
glyphname = Eth;
lastChange = "2020-04-06 13:14:29 +0000";
layers = (
{
anchors = (
{
name = top;
position = "{888, 984}";
}
);
background = {
paths = (
{
closed = 1;
nodes = (
"198 -198 LINE",
"201 -164 OFFCURVE",
"205 -133 OFFCURVE",
"210 -99 CURVE",
"444 -156 OFFCURVE",
"671 -168 OFFCURVE",
"941 -168 CURVE SMOOTH",
"1073 -168 OFFCURVE",
"1204 -163 OFFCURVE",
"1337 -140 CURVE SMOOTH",
"1406 -129 OFFCURVE",
"1500 -108 OFFCURVE",
"1619 -28 CURVE SMOOTH",
"1738 53 OFFCURVE",
"1779 125 OFFCURVE",
"1798 196 CURVE SMOOTH",
"1806 223 OFFCURVE",
"1809 249 OFFCURVE",
"1809 277 CURVE SMOOTH",
"1809 353 OFFCURVE",
"1786 408 OFFCURVE",
"1756 461 CURVE SMOOTH",
"1713 541 OFFCURVE",
"1649 606 OFFCURVE",
"1580 663 CURVE SMOOTH",
"1367 834 OFFCURVE",
"1039 978 OFFCURVE",
"696 978 CURVE",
"730 1019 OFFCURVE",
"764 1053 OFFCURVE",
"800 1089 CURVE",
"690 1049 LINE",
"663 1022 OFFCURVE",
"638 1000 OFFCURVE",
"615 973 CURVE",
"513 965 OFFCURVE",
"411 945 OFFCURVE",
"307 907 CURVE",
"225 828 LINE",
"320 862 OFFCURVE",
"431 882 OFFCURVE",
"541 886 CURVE",
"450 776 OFFCURVE",
"372 658 OFFCURVE",
"307 536 CURVE",
"216 536 OFFCURVE",
"132 527 OFFCURVE",
"41 514 CURVE",
"-71 429 LINE",
"9 440 OFFCURVE",
"90 447 OFFCURVE",
"171 447 CURVE SMOOTH",
"201 447 OFFCURVE",
"229 447 OFFCURVE",
"259 444 CURVE",
"201 318 OFFCURVE",
"153 189 OFFCURVE",
"119 56 CURVE",
"78 69 OFFCURVE",
"44 85 OFFCURVE",
"3 103 CURVE",
"-130 15 LINE",
"-59 -18 OFFCURVE",
"18 -43 OFFCURVE",
"94 -66 CURVE",
"81 -135 OFFCURVE",
"68 -209 OFFCURVE",
"63 -278 CURVE"
);
},
{
closed = 1;
nodes = (
"747 -80 OFFCURVE",
"498 -62 OFFCURVE",
"231 18 CURVE",
"259 160 OFFCURVE",
"301 304 OFFCURVE",
"358 437 CURVE",
"559 414 OFFCURVE",
"754 351 OFFCURVE",
"933 256 CURVE",
"1063 345 LINE",
"860 452 OFFCURVE",
"633 516 OFFCURVE",
"401 531 CURVE",
"462 658 OFFCURVE",
"538 777 OFFCURVE",
"622 886 CURVE",
"830 878 OFFCURVE",
"1036 818 OFFCURVE",
"1223 721 CURVE SMOOTH",
"1379 640 OFFCURVE",
"1537 530 OFFCURVE",
"1623 378 CURVE SMOOTH",
"1653 325 OFFCURVE",
"1674 268 OFFCURVE",
"1674 196 CURVE SMOOTH",
"1674 169 OFFCURVE",
"1670 142 OFFCURVE",
"1665 119 CURVE SMOOTH",
"1655 78 OFFCURVE",
"1626 46 OFFCURVE",
"1608 23 CURVE",
"1595 5 OFFCURVE",
"1568 -15 OFFCURVE",
"1549 -20 CURVE",
"1526 -28 OFFCURVE",
"1490 -43 OFFCURVE",
"1444 -51 CURVE SMOOTH",
"1318 -71 OFFCURVE",
"1192 -80 OFFCURVE",
"1062 -80 CURVE SMOOTH"
);
}
);
};
layerId = "BA9C892D-7698-4063-AF69-14CFA3D9CF82";
paths = (
{
closed = 1;
nodes = (
"189 -203 LINE SMOOTH",
"195 -199 OFFCURVE",
"198 -195 OFFCURVE",
"199 -187 CURVE SMOOTH",
"202 -162 OFFCURVE",
"204 -137 OFFCURVE",
"208 -111 CURVE SMOOTH",
"209 -103 OFFCURVE",
"214 -100 OFFCURVE",
"222 -102 CURVE SMOOTH",
"452 -156 OFFCURVE",
"676 -168 OFFCURVE",
"941 -168 CURVE SMOOTH",
"1073 -168 OFFCURVE",
"1204 -163 OFFCURVE",
"1337 -140 CURVE SMOOTH",
"1406 -129 OFFCURVE",
"1500 -108 OFFCURVE",
"1619 -28 CURVE SMOOTH",
"1738 53 OFFCURVE",
"1779 125 OFFCURVE",
"1798 196 CURVE SMOOTH",
"1806 223 OFFCURVE",
"1809 249 OFFCURVE",
"1809 277 CURVE SMOOTH",
"1809 353 OFFCURVE",
"1786 408 OFFCURVE",
"1756 461 CURVE SMOOTH",
"1713 541 OFFCURVE",
"1649 606 OFFCURVE",
"1580 663 CURVE SMOOTH",
"1371 831 OFFCURVE",
"1051 973 OFFCURVE",
"715 978 CURVE SMOOTH",
"705 978 OFFCURVE",
"702 985 OFFCURVE",
"709 993 CURVE SMOOTH",
"733 1021 OFFCURVE",
"757 1046 OFFCURVE",
"782 1071 CURVE SMOOTH",
"789 1078 OFFCURVE",
"785 1083 OFFCURVE",
"777 1080 CURVE SMOOTH",
"699 1052 LINE SMOOTH",
"693 1050 OFFCURVE",
"688 1047 OFFCURVE",
"684 1043 CURVE SMOOTH",
"662 1021 OFFCURVE",
"641 1002 OFFCURVE",
"622 981 CURVE SMOOTH",
"617 975 OFFCURVE",
"612 973 OFFCURVE",
"605 972 CURVE SMOOTH",
"509 964 OFFCURVE",
"414 945 OFFCURVE",
"316 910 CURVE SMOOTH",
"309 908 OFFCURVE",
"305 905 OFFCURVE",
"301 901 CURVE SMOOTH",
"245 847 LINE SMOOTH",
"238 840 OFFCURVE",
"241 834 OFFCURVE",
"251 837 CURVE SMOOTH",
"334 864 OFFCURVE",
"428 880 OFFCURVE",
"521 885 CURVE SMOOTH",
"532 886 OFFCURVE",
"535 879 OFFCURVE",
"528 871 CURVE SMOOTH",
"445 768 OFFCURVE",
"373 657 OFFCURVE",
"312 544 CURVE",
"308 539 OFFCURVE",
"304 536 OFFCURVE",
"297 536 CURVE SMOOTH",
"213 535 OFFCURVE",
"135 528 OFFCURVE",
"50 515 CURVE SMOOTH",
"44 514 OFFCURVE",
"39 512 OFFCURVE",
"34 508 CURVE SMOOTH",
"-48 446 LINE SMOOTH",
"-57 439 OFFCURVE",
"-54 431 OFFCURVE",
"-42 433 CURVE SMOOTH",
"28 442 OFFCURVE",
"100 447 OFFCURVE",
"171 447 CURVE SMOOTH",
"196 447 OFFCURVE",
"220 447 OFFCURVE",
"244 445 CURVE SMOOTH",
"253 445 OFFCURVE",
"257 439 OFFCURVE",
"253 431 CURVE SMOOTH",
"200 313 OFFCURVE",
"155 192 OFFCURVE",
"122 68 CURVE SMOOTH",
"120 60 OFFCURVE",
"115 57 OFFCURVE",
"107 60 CURVE SMOOTH",
"74 71 OFFCURVE",
"46 84 OFFCURVE",
"13 99 CURVE SMOOTH",
"6 102 OFFCURVE",
"0 101 OFFCURVE",
"-6 97 CURVE SMOOTH",
"-116 24 LINE SMOOTH",
"-124 18 OFFCURVE",
"-123 12 OFFCURVE",
"-114 8 CURVE SMOOTH",
"-51 -20 OFFCURVE",
"17 -43 OFFCURVE",
"83 -63 CURVE SMOOTH",
"90 -65 OFFCURVE",
"93 -70 OFFCURVE",
"92 -77 CURVE SMOOTH",
"81 -137 OFFCURVE",
"70 -200 OFFCURVE",
"65 -260 CURVE SMOOTH",
"64 -270 OFFCURVE",
"70 -274 OFFCURVE",
"78 -269 CURVE SMOOTH"
);
},
{
closed = 1;
nodes = (
"751 -80 OFFCURVE",
"504 -62 OFFCURVE",
"241 15 CURVE SMOOTH",
"234 17 OFFCURVE",
"232 22 OFFCURVE",
"233 29 CURVE SMOOTH",
"260 165 OFFCURVE",
"300 301 OFFCURVE",
"354 427 CURVE SMOOTH",
"357 434 OFFCURVE",
"361 437 OFFCURVE",
"368 436 CURVE SMOOTH",
"562 412 OFFCURVE",
"750 351 OFFCURVE",
"923 261 CURVE SMOOTH",
"930 258 OFFCURVE",
"935 257 OFFCURVE",
"942 262 CURVE SMOOTH",
"1050 336 LINE SMOOTH",
"1058 342 OFFCURVE",
"1057 348 OFFCURVE",
"1049 352 CURVE SMOOTH",
"853 453 OFFCURVE",
"638 513 OFFCURVE",
"416 530 CURVE SMOOTH",
"407 531 OFFCURVE",
"404 536 OFFCURVE",
"408 545 CURVE SMOOTH",
"465 663 OFFCURVE",
"537 775 OFFCURVE",
"615 877 CURVE SMOOTH",
"620 884 OFFCURVE",
"625 886 OFFCURVE",
"633 886 CURVE SMOOTH",
"837 876 OFFCURVE",
"1039 816 OFFCURVE",
"1223 721 CURVE SMOOTH",
"1379 640 OFFCURVE",
"1537 530 OFFCURVE",
"1623 378 CURVE SMOOTH",
"1653 325 OFFCURVE",
"1674 268 OFFCURVE",
"1674 196 CURVE SMOOTH",
"1674 70 OFFCURVE",
"1609 -22 OFFCURVE",
"1444 -51 CURVE SMOOTH",
"1318 -71 OFFCURVE",
"1192 -80 OFFCURVE",
"1062 -80 CURVE SMOOTH"
);
}
);
width = 1856;
}
);
note = Eth;
unicode = 00D0;
},
{
glyphname = E;
lastChange = "2020-03-28 11:07:08 +0000";
layers = (
{
anchors = (
{
name = bottom;
position = "{490, 0}";
},
{
name = ogonek;
position = "{882, 10}";
},
{
name = top;
position = "{850, 984}";
},
{
name = topleft;
position = "{20, 984}";
}
);
background = {
paths = (
{
closed = 1;
nodes = (
"730 -48 OFFCURVE",
"922 39 OFFCURVE",
"1048 152 CURVE",
"952 126 LINE",
"897 74 OFFCURVE",
"782 42 OFFCURVE",
"655 42 CURVE SMOOTH",
"437 42 OFFCURVE",
"233 140 OFFCURVE",
"185 330 CURVE",
"266 344 OFFCURVE",
"329 354 OFFCURVE",
"409 354 CURVE SMOOTH",
"459 354 OFFCURVE",
"511 348 OFFCURVE",
"554 343 CURVE",
"556 377 LINE",
"498 392 OFFCURVE",
"465 399 OFFCURVE",
"394 399 CURVE SMOOTH",
"364 399 OFFCURVE",
"259 401 OFFCURVE",
"259 429 CURVE SMOOTH",
"259 464 OFFCURVE",
"408 493 OFFCURVE",
"460 497 CURVE SMOOTH",
"489 499 OFFCURVE",
"516 503 OFFCURVE",
"543 510 CURVE SMOOTH",
"595 523 OFFCURVE",
"683 595 OFFCURVE",
"683 635 CURVE SMOOTH",
"683 653 OFFCURVE",
"673 666 OFFCURVE",
"650 674 CURVE SMOOTH",
"630 681 OFFCURVE",
"605 688 OFFCURVE",
"579 694 CURVE SMOOTH",
"515 709 OFFCURVE",
"446 727 OFFCURVE",
"446 758 CURVE SMOOTH",
"446 785 OFFCURVE",
"481 795 OFFCURVE",
"508 795 CURVE SMOOTH",
"549 795 OFFCURVE",
"628 786 OFFCURVE",
"670 781 CURVE",
"673 795 LINE",
"593 804 OFFCURVE",
"555 808 OFFCURVE",
"514 811 CURVE",
"682 905 OFFCURVE",
"868 960 OFFCURVE",
"1117 960 CURVE SMOOTH",
"1245 960 OFFCURVE",
"1535 941 OFFCURVE",
"1535 805 CURVE SMOOTH",
"1535 792 OFFCURVE",
"1534 775 OFFCURVE",
"1531 764 CURVE",
"1554 758 LINE",
"1559 773 OFFCURVE",
"1566 800 OFFCURVE",
"1566 815 CURVE SMOOTH",
"1566 968 OFFCURVE",
"1365 1009 OFFCURVE",
"1178 1009 CURVE SMOOTH",
"844 1009 OFFCURVE",
"691 949 OFFCURVE",
"452 813 CURVE",
"432 813 OFFCURVE",
"411 809 OFFCURVE",
"385 792 CURVE SMOOTH",
"342 765 OFFCURVE",
"328 751 OFFCURVE",
"315 728 CURVE",
"154 619 OFFCURVE",
"41 488 OFFCURVE",
"41 330 CURVE SMOOTH",
"41 106 OFFCURVE",
"242 -48 OFFCURVE",
"536 -48 CURVE SMOOTH"
);
},
{
closed = 1;
nodes = (
"188 545 OFFCURVE",
"251 626 OFFCURVE",
"309 676 CURVE",
"323 636 OFFCURVE",
"384 620 OFFCURVE",
"436 610 CURVE SMOOTH",
"479 602 OFFCURVE",
"516 595 OFFCURVE",
"516 574 CURVE SMOOTH",
"516 547 OFFCURVE",
"396 518 OFFCURVE",
"358 509 CURVE SMOOTH",
"293 494 OFFCURVE",
"245 480 OFFCURVE",
"178 442 CURVE"
);
}
);
};
layerId = "BA9C892D-7698-4063-AF69-14CFA3D9CF82";
paths = (
{
closed = 1;
nodes = (
"721 -48 OFFCURVE",
"904 31 OFFCURVE",
"1029 136 CURVE SMOOTH",
"1036 142 OFFCURVE",
"1030 148 OFFCURVE",
"1021 145 CURVE SMOOTH",
"961 128 LINE SMOOTH",
"955 126 OFFCURVE",
"950 124 OFFCURVE",
"945 120 CURVE SMOOTH",
"888 72 OFFCURVE",
"777 42 OFFCURVE",
"655 42 CURVE SMOOTH",
"442 42 OFFCURVE",
"242 136 OFFCURVE",
"188 318 CURVE SMOOTH",
"186 326 OFFCURVE",
"190 331 OFFCURVE",
"198 332 CURVE SMOOTH",
"273 345 OFFCURVE",
"333 354 OFFCURVE",
"409 354 CURVE SMOOTH",
"454 354 OFFCURVE",
"501 349 OFFCURVE",
"542 344 CURVE",
"560 344 OFFCURVE",
"561 376 OFFCURVE",
"545 380 CURVE SMOOTH",
"494 393 OFFCURVE",
"461 399 OFFCURVE",
"394 399 CURVE SMOOTH",
"364 399 OFFCURVE",
"259 401 OFFCURVE",
"259 429 CURVE SMOOTH",
"259 464 OFFCURVE",
"408 493 OFFCURVE",
"460 497 CURVE SMOOTH",
"489 499 OFFCURVE",
"516 503 OFFCURVE",
"543 510 CURVE SMOOTH",
"595 523 OFFCURVE",
"683 595 OFFCURVE",
"683 635 CURVE SMOOTH",
"683 653 OFFCURVE",
"673 666 OFFCURVE",
"650 674 CURVE SMOOTH",
"630 681 OFFCURVE",
"605 688 OFFCURVE",
"579 694 CURVE SMOOTH",
"515 709 OFFCURVE",
"446 727 OFFCURVE",
"446 758 CURVE SMOOTH",
"446 785 OFFCURVE",
"481 795 OFFCURVE",
"508 795 CURVE SMOOTH",
"546 795 OFFCURVE",
"617 787 OFFCURVE",
"661 782 CURVE SMOOTH",
"671 780 OFFCURVE",
"680 793 OFFCURVE",
"662 796 CURVE SMOOTH",
"537 809 LINE SMOOTH",
"527 810 OFFCURVE",
"526 817 OFFCURVE",
"534 822 CURVE SMOOTH",
"697 909 OFFCURVE",
"878 960 OFFCURVE",
"1117 960 CURVE SMOOTH",
"1245 960 OFFCURVE",
"1535 941 OFFCURVE",
"1535 805 CURVE SMOOTH",
"1535 795 OFFCURVE",
"1534 783 OFFCURVE",
"1533 773 CURVE SMOOTH",
"1531 759 OFFCURVE",
"1553 754 OFFCURVE",
"1557 767 CURVE SMOOTH",
"1561 782 OFFCURVE",
"1566 803 OFFCURVE",
"1566 815 CURVE SMOOTH",
"1566 968 OFFCURVE",
"1365 1009 OFFCURVE",
"1178 1009 CURVE SMOOTH",
"848 1009 OFFCURVE",
"694 950 OFFCURVE",
"460 818 CURVE SMOOTH",
"454 814 OFFCURVE",
"449 813 OFFCURVE",
"443 813 CURVE SMOOTH",
"426 811 OFFCURVE",
"407 806 OFFCURVE",
"385 792 CURVE SMOOTH",
"347 768 OFFCURVE",
"332 754 OFFCURVE",
"320 736 CURVE SMOOTH",
"316 730 OFFCURVE",
"313 727 OFFCURVE",
"307 723 CURVE SMOOTH",
"150 615 OFFCURVE",
"41 486 OFFCURVE",
"41 330 CURVE SMOOTH",
"41 106 OFFCURVE",
"242 -48 OFFCURVE",
"536 -48 CURVE SMOOTH"
);
},
{
closed = 1;
nodes = (
"195 551 OFFCURVE",
"250 622 OFFCURVE",
"299 666 CURVE SMOOTH",
"306 672 OFFCURVE",
"310 671 OFFCURVE",
"315 664 CURVE SMOOTH",
"335 633 OFFCURVE",
"389 619 OFFCURVE",
"436 610 CURVE SMOOTH",
"479 602 OFFCURVE",
"516 595 OFFCURVE",
"516 574 CURVE SMOOTH",
"516 547 OFFCURVE",
"396 518 OFFCURVE",
"358 509 CURVE SMOOTH",
"299 495 OFFCURVE",
"253 482 OFFCURVE",
"195 451 CURVE SMOOTH",
"186 446 OFFCURVE",
"179 451 OFFCURVE",
"181 461 CURVE SMOOTH"
);
}
);
width = 980;
}
);
note = E;
unicode = 0045;
},
{
glyphname = Eogonek;
lastChange = "2020-03-28 11:10:15 +0000";
layers = (
{
anchors = (
{
name = bottom;
position = "{490, 0}";
},
{
name = ogonek;
position = "{882, 10}";
},
{
name = top;
position = "{850, 984}";
},
{
name = topleft;
position = "{20, 984}";
}
);
layerId = "BA9C892D-7698-4063-AF69-14CFA3D9CF82";
paths = (
{
closed = 1;
nodes = (
"634 -406 OFFCURVE",
"734 -343 OFFCURVE",
"788 -286 CURVE SMOOTH",
"796 -278 OFFCURVE",
"791 -271 OFFCURVE",
"780 -277 CURVE SMOOTH",
"745 -295 OFFCURVE",
"707 -316 OFFCURVE",
"665 -316 CURVE SMOOTH",
"647 -316 OFFCURVE",
"626 -314 OFFCURVE",
"607 -309 CURVE SMOOTH",
"544 -290 OFFCURVE",
"475 -237 OFFCURVE",
"475 -156 CURVE SMOOTH",
"475 -114 OFFCURVE",
"498 -68 OFFCURVE",
"526 -52 CURVE SMOOTH",
"532 -48 OFFCURVE",
"536 -48 OFFCURVE",
"543 -48 CURVE SMOOTH",
"728 -45 OFFCURVE",
"906 33 OFFCURVE",
"1029 136 CURVE SMOOTH",
"1036 142 OFFCURVE",
"1030 148 OFFCURVE",
"1021 145 CURVE SMOOTH",
"961 128 LINE SMOOTH",
"955 126 OFFCURVE",
"950 124 OFFCURVE",
"945 120 CURVE SMOOTH",
"888 72 OFFCURVE",
"777 42 OFFCURVE",
"655 42 CURVE SMOOTH",
"442 42 OFFCURVE",
"242 136 OFFCURVE",
"188 318 CURVE SMOOTH",
"186 326 OFFCURVE",
"190 331 OFFCURVE",
"198 332 CURVE SMOOTH",
"273 345 OFFCURVE",
"333 354 OFFCURVE",
"409 354 CURVE SMOOTH",
"454 354 OFFCURVE",
"501 349 OFFCURVE",
"542 344 CURVE",
"560 344 OFFCURVE",
"561 376 OFFCURVE",
"545 380 CURVE SMOOTH",
"494 393 OFFCURVE",
"461 399 OFFCURVE",
"394 399 CURVE SMOOTH",
"364 399 OFFCURVE",
"259 401 OFFCURVE",
"259 429 CURVE SMOOTH",
"259 464 OFFCURVE",
"408 493 OFFCURVE",
"460 497 CURVE SMOOTH",
"489 499 OFFCURVE",
"516 503 OFFCURVE",
"543 510 CURVE SMOOTH",
"595 523 OFFCURVE",
"683 595 OFFCURVE",
"683 635 CURVE SMOOTH",
"683 653 OFFCURVE",
"673 666 OFFCURVE",
"650 674 CURVE SMOOTH",
"630 681 OFFCURVE",
"605 688 OFFCURVE",
"579 694 CURVE SMOOTH",
"515 709 OFFCURVE",
"446 727 OFFCURVE",
"446 758 CURVE SMOOTH",
"446 785 OFFCURVE",
"481 795 OFFCURVE",
"508 795 CURVE SMOOTH",
"546 795 OFFCURVE",
"617 787 OFFCURVE",
"661 782 CURVE SMOOTH",
"671 780 OFFCURVE",
"680 793 OFFCURVE",
"662 796 CURVE SMOOTH",
"537 809 LINE SMOOTH",
"527 810 OFFCURVE",
"526 817 OFFCURVE",
"534 822 CURVE SMOOTH",
"697 909 OFFCURVE",
"878 960 OFFCURVE",
"1117 960 CURVE SMOOTH",
"1245 960 OFFCURVE",
"1535 941 OFFCURVE",
"1535 805 CURVE SMOOTH",
"1535 795 OFFCURVE",
"1534 783 OFFCURVE",
"1533 773 CURVE SMOOTH",
"1531 759 OFFCURVE",
"1553 754 OFFCURVE",
"1557 767 CURVE SMOOTH",
"1561 782 OFFCURVE",
"1566 803 OFFCURVE",
"1566 815 CURVE SMOOTH",
"1566 968 OFFCURVE",
"1365 1009 OFFCURVE",
"1178 1009 CURVE SMOOTH",
"848 1009 OFFCURVE",
"694 950 OFFCURVE",
"460 818 CURVE SMOOTH",
"454 814 OFFCURVE",
"449 813 OFFCURVE",
"443 813 CURVE SMOOTH",
"426 811 OFFCURVE",
"407 806 OFFCURVE",
"385 792 CURVE SMOOTH",
"347 768 OFFCURVE",
"332 754 OFFCURVE",
"320 736 CURVE SMOOTH",
"316 730 OFFCURVE",
"313 727 OFFCURVE",
"307 723 CURVE SMOOTH",
"150 615 OFFCURVE",
"41 486 OFFCURVE",
"41 330 CURVE SMOOTH",
"41 128 OFFCURVE",
"205 -17 OFFCURVE",
"452 -44 CURVE SMOOTH",
"463 -45 OFFCURVE",
"464 -52 OFFCURVE",
"456 -58 CURVE SMOOTH",
"435 -73 OFFCURVE",
"416 -88 OFFCURVE",
"401 -103 CURVE SMOOTH",
"367 -137 OFFCURVE",
"339 -179 OFFCURVE",
"339 -236 CURVE SMOOTH",
"339 -263 OFFCURVE",
"345 -285 OFFCURVE",
"356 -305 CURVE SMOOTH",
"390 -362 OFFCURVE",
"457 -406 OFFCURVE",
"545 -406 CURVE SMOOTH"
);
},
{
closed = 1;
nodes = (
"186 446 OFFCURVE",
"179 451 OFFCURVE",
"181 461 CURVE SMOOTH",
"195 551 OFFCURVE",
"250 622 OFFCURVE",
"299 666 CURVE SMOOTH",
"306 672 OFFCURVE",
"310 671 OFFCURVE",
"315 664 CURVE SMOOTH",
"335 633 OFFCURVE",
"389 619 OFFCURVE",
"436 610 CURVE SMOOTH",
"479 602 OFFCURVE",
"516 595 OFFCURVE",
"516 574 CURVE SMOOTH",
"516 547 OFFCURVE",
"396 518 OFFCURVE",
"358 509 CURVE SMOOTH",
"299 495 OFFCURVE",
"253 482 OFFCURVE",
"195 451 CURVE SMOOTH"
);
}
);
width = 980;
}
);
note = Eogonek;
unicode = 0118;
},
{
glyphname = F;
lastChange = "2020-04-06 13:14:38 +0000";
layers = (
{
anchors = (
{
name = top;
position = "{968, 984}";
}
);
layerId = "BA9C892D-7698-4063-AF69-14CFA3D9CF82";
paths = (
{
closed = 1;
nodes = (
"824 -694 LINE SMOOTH",
"830 -691 OFFCURVE",
"834 -687 OFFCURVE",
"837 -681 CURVE SMOOTH",
"869 -604 OFFCURVE",
"898 -530 OFFCURVE",
"927 -452 CURVE SMOOTH",
"997 -263 OFFCURVE",
"1042 -63 OFFCURVE",
"1094 140 CURVE SMOOTH",
"1096 147 OFFCURVE",
"1100 150 OFFCURVE",
"1108 150 CURVE SMOOTH",
"1170 151 OFFCURVE",
"1232 155 OFFCURVE",
"1293 159 CURVE SMOOTH",
"1300 160 OFFCURVE",
"1305 162 OFFCURVE",
"1310 166 CURVE SMOOTH",
"1339 189 OFFCURVE",
"1371 210 OFFCURVE",
"1400 232 CURVE SMOOTH",
"1409 239 OFFCURVE",
"1406 247 OFFCURVE",
"1394 246 CURVE SMOOTH",
"1330 242 OFFCURVE",
"1262 240 OFFCURVE",
"1199 240 CURVE SMOOTH",
"1177 240 OFFCURVE",
"1156 241 OFFCURVE",
"1134 241 CURVE SMOOTH",
"1125 241 OFFCURVE",
"1121 246 OFFCURVE",
"1123 254 CURVE SMOOTH",
"1149 356 OFFCURVE",
"1167 461 OFFCURVE",
"1192 564 CURVE SMOOTH",
"1193 571 OFFCURVE",
"1197 575 OFFCURVE",
"1203 579 CURVE SMOOTH",
"1272 616 OFFCURVE",
"1341 664 OFFCURVE",
"1382 703 CURVE SMOOTH",
"1437 755 OFFCURVE",
"1534 845 OFFCURVE",
"1534 909 CURVE SMOOTH",
"1534 951 OFFCURVE",
"1496 980 OFFCURVE",
"1455 980 CURVE SMOOTH",
"1397 980 OFFCURVE",
"1324 927 OFFCURVE",
"1291 904 CURVE SMOOTH",
"1222 851 OFFCURVE",
"1198 811 OFFCURVE",
"1171 773 CURVE SMOOTH",
"1144 734 OFFCURVE",
"1123 693 OFFCURVE",
"1106 651 CURVE SMOOTH",
"1102 642 OFFCURVE",
"1096 641 OFFCURVE",
"1090 648 CURVE SMOOTH",
"1028 716 OFFCURVE",
"932 782 OFFCURVE",
"813 782 CURVE SMOOTH",
"770 782 OFFCURVE",
"726 770 OFFCURVE",
"673 750 CURVE SMOOTH",
"603 724 OFFCURVE",
"519 675 OFFCURVE",
"462 625 CURVE SMOOTH",
"387 559 OFFCURVE",
"346 495 OFFCURVE",
"310 432 CURVE SMOOTH",
"277 374 OFFCURVE",
"248 312 OFFCURVE",
"228 250 CURVE SMOOTH",
"226 243 OFFCURVE",
"222 240 OFFCURVE",
"215 239 CURVE SMOOTH",
"103 233 LINE",
"97 232 OFFCURVE",
"92 231 OFFCURVE",
"86 226 CURVE SMOOTH",
"56 203 OFFCURVE",
"30 180 OFFCURVE",
"1 157 CURVE SMOOTH",
"-8 150 OFFCURVE",
"-6 142 OFFCURVE",
"6 143 CURVE SMOOTH",
"65 146 OFFCURVE",
"125 151 OFFCURVE",
"184 154 CURVE SMOOTH",
"193 155 OFFCURVE",
"197 150 OFFCURVE",
"195 141 CURVE SMOOTH",
"176 62 OFFCURVE",
"163 -16 OFFCURVE",
"145 -95 CURVE SMOOTH",
"126 -179 OFFCURVE",
"100 -259 OFFCURVE",
"80 -343 CURVE SMOOTH",
"52 -461 OFFCURVE",
"22 -577 OFFCURVE",
"-34 -670 CURVE SMOOTH",
"-40 -680 OFFCURVE",
"-34 -687 OFFCURVE",
"-23 -681 CURVE SMOOTH",
"8 -666 OFFCURVE",
"39 -648 OFFCURVE",
"71 -634 CURVE SMOOTH",
"78 -631 OFFCURVE",
"82 -628 OFFCURVE",
"85 -622 CURVE SMOOTH",
"111 -584 OFFCURVE",
"130 -545 OFFCURVE",
"147 -505 CURVE SMOOTH",
"180 -426 OFFCURVE",
"194 -347 OFFCURVE",
"213 -267 CURVE SMOOTH",
"233 -183 OFFCURVE",
"260 -103 OFFCURVE",
"279 -19 CURVE SMOOTH",
"291 36 OFFCURVE",
"302 95 OFFCURVE",
"314 150 CURVE SMOOTH",
"315 157 OFFCURVE",
"319 160 OFFCURVE",
"327 161 CURVE SMOOTH",
"403 164 OFFCURVE",
"476 164 OFFCURVE",
"552 164 CURVE SMOOTH",
"692 164 OFFCURVE",
"830 157 OFFCURVE",
"966 152 CURVE SMOOTH",
"975 152 OFFCURVE",
"979 147 OFFCURVE",
"976 139 CURVE",
"945 21 OFFCURVE",
"920 -99 OFFCURVE",
"888 -217 CURVE SMOOTH",
"839 -399 OFFCURVE",
"778 -574 OFFCURVE",
"706 -738 CURVE SMOOTH",
"702 -748 OFFCURVE",
"708 -753 OFFCURVE",
"718 -748 CURVE SMOOTH"
);
},
{
closed = 1;
nodes = (
"385 400 OFFCURVE",
"462 570 OFFCURVE",
"554 648 CURVE SMOOTH",
"587 676 OFFCURVE",
"633 691 OFFCURVE",
"696 691 CURVE SMOOTH",
"749 691 OFFCURVE",
"803 673 OFFCURVE",
"853 645 CURVE SMOOTH",
"938 597 OFFCURVE",
"1007 518 OFFCURVE",
"1038 418 CURVE SMOOTH",
"1040 411 OFFCURVE",
"1041 407 OFFCURVE",
"1039 400 CURVE SMOOTH",
"1029 351 OFFCURVE",
"1017 306 OFFCURVE",
"1006 257 CURVE SMOOTH",
"1004 250 OFFCURVE",
"999 246 OFFCURVE",
"992 246 CURVE SMOOTH",
"887 250 OFFCURVE",
"780 255 OFFCURVE",
"674 255 CURVE SMOOTH",
"567 255 OFFCURVE",
"459 251 OFFCURVE",
"354 247 CURVE SMOOTH",
"345 246 OFFCURVE",
"341 251 OFFCURVE",
"343 260 CURVE SMOOTH"
);
},
{
closed = 1;
nodes = (
"1236 721 OFFCURVE",
"1269 795 OFFCURVE",
"1314 856 CURVE SMOOTH",
"1325 871 OFFCURVE",
"1336 888 OFFCURVE",
"1349 888 CURVE SMOOTH",
"1357 888 OFFCURVE",
"1365 886 OFFCURVE",
"1375 876 CURVE SMOOTH",
"1386 865 OFFCURVE",
"1397 848 OFFCURVE",
"1397 830 CURVE SMOOTH",
"1397 802 OFFCURVE",
"1381 773 OFFCURVE",
"1368 758 CURVE SMOOTH",
"1340 726 OFFCURVE",
"1312 701 OFFCURVE",
"1282 673 CURVE SMOOTH",
"1252 644 OFFCURVE",
"1244 637 OFFCURVE",
"1225 629 CURVE SMOOTH",
"1216 625 OFFCURVE",
"1210 630 OFFCURVE",
"1213 640 CURVE SMOOTH"
);
}
);
width = 1398;
}
);
note = F;
unicode = 0046;
},
{
glyphname = G;
lastChange = "2020-04-06 13:14:41 +0000";
layers = (
{
anchors = (
{
name = top;
position = "{978, 984}";
}
);
layerId = "BA9C892D-7698-4063-AF69-14CFA3D9CF82";
paths = (
{
closed = 1;
nodes = (
"859 -38 OFFCURVE",
"995 -12 OFFCURVE",
"1109 69 CURVE SMOOTH",
"1181 120 OFFCURVE",
"1247 185 OFFCURVE",
"1247 284 CURVE SMOOTH",
"1247 386 OFFCURVE",
"1175 442 OFFCURVE",
"1110 480 CURVE SMOOTH",
"1034 523 OFFCURVE",
"960 556 OFFCURVE",
"853 556 CURVE SMOOTH",
"703 556 OFFCURVE",
"548 480 OFFCURVE",
"445 386 CURVE SMOOTH",
"438 380 OFFCURVE",
"439 373 OFFCURVE",
"447 369 CURVE SMOOTH",
"481 353 LINE SMOOTH",
"487 350 OFFCURVE",
"493 351 OFFCURVE",
"497 358 CURVE SMOOTH",
"521 394 OFFCURVE",
"539 414 OFFCURVE",
"559 427 CURVE SMOOTH",
"586 445 OFFCURVE",
"677 467 OFFCURVE",
"734 467 CURVE SMOOTH",
"836 467 OFFCURVE",
"908 435 OFFCURVE",
"980 392 CURVE SMOOTH",
"1043 354 OFFCURVE",
"1110 300 OFFCURVE",
"1110 203 CURVE SMOOTH",
"1110 138 OFFCURVE",
"1076 111 OFFCURVE",
"1034 91 CURVE SMOOTH",
"973 58 OFFCURVE",
"886 51 OFFCURVE",
"792 51 CURVE SMOOTH",
"657 51 OFFCURVE",
"523 64 OFFCURVE",
"424 107 CURVE SMOOTH",
"321 153 OFFCURVE",
"229 252 OFFCURVE",
"229 389 CURVE SMOOTH",
"229 470 OFFCURVE",
"263 549 OFFCURVE",
"309 606 CURVE SMOOTH",
"362 672 OFFCURVE",
"402 700 OFFCURVE",
"450 720 CURVE SMOOTH",
"530 756 OFFCURVE",
"634 781 OFFCURVE",
"743 781 CURVE SMOOTH",
"904 781 OFFCURVE",
"1094 732 OFFCURVE",
"1116 586 CURVE SMOOTH",
"1118 572 OFFCURVE",
"1135 579 OFFCURVE",
"1138 592 CURVE SMOOTH",
"1141 605 OFFCURVE",
"1142 619 OFFCURVE",
"1142 633 CURVE SMOOTH",
"1142 649 OFFCURVE",
"1140 665 OFFCURVE",
"1138 676 CURVE SMOOTH",
"1137 685 OFFCURVE",
"1141 689 OFFCURVE",
"1149 688 CURVE SMOOTH",
"1195 683 OFFCURVE",
"1270 670 OFFCURVE",
"1308 670 CURVE SMOOTH",
"1373 670 OFFCURVE",
"1430 678 OFFCURVE",
"1488 688 CURVE SMOOTH",
"1568 701 OFFCURVE",
"1742 755 OFFCURVE",
"1742 846 CURVE SMOOTH",
"1742 889 OFFCURVE",
"1691 932 OFFCURVE",
"1661 947 CURVE SMOOTH",
"1633 962 OFFCURVE",
"1531 996 OFFCURVE",
"1489 996 CURVE SMOOTH",
"1403 996 OFFCURVE",
"1390 934 OFFCURVE",
"1390 914 CURVE SMOOTH",
"1390 894 OFFCURVE",
"1414 846 OFFCURVE",
"1437 846 CURVE SMOOTH",
"1502 846 OFFCURVE",
"1520 910 OFFCURVE",
"1585 910 CURVE SMOOTH",
"1621 910 OFFCURVE",
"1653 874 OFFCURVE",
"1653 836 CURVE SMOOTH",
"1653 809 OFFCURVE",
"1636 783 OFFCURVE",
"1585 773 CURVE SMOOTH",
"1534 763 OFFCURVE",
"1478 758 OFFCURVE",
"1420 758 CURVE SMOOTH",
"1298 758 OFFCURVE",
"1116 762 OFFCURVE",
"1116 880 CURVE SMOOTH",
"1116 908 OFFCURVE",
"1135 936 OFFCURVE",
"1140 941 CURVE SMOOTH",
"1148 949 OFFCURVE",
"1153 954 OFFCURVE",
"1169 963 CURVE SMOOTH",
"1187 975 OFFCURVE",
"1189 1013 OFFCURVE",
"1169 1002 CURVE SMOOTH",
"1130 979 OFFCURVE",
"1081 947 OFFCURVE",
"1041 910 CURVE SMOOTH",
"1024 894 OFFCURVE",
"1006 876 OFFCURVE",
"995 860 CURVE SMOOTH",
"991 854 OFFCURVE",
"987 852 OFFCURVE",
"980 854 CURVE SMOOTH",
"941 863 OFFCURVE",
"901 871 OFFCURVE",
"861 871 CURVE SMOOTH",
"569 871 OFFCURVE",
"307 708 OFFCURVE",
"185 551 CURVE SMOOTH",
"128 479 OFFCURVE",
"94 395 OFFCURVE",
"94 309 CURVE SMOOTH",
"94 238 OFFCURVE",
"117 167 OFFCURVE",
"163 114 CURVE SMOOTH",
"265 -8 OFFCURVE",
"457 -38 OFFCURVE",
"674 -38 CURVE SMOOTH"
);
}
);
width = 1337;
}
);
note = G;
unicode = 0047;
},
{
glyphname = H;
lastChange = "2020-04-06 13:14:48 +0000";
layers = (
{
anchors = (
{
name = top;
position = "{1378, 984}";
}
);
layerId = "BA9C892D-7698-4063-AF69-14CFA3D9CF82";
paths = (
{
closed = 1;
nodes = (
"80 -537 OFFCURVE",
"134 -527 OFFCURVE",
"192 -507 CURVE SMOOTH",
"200 -504 OFFCURVE",
"205 -501 OFFCURVE",
"209 -497 CURVE SMOOTH",
"229 -477 OFFCURVE",
"246 -458 OFFCURVE",
"264 -439 CURVE SMOOTH",
"271 -432 OFFCURVE",
"268 -427 OFFCURVE",
"259 -430 CURVE SMOOTH",
"228 -439 OFFCURVE",
"191 -447 OFFCURVE",
"150 -447 CURVE SMOOTH",
"28 -447 OFFCURVE",
"-63 -385 OFFCURVE",
"-63 -263 CURVE SMOOTH",
"-63 -175 OFFCURVE",
"-32 -109 OFFCURVE",
"4 -43 CURVE SMOOTH",
"102 143 OFFCURVE",
"238 213 OFFCURVE",
"462 213 CURVE SMOOTH",
"544 213 OFFCURVE",
"620 187 OFFCURVE",
"683 162 CURVE SMOOTH",
"692 158 OFFCURVE",
"693 152 OFFCURVE",
"687 145 CURVE SMOOTH",
"617 72 OFFCURVE",
"556 6 OFFCURVE",
"498 -75 CURVE SMOOTH",
"492 -83 OFFCURVE",
"497 -89 OFFCURVE",
"506 -85 CURVE SMOOTH",
"601 -40 LINE SMOOTH",
"608 -37 OFFCURVE",
"611 -34 OFFCURVE",
"615 -28 CURVE SMOOTH",
"657 30 OFFCURVE",
"692 75 OFFCURVE",
"737 127 CURVE SMOOTH",
"742 132 OFFCURVE",
"747 134 OFFCURVE",
"754 130 CURVE SMOOTH",
"853 81 OFFCURVE",
"940 10 OFFCURVE",
"1023 -58 CURVE SMOOTH",
"1028 -63 OFFCURVE",
"1034 -63 OFFCURVE",
"1040 -59 CURVE SMOOTH",
"1079 -31 OFFCURVE",
"1140 25 OFFCURVE",
"1181 55 CURVE SMOOTH",
"1188 60 OFFCURVE",
"1188 66 OFFCURVE",
"1181 72 CURVE SMOOTH",
"1150 98 OFFCURVE",
"1121 121 OFFCURVE",
"1088 143 CURVE SMOOTH",
"1082 148 OFFCURVE",
"1080 153 OFFCURVE",
"1085 160 CURVE SMOOTH",
"1135 230 OFFCURVE",
"1204 314 OFFCURVE",
"1270 350 CURVE SMOOTH",
"1285 358 OFFCURVE",
"1347 383 OFFCURVE",
"1404 383 CURVE SMOOTH",
"1516 383 OFFCURVE",
"1615 315 OFFCURVE",
"1615 201 CURVE SMOOTH",
"1615 165 OFFCURVE",
"1605 132 OFFCURVE",
"1590 102 CURVE SMOOTH",
"1533 -7 OFFCURVE",
"1417 -56 OFFCURVE",
"1354 -170 CURVE SMOOTH",
"1339 -198 OFFCURVE",
"1329 -225 OFFCURVE",
"1329 -255 CURVE SMOOTH",
"1329 -326 OFFCURVE",
"1386 -377 OFFCURVE",
"1458 -377 CURVE SMOOTH",
"1476 -377 OFFCURVE",
"1499 -373 OFFCURVE",
"1519 -368 CURVE SMOOTH",
"1671 -324 OFFCURVE",
"1876 -137 OFFCURVE",
"1961 5 CURVE SMOOTH",
"2008 84 OFFCURVE",
"2039 174 OFFCURVE",
"2065 269 CURVE SMOOTH",
"2068 278 OFFCURVE",
"2063 282 OFFCURVE",
"2055 277 CURVE SMOOTH",
"2017 256 OFFCURVE",
"1981 237 OFFCURVE",
"1944 215 CURVE SMOOTH",
"1938 211 OFFCURVE",
"1934 207 OFFCURVE",
"1932 200 CURVE SMOOTH",
"1906 107 OFFCURVE",
"1873 20 OFFCURVE",
"1829 -57 CURVE SMOOTH",
"1783 -133 OFFCURVE",
"1728 -196 OFFCURVE",
"1671 -246 CURVE SMOOTH",
"1625 -284 OFFCURVE",
"1609 -287 OFFCURVE",
"1577 -287 CURVE SMOOTH",
"1514 -287 OFFCURVE",
"1467 -241 OFFCURVE",
"1467 -178 CURVE SMOOTH",
"1467 -97 OFFCURVE",
"1519 -54 OFFCURVE",
"1595 15 CURVE SMOOTH",
"1677 91 OFFCURVE",
"1750 174 OFFCURVE",
"1750 279 CURVE SMOOTH",
"1750 401 OFFCURVE",
"1645 472 OFFCURVE",
"1526 472 CURVE SMOOTH",
"1315 472 OFFCURVE",
"1132 309 OFFCURVE",
"1033 195 CURVE SMOOTH",
"1028 190 OFFCURVE",
"1023 189 OFFCURVE",
"1017 193 CURVE SMOOTH",
"974 220 OFFCURVE",
"931 238 OFFCURVE",
"883 258 CURVE SMOOTH",
"875 262 OFFCURVE",
"873 268 OFFCURVE",
"880 275 CURVE SMOOTH",
"967 364 OFFCURVE",
"1048 450 OFFCURVE",
"1138 536 CURVE SMOOTH",
"1143 541 OFFCURVE",
"1148 543 OFFCURVE",
"1155 543 CURVE SMOOTH",
"1255 546 OFFCURVE",
"1357 551 OFFCURVE",
"1458 564 CURVE SMOOTH",
"1562 577 OFFCURVE",
"1668 589 OFFCURVE",
"1778 622 CURVE SMOOTH",
"1916 657 OFFCURVE",
"2061 761 OFFCURVE",
"2061 872 CURVE SMOOTH",
"2061 952 OFFCURVE",
"1984 996 OFFCURVE",
"1900 996 CURVE SMOOTH",
"1758 996 OFFCURVE",
"1584 927 OFFCURVE",
"1440 836 CURVE SMOOTH",
"1333 767 OFFCURVE",
"1264 706 OFFCURVE",
"1183 636 CURVE SMOOTH",
"1178 632 OFFCURVE",
"1173 630 OFFCURVE",
"1166 630 CURVE SMOOTH",
"857 625 OFFCURVE",
"560 601 OFFCURVE",
"276 567 CURVE SMOOTH",
"270 566 OFFCURVE",
"265 564 OFFCURVE",
"260 560 CURVE SMOOTH",
"230 538 OFFCURVE",
"200 517 OFFCURVE",
"171 494 CURVE SMOOTH",
"163 488 OFFCURVE",
"165 481 OFFCURVE",
"175 483 CURVE",
"475 515 OFFCURVE",
"716 535 OFFCURVE",
"1059 541 CURVE SMOOTH",
"1068 541 OFFCURVE",
"1070 535 OFFCURVE",
"1064 528 CURVE",
"977 447 OFFCURVE",
"906 378 OFFCURVE",
"822 294 CURVE SMOOTH",
"817 289 OFFCURVE",
"812 288 OFFCURVE",
"806 290 CURVE SMOOTH",
"743 306 OFFCURVE",
"656 310 OFFCURVE",
"584 310 CURVE SMOOTH",
"468 310 OFFCURVE",
"334 283 OFFCURVE",
"210 221 CURVE SMOOTH",
"48 140 OFFCURVE",
"-50 36 OFFCURVE",
"-127 -110 CURVE SMOOTH",
"-163 -179 OFFCURVE",
"-201 -252 OFFCURVE",
"-201 -343 CURVE SMOOTH",
"-201 -475 OFFCURVE",
"-102 -537 OFFCURVE",
"30 -537 CURVE SMOOTH"
);
},
{
closed = 1;
nodes = (
"1322 701 OFFCURVE",
"1411 773 OFFCURVE",
"1468 811 CURVE SMOOTH",
"1537 857 OFFCURVE",
"1663 907 OFFCURVE",
"1780 907 CURVE SMOOTH",
"1856 907 OFFCURVE",
"1924 865 OFFCURVE",
"1924 789 CURVE SMOOTH",
"1924 731 OFFCURVE",
"1891 710 OFFCURVE",
"1841 697 CURVE SMOOTH",
"1755 677 OFFCURVE",
"1660 664 OFFCURVE",
"1569 651 CURVE SMOOTH",
"1468 639 OFFCURVE",
"1365 635 OFFCURVE",
"1262 633 CURVE SMOOTH",
"1252 632 OFFCURVE",
"1250 639 OFFCURVE",
"1257 645 CURVE SMOOTH"
);
}
);
width = 2083;
}
);
note = H;
unicode = 0048;
},
{
glyphname = I;
lastChange = "2020-03-28 13:05:07 +0000";
layers = (
{
anchors = (
{
name = bottom;
position = "{408, 0}";
},
{
name = ogonek;
position = "{734, 10}";
},
{
name = top;
position = "{508, 984}";
},
{
name = topleft;
position = "{20, 984}";
}
);
layerId = "BA9C892D-7698-4063-AF69-14CFA3D9CF82";
paths = (
{
closed = 1;
nodes = (
"130 -395 OFFCURVE",
"291 -273 OFFCURVE",
"377 -140 CURVE SMOOTH",
"447 -29 OFFCURVE",
"475 94 OFFCURVE",
"508 231 CURVE SMOOTH",
"509 238 OFFCURVE",
"513 241 OFFCURVE",
"520 242 CURVE SMOOTH",
"552 245 OFFCURVE",
"583 245 OFFCURVE",
"616 247 CURVE SMOOTH",
"625 248 OFFCURVE",
"629 243 OFFCURVE",
"627 234 CURVE SMOOTH",
"595 91 OFFCURVE",
"561 -45 OFFCURVE",
"522 -183 CURVE SMOOTH",
"519 -193 OFFCURVE",
"525 -198 OFFCURVE",
"534 -193 CURVE SMOOTH",
"612 -155 LINE SMOOTH",
"618 -152 OFFCURVE",
"622 -147 OFFCURVE",
"624 -140 CURVE SMOOTH",
"663 -12 OFFCURVE",
"693 112 OFFCURVE",
"722 246 CURVE SMOOTH",
"723 250 OFFCURVE",
"728 255 OFFCURVE",
"734 259 CURVE SMOOTH",
"822 330 LINE SMOOTH",
"831 338 OFFCURVE",
"828 345 OFFCURVE",
"816 344 CURVE SMOOTH",
"796 342 OFFCURVE",
"777 340 OFFCURVE",
"756 339 CURVE SMOOTH",
"747 338 OFFCURVE",
"743 343 OFFCURVE",
"745 352 CURVE SMOOTH",
"784 546 OFFCURVE",
"815 742 OFFCURVE",
"849 939 CURVE SMOOTH",
"850 947 OFFCURVE",
"854 951 OFFCURVE",
"861 955 CURVE SMOOTH",
"917 982 LINE",
"924 984 OFFCURVE",
"928 987 OFFCURVE",
"932 992 CURVE SMOOTH",
"964 1030 LINE SMOOTH",
"972 1040 OFFCURVE",
"966 1047 OFFCURVE",
"955 1042 CURVE SMOOTH",
"866 1002 OFFCURVE",
"767 952 OFFCURVE",
"688 907 CURVE SMOOTH",
"650 887 OFFCURVE",
"630 874 OFFCURVE",
"579 874 CURVE SMOOTH",
"564 874 OFFCURVE",
"546 876 OFFCURVE",
"528 880 CURVE SMOOTH",
"409 910 OFFCURVE",
"337 1018 OFFCURVE",
"188 1018 CURVE SMOOTH",
"147 1018 OFFCURVE",
"104 1013 OFFCURVE",
"46 985 CURVE SMOOTH",
"26 975 OFFCURVE",
"-1 960 OFFCURVE",
"-28 945 CURVE",
"-86 907 OFFCURVE",
"-128 872 OFFCURVE",
"-155 842 CURVE SMOOTH",
"-183 809 OFFCURVE",
"-211 769 OFFCURVE",
"-211 716 CURVE SMOOTH",
"-211 677 OFFCURVE",
"-193 639 OFFCURVE",
"-164 618 CURVE SMOOTH",
"-159 614 OFFCURVE",
"-153 615 OFFCURVE",
"-148 619 CURVE SMOOTH",
"-39 693 LINE SMOOTH",
"-32 698 OFFCURVE",
"-32 704 OFFCURVE",
"-39 709 CURVE SMOOTH",
"-62 726 OFFCURVE",
"-79 754 OFFCURVE",
"-79 790 CURVE SMOOTH",
"-79 841 OFFCURVE",
"-41 892 OFFCURVE",
"-11 912 CURVE",
"-1 917 OFFCURVE",
"28 929 OFFCURVE",
"66 929 CURVE SMOOTH",
"230 929 OFFCURVE",
"292 785 OFFCURVE",
"457 785 CURVE SMOOTH",
"465 785 OFFCURVE",
"475 785 OFFCURVE",
"484 786 CURVE SMOOTH",
"493 786 OFFCURVE",
"497 782 OFFCURVE",
"494 773 CURVE SMOOTH",
"451 639 OFFCURVE",
"435 497 OFFCURVE",
"410 345 CURVE SMOOTH",
"409 337 OFFCURVE",
"404 334 OFFCURVE",
"396 335 CURVE SMOOTH",
"346 344 OFFCURVE",
"299 358 OFFCURVE",
"250 375 CURVE SMOOTH",
"244 377 OFFCURVE",
"239 377 OFFCURVE",
"233 373 CURVE SMOOTH",
"125 302 LINE SMOOTH",
"116 296 OFFCURVE",
"117 289 OFFCURVE",
"127 286 CURVE SMOOTH",
"203 257 OFFCURVE",
"282 236 OFFCURVE",
"378 234 CURVE SMOOTH",
"386 234 OFFCURVE",
"390 229 OFFCURVE",
"389 221 CURVE SMOOTH",
"376 154 OFFCURVE",
"357 88 OFFCURVE",
"339 23 CURVE SMOOTH",
"316 -57 OFFCURVE",
"288 -137 OFFCURVE",
"246 -202 CURVE SMOOTH",
"210 -258 OFFCURVE",
"168 -301 OFFCURVE",
"132 -331 CURVE SMOOTH",
"91 -363 OFFCURVE",
"60 -382 OFFCURVE",
"12 -401 CURVE SMOOTH",
"5 -403 OFFCURVE",
"1 -406 OFFCURVE",
"-3 -411 CURVE SMOOTH",
"-45 -455 LINE SMOOTH",
"-53 -464 OFFCURVE",
"-48 -472 OFFCURVE",
"-37 -467 CURVE SMOOTH"
);
},
{
closed = 1;
nodes = (
"564 503 OFFCURVE",
"576 674 OFFCURVE",
"622 824 CURVE SMOOTH",
"624 830 OFFCURVE",
"628 834 OFFCURVE",
"634 837 CURVE SMOOTH",
"668 854 OFFCURVE",
"701 876 OFFCURVE",
"734 894 CURVE SMOOTH",
"743 898 OFFCURVE",
"749 894 OFFCURVE",
"747 884 CURVE SMOOTH",
"716 703 OFFCURVE",
"686 521 OFFCURVE",
"650 343 CURVE SMOOTH",
"649 336 OFFCURVE",
"645 333 OFFCURVE",
"637 332 CURVE SMOOTH",
"544 326 LINE SMOOTH",
"535 325 OFFCURVE",
"531 330 OFFCURVE",
"533 339 CURVE SMOOTH"
);
}
);
width = 816;
}
);
note = I;
unicode = 0049;
},
{
glyphname = J;
lastChange = "2020-04-06 13:14:56 +0000";
layers = (
{
anchors = (
{
name = top;
position = "{578, 984}";
}
);
layerId = "BA9C892D-7698-4063-AF69-14CFA3D9CF82";
paths = (
{
closed = 1;
nodes = (
"-663 -735 OFFCURVE",
"-609 -704 OFFCURVE",
"-572 -678 CURVE SMOOTH",
"-555 -666 OFFCURVE",
"-546 -645 OFFCURVE",
"-568 -645 CURVE SMOOTH",
"-599 -645 LINE SMOOTH",
"-626 -645 OFFCURVE",
"-644 -619 OFFCURVE",
"-644 -589 CURVE SMOOTH",
"-644 -531 OFFCURVE",
"-594 -444 OFFCURVE",
"-528 -444 CURVE SMOOTH",
"-416 -444 OFFCURVE",
"-337 -496 OFFCURVE",
"-249 -530 CURVE SMOOTH",
"-201 -548 OFFCURVE",
"-154 -568 OFFCURVE",
"-91 -568 CURVE SMOOTH",
"-30 -568 OFFCURVE",
"15 -555 OFFCURVE",
"94 -507 CURVE SMOOTH",
"358 -352 OFFCURVE",
"424 -89 OFFCURVE",
"502 231 CURVE SMOOTH",
"504 238 OFFCURVE",
"508 241 OFFCURVE",
"515 242 CURVE SMOOTH",
"549 244 OFFCURVE",
"582 245 OFFCURVE",
"616 247 CURVE SMOOTH",
"625 248 OFFCURVE",
"629 243 OFFCURVE",
"627 234 CURVE SMOOTH",
"595 91 OFFCURVE",
"561 -45 OFFCURVE",
"522 -183 CURVE SMOOTH",
"519 -193 OFFCURVE",
"525 -198 OFFCURVE",
"534 -193 CURVE SMOOTH",
"612 -155 LINE SMOOTH",
"618 -152 OFFCURVE",
"622 -147 OFFCURVE",
"624 -140 CURVE SMOOTH",
"663 -12 OFFCURVE",
"693 112 OFFCURVE",
"722 246 CURVE SMOOTH",
"723 250 OFFCURVE",
"730 256 OFFCURVE",
"734 259 CURVE SMOOTH",
"822 330 LINE SMOOTH",
"831 338 OFFCURVE",
"828 345 OFFCURVE",
"816 344 CURVE SMOOTH",
"796 342 OFFCURVE",
"777 340 OFFCURVE",
"756 339 CURVE SMOOTH",
"747 338 OFFCURVE",
"743 343 OFFCURVE",
"745 352 CURVE SMOOTH",
"784 546 OFFCURVE",
"815 742 OFFCURVE",
"849 939 CURVE SMOOTH",
"850 947 OFFCURVE",
"854 951 OFFCURVE",
"861 955 CURVE SMOOTH",
"879 964 OFFCURVE",
"897 974 OFFCURVE",
"917 982 CURVE SMOOTH",
"924 984 OFFCURVE",
"928 987 OFFCURVE",
"932 992 CURVE SMOOTH",
"964 1030 LINE SMOOTH",
"972 1040 OFFCURVE",
"966 1047 OFFCURVE",
"955 1042 CURVE SMOOTH",
"866 1002 OFFCURVE",
"767 952 OFFCURVE",
"688 907 CURVE SMOOTH",
"650 887 OFFCURVE",
"630 874 OFFCURVE",
"579 874 CURVE SMOOTH",
"564 874 OFFCURVE",
"546 876 OFFCURVE",
"528 880 CURVE SMOOTH",
"409 910 OFFCURVE",
"337 1018 OFFCURVE",
"188 1018 CURVE SMOOTH",
"58 1018 OFFCURVE",
"-98 908 OFFCURVE",
"-155 842 CURVE SMOOTH",
"-183 809 OFFCURVE",
"-211 769 OFFCURVE",
"-211 716 CURVE SMOOTH",
"-211 677 OFFCURVE",
"-193 639 OFFCURVE",
"-164 618 CURVE SMOOTH",
"-159 614 OFFCURVE",
"-153 615 OFFCURVE",
"-148 619 CURVE SMOOTH",
"-39 693 LINE SMOOTH",
"-32 698 OFFCURVE",
"-32 704 OFFCURVE",
"-39 709 CURVE SMOOTH",
"-62 726 OFFCURVE",
"-79 754 OFFCURVE",
"-79 790 CURVE SMOOTH",
"-79 841 OFFCURVE",
"-41 892 OFFCURVE",
"-11 912 CURVE",
"-1 917 OFFCURVE",
"28 929 OFFCURVE",
"66 929 CURVE SMOOTH",
"230 929 OFFCURVE",
"292 785 OFFCURVE",
"457 785 CURVE SMOOTH",
"465 785 OFFCURVE",
"475 785 OFFCURVE",
"484 786 CURVE SMOOTH",
"493 786 OFFCURVE",
"497 782 OFFCURVE",
"494 773 CURVE SMOOTH",
"451 639 OFFCURVE",
"435 497 OFFCURVE",
"410 345 CURVE SMOOTH",
"409 337 OFFCURVE",
"404 334 OFFCURVE",
"396 335 CURVE SMOOTH",
"346 344 OFFCURVE",
"299 358 OFFCURVE",
"250 375 CURVE SMOOTH",
"244 377 OFFCURVE",
"239 377 OFFCURVE",
"233 373 CURVE SMOOTH",
"125 302 LINE SMOOTH",
"116 296 OFFCURVE",
"117 289 OFFCURVE",
"126 285 CURVE SMOOTH",
"199 257 OFFCURVE",
"278 236 OFFCURVE",
"372 234 CURVE SMOOTH",
"381 234 OFFCURVE",
"385 229 OFFCURVE",
"383 221 CURVE SMOOTH",
"361 123 OFFCURVE",
"336 29 OFFCURVE",
"309 -66 CURVE SMOOTH",
"279 -168 OFFCURVE",
"244 -269 OFFCURVE",
"188 -353 CURVE SMOOTH",
"137 -432 OFFCURVE",
"88 -480 OFFCURVE",
"30 -480 CURVE SMOOTH",
"-27 -480 OFFCURVE",
"-72 -460 OFFCURVE",
"-118 -442 CURVE SMOOTH",
"-181 -415 OFFCURVE",
"-249 -394 OFFCURVE",
"-315 -376 CURVE SMOOTH",
"-351 -366 OFFCURVE",
"-386 -354 OFFCURVE",
"-427 -354 CURVE SMOOTH",
"-503 -354 OFFCURVE",
"-541 -376 OFFCURVE",
"-598 -414 CURVE SMOOTH",
"-684 -467 OFFCURVE",
"-725 -529 OFFCURVE",
"-766 -615 CURVE SMOOTH",
"-774 -630 OFFCURVE",
"-781 -647 OFFCURVE",
"-781 -665 CURVE SMOOTH",
"-781 -707 OFFCURVE",
"-754 -735 OFFCURVE",
"-711 -735 CURVE SMOOTH"
);
},
{
closed = 1;
nodes = (
"564 503 OFFCURVE",
"576 674 OFFCURVE",
"622 824 CURVE SMOOTH",
"624 830 OFFCURVE",
"628 834 OFFCURVE",
"634 837 CURVE SMOOTH",
"668 854 OFFCURVE",
"701 876 OFFCURVE",
"734 893 CURVE SMOOTH",
"743 898 OFFCURVE",
"749 894 OFFCURVE",
"747 884 CURVE SMOOTH",
"716 703 OFFCURVE",
"686 521 OFFCURVE",
"650 343 CURVE SMOOTH",
"649 336 OFFCURVE",
"645 333 OFFCURVE",
"637 332 CURVE SMOOTH",
"544 326 LINE SMOOTH",
"535 325 OFFCURVE",
"531 330 OFFCURVE",
"533 339 CURVE SMOOTH"
);
}
);
width = 816;
}
);
note = J;
unicode = 004A;
},
{
glyphname = K;
lastChange = "2020-04-06 13:15:06 +0000";
layers = (
{
anchors = (
{
name = top;
position = "{798, 1140}";
}
);
layerId = "BA9C892D-7698-4063-AF69-14CFA3D9CF82";
paths = (
{
closed = 1;
nodes = (
"190 -189 OFFCURVE",
"331 -171 OFFCURVE",
"464 -144 CURVE",
"470 -142 OFFCURVE",
"474 -141 OFFCURVE",
"479 -136 CURVE SMOOTH",
"555 -72 LINE SMOOTH",
"563 -65 OFFCURVE",
"560 -58 OFFCURVE",
"549 -60 CURVE SMOOTH",
"464 -76 OFFCURVE",
"380 -88 OFFCURVE",
"288 -97 CURVE",
"280 -97 OFFCURVE",
"275 -93 OFFCURVE",
"277 -84 CURVE SMOOTH",
"290 -26 OFFCURVE",
"300 34 OFFCURVE",
"308 94 CURVE",
"308 102 OFFCURVE",
"314 106 OFFCURVE",
"322 103 CURVE SMOOTH",
"370 90 OFFCURVE",
"427 79 OFFCURVE",
"485 79 CURVE SMOOTH",
"520 79 OFFCURVE",
"555 84 OFFCURVE",
"590 89 CURVE SMOOTH",
"596 90 OFFCURVE",
"601 92 OFFCURVE",
"606 96 CURVE SMOOTH",
"633 119 OFFCURVE",
"661 140 OFFCURVE",
"689 162 CURVE SMOOTH",
"698 169 OFFCURVE",
"695 176 OFFCURVE",
"684 175 CURVE SMOOTH",
"658 172 OFFCURVE",
"633 171 OFFCURVE",
"606 171 CURVE SMOOTH",
"563 171 OFFCURVE",
"515 176 OFFCURVE",
"476 184 CURVE SMOOTH",
"465 186 OFFCURVE",
"464 195 OFFCURVE",
"473 200 CURVE SMOOTH",
"532 236 OFFCURVE",
"589 265 OFFCURVE",
"663 330 CURVE SMOOTH",
"691 357 OFFCURVE",
"742 409 OFFCURVE",
"742 460 CURVE SMOOTH",
"742 471 OFFCURVE",
"739 484 OFFCURVE",
"733 495 CURVE SMOOTH",
"729 503 OFFCURVE",
"730 508 OFFCURVE",
"737 512 CURVE SMOOTH",
"828 559 OFFCURVE",
"913 603 OFFCURVE",
"998 681 CURVE SMOOTH",
"1061 739 OFFCURVE",
"1104 802 OFFCURVE",
"1138 863 CURVE SMOOTH",
"1157 899 OFFCURVE",
"1177 941 OFFCURVE",
"1177 992 CURVE SMOOTH",
"1177 1026 OFFCURVE",
"1168 1050 OFFCURVE",
"1153 1077 CURVE SMOOTH",
"1115 1140 OFFCURVE",
"1036 1190 OFFCURVE",
"945 1190 CURVE SMOOTH",
"907 1190 OFFCURVE",
"869 1181 OFFCURVE",
"827 1168 CURVE SMOOTH",
"756 1145 OFFCURVE",
"670 1100 OFFCURVE",
"594 1047 CURVE SMOOTH",
"491 975 OFFCURVE",
"433 903 OFFCURVE",
"383 832 CURVE SMOOTH",
"282 686 OFFCURVE",
"227 533 OFFCURVE",
"203 327 CURVE SMOOTH",
"202 319 OFFCURVE",
"199 315 OFFCURVE",
"192 311 CURVE SMOOTH",
"165 299 OFFCURVE",
"136 283 OFFCURVE",
"104 270 CURVE SMOOTH",
"-48 205 OFFCURVE",
"-200 127 OFFCURVE",
"-348 59 CURVE SMOOTH",
"-367 50 OFFCURVE",
"-417 -16 OFFCURVE",
"-380 0 CURVE SMOOTH",
"-290 42 OFFCURVE",
"-200 83 OFFCURVE",
"-114 125 CURVE SMOOTH",
"-10 174 OFFCURVE",
"79 209 OFFCURVE",
"182 262 CURVE SMOOTH",
"191 267 OFFCURVE",
"197 262 OFFCURVE",
"196 253 CURVE SMOOTH",
"194 231 OFFCURVE",
"191 210 OFFCURVE",
"189 188 CURVE SMOOTH",
"188 176 OFFCURVE",
"179 171 OFFCURVE",
"178 166 CURVE SMOOTH",
"177 161 OFFCURVE",
"188 157 OFFCURVE",
"187 147 CURVE SMOOTH",
"179 64 OFFCURVE",
"167 -17 OFFCURVE",
"154 -98 CURVE SMOOTH",
"152 -110 OFFCURVE",
"134 -110 OFFCURVE",
"126 -116 CURVE SMOOTH",
"95 -138 OFFCURVE",
"68 -159 OFFCURVE",
"38 -182 CURVE SMOOTH",
"29 -188 OFFCURVE",
"32 -196 OFFCURVE",
"42 -195 CURVE SMOOTH"
);
},
{
closed = 1;
nodes = (
"377 216 OFFCURVE",
"357 226 OFFCURVE",
"336 237 CURVE",
"328 240 OFFCURVE",
"325 246 OFFCURVE",
"326 254 CURVE SMOOTH",
"329 282 OFFCURVE",
"329 310 OFFCURVE",
"332 338 CURVE SMOOTH",
"333 346 OFFCURVE",
"336 351 OFFCURVE",
"342 355 CURVE SMOOTH",
"387 382 OFFCURVE",
"419 403 OFFCURVE",
"450 417 CURVE SMOOTH",
"486 435 OFFCURVE",
"497 448 OFFCURVE",
"538 448 CURVE SMOOTH",
"580 448 OFFCURVE",
"599 415 OFFCURVE",
"599 379 CURVE SMOOTH",
"599 361 OFFCURVE",
"594 341 OFFCURVE",
"584 326 CURVE SMOOTH",
"557 286 OFFCURVE",
"475 246 OFFCURVE",
"418 210 CURVE SMOOTH",
"412 206 OFFCURVE",
"406 205 OFFCURVE",
"399 207 CURVE SMOOTH"
);
},
{
closed = 1;
nodes = (
"349 479 OFFCURVE",
"360 546 OFFCURVE",
"377 611 CURVE SMOOTH",
"423 768 OFFCURVE",
"536 961 OFFCURVE",
"648 1042 CURVE SMOOTH",
"684 1069 OFFCURVE",
"754 1100 OFFCURVE",
"825 1100 CURVE SMOOTH",
"932 1100 OFFCURVE",
"1041 1024 OFFCURVE",
"1041 912 CURVE SMOOTH",
"1041 894 OFFCURVE",
"1039 877 OFFCURVE",
"1034 859 CURVE SMOOTH",
"1011 779 OFFCURVE",
"942 694 OFFCURVE",
"896 651 CURVE SMOOTH",
"848 607 OFFCURVE",
"767 568 OFFCURVE",
"700 534 CURVE",
"694 530 OFFCURVE",
"688 530 OFFCURVE",
"681 532 CURVE SMOOTH",
"672 534 OFFCURVE",
"662 535 OFFCURVE",
"653 535 CURVE SMOOTH",
"635 535 OFFCURVE",
"617 532 OFFCURVE",
"602 528 CURVE SMOOTH",
"559 517 OFFCURVE",
"514 491 OFFCURVE",
"484 476 CURVE SMOOTH",
"435 451 OFFCURVE",
"393 428 OFFCURVE",
"355 404 CURVE SMOOTH",
"346 399 OFFCURVE",
"340 403 OFFCURVE",
"341 413 CURVE SMOOTH"
);
}
);
width = 811;
}
);
note = K;
unicode = 004B;
},
{
glyphname = L;
lastChange = "2020-04-06 13:15:10 +0000";
layers = (
{
anchors = (
{
name = top;
position = "{1178, 984}";
}
);
layerId = "BA9C892D-7698-4063-AF69-14CFA3D9CF82";
paths = (
{
closed = 1;
nodes = (
"186 -231 OFFCURVE",
"288 -186 OFFCURVE",
"392 -130 CURVE SMOOTH",
"500 -74 OFFCURVE",
"602 1 OFFCURVE",
"673 69 CURVE SMOOTH",
"679 74 OFFCURVE",
"684 75 OFFCURVE",
"692 73 CURVE SMOOTH",
"783 51 OFFCURVE",
"871 13 OFFCURVE",
"953 -25 CURVE SMOOTH",
"960 -29 OFFCURVE",
"966 -28 OFFCURVE",
"972 -24 CURVE SMOOTH",
"1007 1 OFFCURVE",
"1044 23 OFFCURVE",
"1079 47 CURVE SMOOTH",
"1087 53 OFFCURVE",
"1086 60 OFFCURVE",
"1078 64 CURVE SMOOTH",
"985 105 OFFCURVE",
"890 145 OFFCURVE",
"785 168 CURVE SMOOTH",
"776 170 OFFCURVE",
"773 176 OFFCURVE",
"779 183 CURVE SMOOTH",
"839 256 OFFCURVE",
"895 334 OFFCURVE",
"950 399 CURVE SMOOTH",
"976 431 OFFCURVE",
"1006 460 OFFCURVE",
"1034 491 CURVE SMOOTH",
"1038 496 OFFCURVE",
"1043 499 OFFCURVE",
"1049 501 CURVE SMOOTH",
"1109 518 OFFCURVE",
"1168 534 OFFCURVE",
"1234 561 CURVE SMOOTH",
"1314 594 OFFCURVE",
"1391 628 OFFCURVE",
"1463 658 CURVE SMOOTH",
"1493 669 OFFCURVE",
"1556 694 OFFCURVE",
"1627 747 CURVE SMOOTH",
"1678 788 OFFCURVE",
"1724 822 OFFCURVE",
"1724 891 CURVE SMOOTH",
"1724 962 OFFCURVE",
"1666 1001 OFFCURVE",
"1597 1001 CURVE SMOOTH",
"1487 1001 OFFCURVE",
"1367 942 OFFCURVE",
"1265 853 CURVE SMOOTH",
"1168 767 OFFCURVE",
"1091 654 OFFCURVE",
"1012 556 CURVE SMOOTH",
"1008 551 OFFCURVE",
"1003 548 OFFCURVE",
"997 546 CURVE SMOOTH",
"870 511 OFFCURVE",
"747 462 OFFCURVE",
"636 429 CURVE SMOOTH",
"557 406 OFFCURVE",
"476 387 OFFCURVE",
"385 353 CURVE SMOOTH",
"244 300 OFFCURVE",
"102 215 OFFCURVE",
"-13 132 CURVE SMOOTH",
"-22 125 OFFCURVE",
"-19 117 OFFCURVE",
"-8 117 CURVE SMOOTH",
"23 117 LINE SMOOTH",
"30 117 OFFCURVE",
"35 119 OFFCURVE",
"41 123 CURVE SMOOTH",
"127 185 OFFCURVE",
"203 233 OFFCURVE",
"309 274 CURVE SMOOTH",
"378 301 OFFCURVE",
"459 318 OFFCURVE",
"545 345 CURVE SMOOTH",
"681 385 OFFCURVE",
"787 428 OFFCURVE",
"915 465 CURVE SMOOTH",
"927 468 OFFCURVE",
"931 461 OFFCURVE",
"924 452 CURVE SMOOTH",
"833 347 LINE SMOOTH",
"788 294 OFFCURVE",
"746 242 OFFCURVE",
"705 191 CURVE SMOOTH",
"700 185 OFFCURVE",
"695 183 OFFCURVE",
"687 184 CURVE SMOOTH",
"663 186 OFFCURVE",
"639 187 OFFCURVE",
"615 187 CURVE SMOOTH",
"506 187 OFFCURVE",
"414 172 OFFCURVE",
"315 145 CURVE SMOOTH",
"267 134 OFFCURVE",
"196 113 OFFCURVE",
"102 48 CURVE SMOOTH",
"31 -2 OFFCURVE",
"-58 -61 OFFCURVE",
"-58 -150 CURVE SMOOTH",
"-58 -206 OFFCURVE",
"-5 -231 OFFCURVE",
"51 -231 CURVE SMOOTH"
);
},
{
closed = 1;
nodes = (
"123 -141 OFFCURVE",
"79 -119 OFFCURVE",
"79 -71 CURVE SMOOTH",
"79 -8 OFFCURVE",
"151 42 OFFCURVE",
"216 57 CURVE SMOOTH",
"307 77 OFFCURVE",
"392 97 OFFCURVE",
"495 97 CURVE SMOOTH",
"531 97 OFFCURVE",
"567 94 OFFCURVE",
"603 90 CURVE SMOOTH",
"613 89 OFFCURVE",
"615 82 OFFCURVE",
"608 75 CURVE SMOOTH",
"554 18 OFFCURVE",
"484 -36 OFFCURVE",
"424 -69 CURVE SMOOTH",
"367 -102 OFFCURVE",
"270 -141 OFFCURVE",
"171 -141 CURVE SMOOTH"
);
},
{
closed = 1;
nodes = (
"1153 631 OFFCURVE",
"1180 666 OFFCURVE",
"1208 705 CURVE SMOOTH",
"1256 771 OFFCURVE",
"1308 838 OFFCURVE",
"1338 861 CURVE SMOOTH",
"1356 874 OFFCURVE",
"1412 910 OFFCURVE",
"1478 910 CURVE SMOOTH",
"1539 910 OFFCURVE",
"1589 872 OFFCURVE",
"1589 815 CURVE SMOOTH",
"1589 750 OFFCURVE",
"1481 715 OFFCURVE",
"1420 688 CURVE SMOOTH",
"1324 648 OFFCURVE",
"1239 615 OFFCURVE",
"1132 583 CURVE SMOOTH",
"1120 580 OFFCURVE",
"1116 587 OFFCURVE",
"1123 595 CURVE SMOOTH"
);
}
);
width = 1131;
}
);
note = L;
unicode = 004C;
},
{
glyphname = Lslash;
lastChange = "2020-04-06 13:15:15 +0000";
layers = (
{
anchors = (
{
name = top;
position = "{1278, 984}";
}
);
layerId = "BA9C892D-7698-4063-AF69-14CFA3D9CF82";
paths = (
{
closed = 1;
nodes = (
"186 -231 OFFCURVE",
"288 -186 OFFCURVE",
"392 -130 CURVE SMOOTH",
"500 -74 OFFCURVE",
"602 1 OFFCURVE",
"673 69 CURVE SMOOTH",
"679 74 OFFCURVE",
"684 75 OFFCURVE",
"692 73 CURVE SMOOTH",
"783 51 OFFCURVE",
"871 13 OFFCURVE",
"953 -25 CURVE SMOOTH",
"960 -29 OFFCURVE",
"966 -28 OFFCURVE",
"972 -24 CURVE SMOOTH",
"1007 1 OFFCURVE",
"1044 23 OFFCURVE",
"1079 47 CURVE SMOOTH",
"1087 53 OFFCURVE",
"1086 60 OFFCURVE",
"1078 64 CURVE SMOOTH",
"985 105 OFFCURVE",
"890 145 OFFCURVE",
"785 168 CURVE SMOOTH",
"776 170 OFFCURVE",
"773 176 OFFCURVE",
"779 183 CURVE SMOOTH",
"806 216 OFFCURVE",
"832 249 OFFCURVE",
"857 282 CURVE SMOOTH",
"862 288 OFFCURVE",
"867 290 OFFCURVE",
"875 289 CURVE SMOOTH",
"922 281 OFFCURVE",
"969 271 OFFCURVE",
"1014 257 CURVE SMOOTH",
"1054 245 OFFCURVE",
"1094 229 OFFCURVE",
"1132 211 CURVE SMOOTH",
"1139 207 OFFCURVE",
"1145 208 OFFCURVE",
"1151 213 CURVE SMOOTH",
"1177 231 LINE SMOOTH",
"1185 237 OFFCURVE",
"1184 243 OFFCURVE",
"1175 247 CURVE SMOOTH",
"1138 265 OFFCURVE",
"1100 279 OFFCURVE",
"1060 291 CURVE SMOOTH",
"1010 306 OFFCURVE",
"960 317 OFFCURVE",
"909 325 CURVE SMOOTH",
"900 327 OFFCURVE",
"897 333 OFFCURVE",
"903 341 CURVE SMOOTH",
"919 361 OFFCURVE",
"934 381 OFFCURVE",
"950 399 CURVE SMOOTH",
"976 431 OFFCURVE",
"1006 460 OFFCURVE",
"1034 491 CURVE SMOOTH",
"1038 496 OFFCURVE",
"1043 499 OFFCURVE",
"1049 501 CURVE SMOOTH",
"1109 518 OFFCURVE",
"1168 534 OFFCURVE",
"1234 561 CURVE SMOOTH",
"1314 594 OFFCURVE",
"1391 628 OFFCURVE",
"1463 658 CURVE SMOOTH",
"1493 669 OFFCURVE",
"1556 694 OFFCURVE",
"1627 747 CURVE SMOOTH",
"1678 788 OFFCURVE",
"1724 822 OFFCURVE",
"1724 891 CURVE SMOOTH",
"1724 962 OFFCURVE",
"1666 1001 OFFCURVE",
"1597 1001 CURVE SMOOTH",
"1487 1001 OFFCURVE",
"1367 942 OFFCURVE",
"1265 853 CURVE SMOOTH",
"1168 767 OFFCURVE",
"1091 654 OFFCURVE",
"1012 556 CURVE SMOOTH",
"1008 551 OFFCURVE",
"1003 548 OFFCURVE",
"997 546 CURVE SMOOTH",
"877 513 OFFCURVE",
"766 468 OFFCURVE",
"659 428 CURVE SMOOTH",
"629 417 OFFCURVE",
"636 389 OFFCURVE",
"666 397 CURVE SMOOTH",
"758 420 OFFCURVE",
"827 440 OFFCURVE",
"915 465 CURVE SMOOTH",
"927 468 OFFCURVE",
"931 461 OFFCURVE",
"924 452 CURVE SMOOTH",
"833 347 LINE SMOOTH",
"826 339 OFFCURVE",
"823 337 OFFCURVE",
"814 338 CURVE SMOOTH",
"739 346 OFFCURVE",
"663 351 OFFCURVE",
"586 351 CURVE SMOOTH",
"510 351 OFFCURVE",
"435 345 OFFCURVE",
"359 334 CURVE SMOOTH",
"341 331 OFFCURVE",
"312 299 OFFCURVE",
"339 303 CURVE SMOOTH",
"407 312 OFFCURVE",
"476 316 OFFCURVE",
"545 316 CURVE SMOOTH",
"623 316 OFFCURVE",
"700 311 OFFCURVE",
"777 302 CURVE SMOOTH",
"787 301 OFFCURVE",
"789 294 OFFCURVE",
"783 287 CURVE SMOOTH",
"705 191 LINE SMOOTH",
"700 185 OFFCURVE",
"695 183 OFFCURVE",
"687 184 CURVE SMOOTH",
"663 186 OFFCURVE",
"639 187 OFFCURVE",
"615 187 CURVE SMOOTH",
"506 187 OFFCURVE",
"414 172 OFFCURVE",
"315 145 CURVE SMOOTH",
"267 134 OFFCURVE",
"196 113 OFFCURVE",
"102 48 CURVE SMOOTH",
"31 -2 OFFCURVE",
"-58 -61 OFFCURVE",
"-58 -150 CURVE SMOOTH",
"-58 -206 OFFCURVE",
"-5 -231 OFFCURVE",
"51 -231 CURVE SMOOTH"
);
},
{
closed = 1;
nodes = (
"123 -141 OFFCURVE",
"79 -119 OFFCURVE",
"79 -71 CURVE SMOOTH",
"79 -8 OFFCURVE",
"151 42 OFFCURVE",
"216 57 CURVE SMOOTH",
"307 77 OFFCURVE",
"392 97 OFFCURVE",
"495 97 CURVE SMOOTH",
"531 97 OFFCURVE",
"567 94 OFFCURVE",
"603 90 CURVE SMOOTH",
"613 89 OFFCURVE",
"615 82 OFFCURVE",
"608 75 CURVE SMOOTH",
"554 18 OFFCURVE",
"484 -36 OFFCURVE",
"424 -69 CURVE SMOOTH",
"367 -102 OFFCURVE",
"270 -141 OFFCURVE",
"171 -141 CURVE SMOOTH"
);
},
{
closed = 1;
nodes = (
"1120 580 OFFCURVE",
"1116 587 OFFCURVE",
"1123 595 CURVE SMOOTH",
"1153 631 OFFCURVE",
"1180 666 OFFCURVE",
"1208 705 CURVE SMOOTH",
"1256 771 OFFCURVE",
"1308 838 OFFCURVE",
"1338 861 CURVE SMOOTH",
"1356 874 OFFCURVE",
"1412 910 OFFCURVE",
"1478 910 CURVE SMOOTH",
"1539 910 OFFCURVE",
"1589 872 OFFCURVE",
"1589 815 CURVE SMOOTH",
"1589 750 OFFCURVE",
"1481 715 OFFCURVE",
"1420 688 CURVE SMOOTH",
"1324 648 OFFCURVE",
"1239 615 OFFCURVE",
"1132 583 CURVE SMOOTH"
);
}
);
width = 1131;
}
);
note = Lslash;
unicode = 0141;
},
{
glyphname = M;
lastChange = "2020-04-06 13:15:26 +0000";
layers = (
{
anchors = (
{
name = bottom;
position = "{1374, 0}";
},
{
name = top;
position = "{1674, 984}";
}
);
layerId = "BA9C892D-7698-4063-AF69-14CFA3D9CF82";
paths = (
{
closed = 1;
nodes = (
"152 -172 OFFCURVE",
"192 -150 OFFCURVE",
"228 -125 CURVE SMOOTH",
"236 -120 OFFCURVE",
"236 -114 OFFCURVE",
"229 -108 CURVE SMOOTH",
"178 -65 OFFCURVE",
"147 -2 OFFCURVE",
"147 80 CURVE SMOOTH",
"147 174 OFFCURVE",
"182 244 OFFCURVE",
"218 309 CURVE SMOOTH",
"269 406 OFFCURVE",
"329 498 OFFCURVE",
"392 587 CURVE SMOOTH",
"478 706 OFFCURVE",
"602 821 OFFCURVE",
"714 884 CURVE SMOOTH",
"722 888 OFFCURVE",
"750 896 OFFCURVE",
"769 896 CURVE SMOOTH",
"782 896 OFFCURVE",
"797 893 OFFCURVE",
"810 889 CURVE SMOOTH",
"891 861 OFFCURVE",
"912 770 OFFCURVE",
"912 663 CURVE SMOOTH",
"912 598 OFFCURVE",
"904 532 OFFCURVE",
"896 467 CURVE SMOOTH",
"877 294 OFFCURVE",
"826 139 OFFCURVE",
"752 11 CURVE SMOOTH",
"746 1 OFFCURVE",
"752 -5 OFFCURVE",
"762 0 CURVE SMOOTH",
"862 47 LINE SMOOTH",
"868 50 OFFCURVE",
"872 53 OFFCURVE",
"876 59 CURVE SMOOTH",
"927 142 OFFCURVE",
"962 225 OFFCURVE",
"991 324 CURVE SMOOTH",
"993 332 OFFCURVE",
"996 337 OFFCURVE",
"1001 344 CURVE SMOOTH",
"1062 423 OFFCURVE",
"1128 495 OFFCURVE",
"1194 571 CURVE SMOOTH",
"1244 625 OFFCURVE",
"1289 684 OFFCURVE",
"1336 733 CURVE SMOOTH",
"1343 740 OFFCURVE",
"1350 743 OFFCURVE",
"1360 742 CURVE SMOOTH",
"1427 735 OFFCURVE",
"1444 678 OFFCURVE",
"1444 621 CURVE SMOOTH",
"1444 579 OFFCURVE",
"1439 534 OFFCURVE",
"1436 493 CURVE SMOOTH",
"1433 451 OFFCURVE",
"1435 414 OFFCURVE",
"1432 373 CURVE SMOOTH",
"1422 225 OFFCURVE",
"1375 83 OFFCURVE",
"1341 -45 CURVE SMOOTH",
"1338 -56 OFFCURVE",
"1345 -60 OFFCURVE",
"1354 -55 CURVE SMOOTH",
"1390 -34 OFFCURVE",
"1424 -16 OFFCURVE",
"1461 5 CURVE SMOOTH",
"1467 9 OFFCURVE",
"1471 13 OFFCURVE",
"1472 20 CURVE",
"1505 150 OFFCURVE",
"1554 284 OFFCURVE",
"1566 430 CURVE SMOOTH",
"1567 439 OFFCURVE",
"1569 445 OFFCURVE",
"1574 452 CURVE SMOOTH",
"1648 551 OFFCURVE",
"1807 741 OFFCURVE",
"1877 780 CURVE SMOOTH",
"1896 791 OFFCURVE",
"1947 813 OFFCURVE",
"2023 813 CURVE SMOOTH",
"2102 813 OFFCURVE",
"2175 788 OFFCURVE",
"2251 763 CURVE SMOOTH",
"2259 760 OFFCURVE",
"2261 753 OFFCURVE",
"2255 747 CURVE SMOOTH",
"2225 713 OFFCURVE",
"2196 681 OFFCURVE",
"2171 643 CURVE SMOOTH",
"2115 559 OFFCURVE",
"2062 460 OFFCURVE",
"2062 328 CURVE SMOOTH",
"2062 122 OFFCURVE",
"2204 -18 OFFCURVE",
"2392 -18 CURVE SMOOTH",
"2497 -18 OFFCURVE",
"2617 31 OFFCURVE",
"2730 119 CURVE SMOOTH",
"2757 140 OFFCURVE",
"2691 139 OFFCURVE",
"2667 121 CURVE SMOOTH",
"2630 93 OFFCURVE",
"2582 78 OFFCURVE",
"2532 78 CURVE SMOOTH",
"2451 78 OFFCURVE",
"2388 94 OFFCURVE",
"2331 134 CURVE SMOOTH",
"2249 191 OFFCURVE",
"2197 289 OFFCURVE",
"2197 411 CURVE SMOOTH",
"2197 548 OFFCURVE",
"2258 654 OFFCURVE",
"2319 733 CURVE SMOOTH",
"2324 739 OFFCURVE",
"2330 741 OFFCURVE",
"2337 739 CURVE SMOOTH",
"2424 713 OFFCURVE",
"2504 693 OFFCURVE",
"2603 693 CURVE SMOOTH",
"2656 693 OFFCURVE",
"2718 697 OFFCURVE",
"2814 758 CURVE SMOOTH",
"2886 806 OFFCURVE",
"2928 855 OFFCURVE",
"2928 910 CURVE SMOOTH",
"2928 1001 OFFCURVE",
"2834 1046 OFFCURVE",
"2743 1046 CURVE SMOOTH",
"2725 1046 OFFCURVE",
"2706 1045 OFFCURVE",
"2687 1041 CURVE SMOOTH",
"2586 1023 OFFCURVE",
"2459 934 OFFCURVE",
"2374 863 CURVE SMOOTH",
"2369 858 OFFCURVE",
"2363 857 OFFCURVE",
"2356 859 CURVE SMOOTH",
"2288 881 OFFCURVE",
"2220 903 OFFCURVE",
"2143 903 CURVE SMOOTH",
"2067 903 OFFCURVE",
"1977 882 OFFCURVE",
"1863 811 CURVE SMOOTH",
"1754 745 OFFCURVE",
"1686 674 OFFCURVE",
"1633 617 CURVE SMOOTH",
"1588 565 LINE SMOOTH",
"1580 556 OFFCURVE",
"1573 559 OFFCURVE",
"1574 571 CURVE SMOOTH",
"1577 616 OFFCURVE",
"1581 660 OFFCURVE",
"1581 705 CURVE SMOOTH",
"1581 777 OFFCURVE",
"1547 833 OFFCURVE",
"1478 833 CURVE SMOOTH",
"1387 833 OFFCURVE",
"1271 740 OFFCURVE",
"1216 682 CURVE SMOOTH",
"1151 610 OFFCURVE",
"1098 548 OFFCURVE",
"1040 480 CURVE SMOOTH",
"1033 471 OFFCURVE",
"1025 475 OFFCURVE",
"1027 486 CURVE SMOOTH",
"1040 567 OFFCURVE",
"1049 656 OFFCURVE",
"1049 742 CURVE SMOOTH",
"1049 872 OFFCURVE",
"1019 987 OFFCURVE",
"889 987 CURVE SMOOTH",
"776 987 OFFCURVE",
"563 835 OFFCURVE",
"447 734 CURVE SMOOTH",
"308 618 OFFCURVE",
"181 415 OFFCURVE",
"88 244 CURVE SMOOTH",
"50 178 OFFCURVE",
"11 97 OFFCURVE",
"11 0 CURVE SMOOTH",
"11 -87 OFFCURVE",
"45 -150 OFFCURVE",
"99 -195 CURVE SMOOTH",
"104 -200 OFFCURVE",
"110 -200 OFFCURVE",
"116 -196 CURVE SMOOTH"
);
},
{
closed = 1;
nodes = (
"2619 782 OFFCURVE",
"2524 808 OFFCURVE",
"2430 837 CURVE SMOOTH",
"2421 839 OFFCURVE",
"2420 846 OFFCURVE",
"2427 853 CURVE SMOOTH",
"2488 914 OFFCURVE",
"2534 956 OFFCURVE",
"2625 956 CURVE SMOOTH",
"2709 956 OFFCURVE",
"2791 914 OFFCURVE",
"2791 833 CURVE SMOOTH",
"2791 790 OFFCURVE",
"2779 782 OFFCURVE",
"2724 782 CURVE SMOOTH"
);
}
);
width = 2747;
}
);
note = M;
unicode = 004D;
},
{
glyphname = N;
lastChange = "2020-03-28 19:27:24 +0000";
layers = (
{
anchors = (
{
name = bottom;
position = "{985, 0}";
},
{
name = top;
position = "{985, 984}";
}
);
layerId = "BA9C892D-7698-4063-AF69-14CFA3D9CF82";
paths = (
{
closed = 1;
nodes = (
"612 -10 LINE SMOOTH",
"618 -6 OFFCURVE",
"622 -3 OFFCURVE",
"625 4 CURVE SMOOTH",
"673 121 OFFCURVE",
"697 269 OFFCURVE",
"697 429 CURVE SMOOTH",
"697 450 LINE SMOOTH",
"697 488 OFFCURVE",
"698 510 OFFCURVE",
"716 546 CURVE SMOOTH",
"746 609 OFFCURVE",
"797 670 OFFCURVE",
"825 690 CURVE",
"836 700 OFFCURVE",
"868 721 OFFCURVE",
"937 734 CURVE SMOOTH",
"971 739 OFFCURVE",
"1003 743 OFFCURVE",
"1041 743 CURVE SMOOTH",
"1146 743 OFFCURVE",
"1237 718 OFFCURVE",
"1320 686 CURVE SMOOTH",
"1328 683 OFFCURVE",
"1329 677 OFFCURVE",
"1323 671 CURVE SMOOTH",
"1228 573 OFFCURVE",
"1145 446 OFFCURVE",
"1145 274 CURVE SMOOTH",
"1145 43 OFFCURVE",
"1310 -58 OFFCURVE",
"1536 -58 CURVE SMOOTH",
"1630 -58 OFFCURVE",
"1699 -48 OFFCURVE",
"1790 -15 CURVE SMOOTH",
"1871 15 OFFCURVE",
"1969 68 OFFCURVE",
"2047 131 CURVE SMOOTH",
"2055 137 OFFCURVE",
"2050 144 OFFCURVE",
"2041 141 CURVE SMOOTH",
"1985 125 LINE SMOOTH",
"1979 123 OFFCURVE",
"1974 120 OFFCURVE",
"1969 116 CURVE SMOOTH",
"1902 62 OFFCURVE",
"1784 30 OFFCURVE",
"1656 30 CURVE SMOOTH",
"1440 30 OFFCURVE",
"1282 132 OFFCURVE",
"1282 353 CURVE SMOOTH",
"1282 475 OFFCURVE",
"1322 571 OFFCURVE",
"1380 648 CURVE SMOOTH",
"1385 654 OFFCURVE",
"1391 656 OFFCURVE",
"1398 653 CURVE SMOOTH",
"1459 627 OFFCURVE",
"1528 598 OFFCURVE",
"1604 598 CURVE SMOOTH",
"1645 598 OFFCURVE",
"1684 600 OFFCURVE",
"1749 630 CURVE SMOOTH",
"1797 650 OFFCURVE",
"1859 696 OFFCURVE",
"1882 726 CURVE SMOOTH",
"1900 746 OFFCURVE",
"1905 764 OFFCURVE",
"1905 782 CURVE SMOOTH",
"1905 863 OFFCURVE",
"1803 881 OFFCURVE",
"1727 881 CURVE SMOOTH",
"1684 881 OFFCURVE",
"1646 876 OFFCURVE",
"1590 857 CURVE SMOOTH",
"1546 840 OFFCURVE",
"1489 808 OFFCURVE",
"1451 781 CURVE SMOOTH",
"1445 777 OFFCURVE",
"1439 776 OFFCURVE",
"1432 779 CURVE SMOOTH",
"1353 810 OFFCURVE",
"1265 833 OFFCURVE",
"1162 833 CURVE SMOOTH",
"1121 833 OFFCURVE",
"1082 828 OFFCURVE",
"1040 820 CURVE SMOOTH",
"964 805 OFFCURVE",
"856 763 OFFCURVE",
"752 682 CURVE SMOOTH",
"729 666 OFFCURVE",
"710 647 OFFCURVE",
"693 629 CURVE SMOOTH",
"686 622 OFFCURVE",
"679 624 OFFCURVE",
"677 634 CURVE SMOOTH",
"639 794 OFFCURVE",
"547 918 OFFCURVE",
"429 1003 CURVE SMOOTH",
"378 1039 OFFCURVE",
"313 1074 OFFCURVE",
"232 1074 CURVE SMOOTH",
"189 1074 OFFCURVE",
"145 1060 OFFCURVE",
"102 1049 CURVE SMOOTH",
"33 1030 OFFCURVE",
"-46 1003 OFFCURVE",
"-137 952 CURVE SMOOTH",
"-240 895 OFFCURVE",
"-305 831 OFFCURVE",
"-353 780 CURVE SMOOTH",
"-404 725 OFFCURVE",
"-445 667 OFFCURVE",
"-487 610 CURVE SMOOTH",
"-492 603 OFFCURVE",
"-488 598 OFFCURVE",
"-479 601 CURVE",
"-448 617 OFFCURVE",
"-417 632 OFFCURVE",
"-385 647 CURVE SMOOTH",
"-378 650 OFFCURVE",
"-375 653 OFFCURVE",
"-371 659 CURVE SMOOTH",
"-313 743 OFFCURVE",
"-215 867 OFFCURVE",
"-141 909 CURVE SMOOTH",
"-98 932 OFFCURVE",
"24 983 OFFCURVE",
"112 983 CURVE SMOOTH",
"188 983 OFFCURVE",
"249 952 OFFCURVE",
"297 918 CURVE SMOOTH",
"362 872 OFFCURVE",
"418 813 OFFCURVE",
"461 747 CURVE SMOOTH",
"537 633 OFFCURVE",
"561 504 OFFCURVE",
"561 348 CURVE SMOOTH",
"561 196 OFFCURVE",
"538 53 OFFCURVE",
"492 -61 CURVE SMOOTH",
"489 -70 OFFCURVE",
"494 -74 OFFCURVE",
"502 -70 CURVE SMOOTH"
);
},
{
closed = 1;
nodes = (
"1644 690 OFFCURVE",
"1567 725 OFFCURVE",
"1501 752 CURVE SMOOTH",
"1493 755 OFFCURVE",
"1493 762 OFFCURVE",
"1501 767 CURVE SMOOTH",
"1529 781 OFFCURVE",
"1555 790 OFFCURVE",
"1608 790 CURVE SMOOTH",
"1649 790 OFFCURVE",
"1688 790 OFFCURVE",
"1724 772 CURVE SMOOTH",
"1743 762 OFFCURVE",
"1771 739 OFFCURVE",
"1771 709 CURVE SMOOTH",
"1771 694 OFFCURVE",
"1747 690 OFFCURVE",
"1724 690 CURVE SMOOTH"
);
}
);
width = 1970;
}
);
note = N;
unicode = 004E;
},
{
glyphname = O;
lastChange = "2020-03-28 19:28:51 +0000";
layers = (
{
anchors = (
{
name = bottom;
position = "{983, 0}";
},
{
name = center;
position = "{983, 492}";
},
{
name = ogonek;
position = "{1769, 10}";
},
{
name = top;
position = "{983, 984}";
},
{
name = topleft;
position = "{20, 984}";
},
{
name = topright;
position = "{1946, 984}";
}
);
layerId = "BA9C892D-7698-4063-AF69-14CFA3D9CF82";
paths = (
{
closed = 1;
nodes = (
"905 -5 OFFCURVE",
"1111 35 OFFCURVE",
"1307 114 CURVE SMOOTH",
"1312 116 OFFCURVE",
"1316 119 OFFCURVE",
"1320 124 CURVE SMOOTH",
"1365 174 LINE SMOOTH",
"1371 181 OFFCURVE",
"1367 187 OFFCURVE",
"1358 184 CURVE SMOOTH",
"1192 120 OFFCURVE",
"989 84 OFFCURVE",
"764 84 CURVE SMOOTH",
"693 84 OFFCURVE",
"620 85 OFFCURVE",
"549 95 CURVE SMOOTH",
"463 105 OFFCURVE",
"380 124 OFFCURVE",
"309 170 CURVE SMOOTH",
"258 204 OFFCURVE",
"208 258 OFFCURVE",
"208 339 CURVE SMOOTH",
"208 415 OFFCURVE",
"249 467 OFFCURVE",
"287 508 CURVE SMOOTH",
"337 561 OFFCURVE",
"389 603 OFFCURVE",
"446 644 CURVE SMOOTH",
"497 680 OFFCURVE",
"551 711 OFFCURVE",
"614 738 CURVE SMOOTH",
"620 741 OFFCURVE",
"624 744 OFFCURVE",
"628 749 CURVE SMOOTH",
"668 794 LINE SMOOTH",
"674 801 OFFCURVE",
"670 808 OFFCURVE",
"660 804 CURVE SMOOTH",
"481 723 OFFCURVE",
"298 600 OFFCURVE",
"171 465 CURVE SMOOTH",
"121 414 OFFCURVE",
"71 350 OFFCURVE",
"71 259 CURVE SMOOTH",
"71 248 OFFCURVE",
"73 237 OFFCURVE",
"76 226 CURVE",
"104 77 OFFCURVE",
"280 26 OFFCURVE",
"427 8 CURVE SMOOTH",
"499 -2 OFFCURVE",
"573 -5 OFFCURVE",
"645 -5 CURVE SMOOTH"
);
},
{
closed = 1;
nodes = (
"1546 225 OFFCURVE",
"1650 285 OFFCURVE",
"1735 358 CURVE SMOOTH",
"1793 411 OFFCURVE",
"1835 460 OFFCURVE",
"1863 516 CURVE SMOOTH",
"1891 569 OFFCURVE",
"1909 632 OFFCURVE",
"1909 690 CURVE SMOOTH",
"1909 908 OFFCURVE",
"1685 1008 OFFCURVE",
"1468 1008 CURVE SMOOTH",
"1377 1008 OFFCURVE",
"1282 988 OFFCURVE",
"1185 947 CURVE SMOOTH",
"1097 911 OFFCURVE",
"995 858 OFFCURVE",
"904 792 CURVE SMOOTH",
"816 727 OFFCURVE",
"754 663 OFFCURVE",
"706 594 CURVE SMOOTH",
"667 538 OFFCURVE",
"636 476 OFFCURVE",
"617 413 CURVE SMOOTH",
"614 404 OFFCURVE",
"619 400 OFFCURVE",
"627 405 CURVE SMOOTH",
"738 467 LINE SMOOTH",
"745 471 OFFCURVE",
"748 475 OFFCURVE",
"750 482 CURVE SMOOTH",
"769 544 OFFCURVE",
"798 603 OFFCURVE",
"834 653 CURVE SMOOTH",
"877 714 OFFCURVE",
"929 762 OFFCURVE",
"970 792 CURVE SMOOTH",
"1056 855 OFFCURVE",
"1194 919 OFFCURVE",
"1346 919 CURVE SMOOTH",
"1422 919 OFFCURVE",
"1497 907 OFFCURVE",
"1566 879 CURVE SMOOTH",
"1673 837 OFFCURVE",
"1773 751 OFFCURVE",
"1773 610 CURVE SMOOTH",
"1773 493 OFFCURVE",
"1699 384 OFFCURVE",
"1641 331 CURVE SMOOTH",
"1617 309 OFFCURVE",
"1594 298 OFFCURVE",
"1538 281 CURVE SMOOTH",
"1532 279 OFFCURVE",
"1527 276 OFFCURVE",
"1522 272 CURVE SMOOTH",
"1455 208 LINE SMOOTH",
"1448 201 OFFCURVE",
"1451 194 OFFCURVE",
"1461 197 CURVE SMOOTH"
);
}
);
width = 1966;
}
);
note = O;
unicode = 004F;
},
{
glyphname = Oslash;
lastChange = "2020-04-06 13:15:36 +0000";
layers = (
{
anchors = (
{
name = bottom;
position = "{983, 0}";
},
{
name = top;
position = "{983, 984}";
}
);
layerId = "BA9C892D-7698-4063-AF69-14CFA3D9CF82";
paths = (
{
closed = 1;
nodes = (
"227 -224 OFFCURVE",
"246 -205 CURVE SMOOTH",
"326 -138 OFFCURVE",
"404 -73 OFFCURVE",
"485 -6 CURVE",
"491 -2 OFFCURVE",
"496 0 OFFCURVE",
"503 -1 CURVE SMOOTH",
"551 -4 OFFCURVE",
"597 -5 OFFCURVE",
"645 -5 CURVE SMOOTH",
"904 -5 OFFCURVE",
"1110 35 OFFCURVE",
"1306 114 CURVE SMOOTH",
"1312 116 OFFCURVE",
"1316 119 OFFCURVE",
"1320 124 CURVE SMOOTH",
"1365 174 LINE SMOOTH",
"1371 181 OFFCURVE",
"1367 187 OFFCURVE",
"1358 184 CURVE SMOOTH",
"1192 120 OFFCURVE",
"989 84 OFFCURVE",
"764 84 CURVE SMOOTH",
"718 84 OFFCURVE",
"669 85 OFFCURVE",
"621 88 CURVE SMOOTH",
"610 88 OFFCURVE",
"607 96 OFFCURVE",
"616 103 CURVE SMOOTH",
"813 264 LINE SMOOTH",
"945 371 OFFCURVE",
"1075 477 OFFCURVE",
"1208 579 CURVE SMOOTH",
"1302 650 OFFCURVE",
"1396 724 OFFCURVE",
"1493 795 CURVE SMOOTH",
"1523 816 OFFCURVE",
"1551 838 OFFCURVE",
"1581 859 CURVE SMOOTH",
"1587 863 OFFCURVE",
"1593 864 OFFCURVE",
"1600 860 CURVE SMOOTH",
"1693 814 OFFCURVE",
"1773 736 OFFCURVE",
"1773 610 CURVE SMOOTH",
"1773 493 OFFCURVE",
"1699 384 OFFCURVE",
"1641 331 CURVE SMOOTH",
"1617 309 OFFCURVE",
"1594 298 OFFCURVE",
"1538 281 CURVE SMOOTH",
"1532 279 OFFCURVE",
"1527 276 OFFCURVE",
"1522 272 CURVE SMOOTH",
"1455 208 LINE SMOOTH",
"1448 201 OFFCURVE",
"1451 194 OFFCURVE",
"1461 197 CURVE SMOOTH",
"1653 260 OFFCURVE",
"1909 455 OFFCURVE",
"1909 690 CURVE SMOOTH",
"1909 816 OFFCURVE",
"1835 899 OFFCURVE",
"1733 950 CURVE SMOOTH",
"1724 954 OFFCURVE",
"1723 961 OFFCURVE",
"1731 967 CURVE SMOOTH",
"1845 1050 LINE SMOOTH",
"1868 1065 OFFCURVE",
"1815 1076 OFFCURVE",
"1794 1063 CURVE SMOOTH",
"1758 1034 OFFCURVE",
"1721 1010 OFFCURVE",
"1684 982 CURVE SMOOTH",
"1679 977 OFFCURVE",
"1673 976 OFFCURVE",
"1666 978 CURVE SMOOTH",
"1603 996 OFFCURVE",
"1535 1008 OFFCURVE",
"1468 1008 CURVE SMOOTH",
"1377 1008 OFFCURVE",
"1282 988 OFFCURVE",
"1185 947 CURVE SMOOTH",
"1097 911 OFFCURVE",
"995 858 OFFCURVE",
"904 792 CURVE SMOOTH",
"759 685 OFFCURVE",
"660 557 OFFCURVE",
"617 413 CURVE SMOOTH",
"614 404 OFFCURVE",
"619 400 OFFCURVE",
"627 405 CURVE SMOOTH",
"738 467 LINE SMOOTH",
"745 471 OFFCURVE",
"748 475 OFFCURVE",
"750 482 CURVE SMOOTH",
"788 607 OFFCURVE",
"869 718 OFFCURVE",
"970 792 CURVE SMOOTH",
"1056 855 OFFCURVE",
"1194 919 OFFCURVE",
"1346 919 CURVE SMOOTH",
"1409 919 OFFCURVE",
"1473 909 OFFCURVE",
"1533 890 CURVE SMOOTH",
"1543 887 OFFCURVE",
"1544 879 OFFCURVE",
"1536 873 CURVE SMOOTH",
"1500 847 OFFCURVE",
"1466 821 OFFCURVE",
"1430 795 CURVE SMOOTH",
"1333 723 OFFCURVE",
"1235 651 OFFCURVE",
"1138 575 CURVE SMOOTH",
"998 468 OFFCURVE",
"864 358 OFFCURVE",
"731 249 CURVE SMOOTH",
"671 200 OFFCURVE",
"609 150 OFFCURVE",
"551 102 CURVE SMOOTH",
"545 97 OFFCURVE",
"540 95 OFFCURVE",
"533 96 CURVE SMOOTH",
"378 117 OFFCURVE",
"208 186 OFFCURVE",
"208 339 CURVE SMOOTH",
"208 415 OFFCURVE",
"249 467 OFFCURVE",
"287 508 CURVE SMOOTH",
"377 603 OFFCURVE",
"497 688 OFFCURVE",
"614 738 CURVE SMOOTH",
"620 741 OFFCURVE",
"624 744 OFFCURVE",
"628 749 CURVE SMOOTH",
"668 794 LINE SMOOTH",
"674 801 OFFCURVE",
"670 808 OFFCURVE",
"660 804 CURVE SMOOTH",
"481 723 OFFCURVE",
"298 600 OFFCURVE",
"171 465 CURVE SMOOTH",
"121 414 OFFCURVE",
"71 350 OFFCURVE",
"71 259 CURVE SMOOTH",
"71 132 OFFCURVE",
"217 26 OFFCURVE",
"416 7 CURVE SMOOTH",
"427 6 OFFCURVE",
"429 -2 OFFCURVE",
"421 -8 CURVE SMOOTH",
"339 -77 OFFCURVE",
"257 -144 OFFCURVE",
"174 -212 CURVE SMOOTH",
"141 -237 OFFCURVE"
);
}
);
width = 1966;
}
);
note = Oslash;
unicode = 00D8;
},
{
glyphname = P;
lastChange = "2020-04-06 13:15:52 +0000";
layers = (
{
anchors = (
{
name = bottom;
position = "{1015, 0}";
},
{
name = top;
position = "{1315, 984}";
}
);
layerId = "BA9C892D-7698-4063-AF69-14CFA3D9CF82";
paths = (
{
closed = 1;
nodes = (
"446 -692 OFFCURVE",
"481 -671 OFFCURVE",
"517 -653 CURVE SMOOTH",
"523 -649 OFFCURVE",
"527 -645 OFFCURVE",
"529 -639 CURVE SMOOTH",
"616 -392 OFFCURVE",
"668 -128 OFFCURVE",
"743 132 CURVE SMOOTH",
"788 289 OFFCURVE",
"837 436 OFFCURVE",
"870 603 CURVE SMOOTH",
"871 610 OFFCURVE",
"874 615 OFFCURVE",
"880 619 CURVE SMOOTH",
"956 670 OFFCURVE",
"1021 723 OFFCURVE",
"1084 769 CURVE SMOOTH",
"1189 847 OFFCURVE",
"1285 889 OFFCURVE",
"1425 889 CURVE SMOOTH",
"1654 889 OFFCURVE",
"1809 750 OFFCURVE",
"1809 518 CURVE SMOOTH",
"1809 267 OFFCURVE",
"1634 94 OFFCURVE",
"1422 94 CURVE SMOOTH",
"1285 94 OFFCURVE",
"1162 183 OFFCURVE",
"1162 325 CURVE SMOOTH",
"1162 382 OFFCURVE",
"1187 442 OFFCURVE",
"1217 477 CURVE SMOOTH",
"1221 482 OFFCURVE",
"1225 484 OFFCURVE",
"1232 486 CURVE SMOOTH",
"1241 488 OFFCURVE",
"1257 490 OFFCURVE",
"1275 490 CURVE SMOOTH",
"1283 490 OFFCURVE",
"1287 485 OFFCURVE",
"1286 477 CURVE SMOOTH",
"1283 450 OFFCURVE",
"1281 422 OFFCURVE",
"1280 394 CURVE SMOOTH",
"1280 384 OFFCURVE",
"1286 381 OFFCURVE",
"1295 385 CURVE",
"1332 407 OFFCURVE",
"1369 428 OFFCURVE",
"1407 450 CURVE",
"1412 454 OFFCURVE",
"1415 458 OFFCURVE",
"1415 465 CURVE SMOOTH",
"1416 519 OFFCURVE",
"1423 572 OFFCURVE",
"1433 620 CURVE SMOOTH",
"1435 631 OFFCURVE",
"1429 635 OFFCURVE",
"1420 630 CURVE SMOOTH",
"1380 606 OFFCURVE",
"1343 582 OFFCURVE",
"1303 564 CURVE SMOOTH",
"1286 556 OFFCURVE",
"1260 548 OFFCURVE",
"1232 533 CURVE SMOOTH",
"1125 475 OFFCURVE",
"1082 414 OFFCURVE",
"1063 378 CURVE SMOOTH",
"1040 336 OFFCURVE",
"1029 292 OFFCURVE",
"1029 246 CURVE SMOOTH",
"1029 96 OFFCURVE",
"1151 4 OFFCURVE",
"1300 4 CURVE SMOOTH",
"1616 4 OFFCURVE",
"1945 301 OFFCURVE",
"1945 597 CURVE SMOOTH",
"1945 837 OFFCURVE",
"1780 979 OFFCURVE",
"1544 979 CURVE SMOOTH",
"1352 979 OFFCURVE",
"1186 887 OFFCURVE",
"1029 773 CURVE SMOOTH",
"984 740 OFFCURVE",
"941 708 OFFCURVE",
"898 677 CURVE SMOOTH",
"889 671 OFFCURVE",
"883 675 OFFCURVE",
"885 686 CURVE SMOOTH",
"905 801 OFFCURVE",
"928 915 OFFCURVE",
"982 996 CURVE SMOOTH",
"988 1006 OFFCURVE",
"983 1012 OFFCURVE",
"973 1007 CURVE SMOOTH",
"943 994 OFFCURVE",
"915 980 OFFCURVE",
"885 967 CURVE SMOOTH",
"878 964 OFFCURVE",
"874 961 OFFCURVE",
"870 956 CURVE SMOOTH",
"861 943 OFFCURVE",
"851 931 OFFCURVE",
"843 918 CURVE SMOOTH",
"839 911 OFFCURVE",
"835 908 OFFCURVE",
"828 907 CURVE SMOOTH",
"810 904 OFFCURVE",
"789 903 OFFCURVE",
"773 903 CURVE SMOOTH",
"731 903 OFFCURVE",
"690 917 OFFCURVE",
"690 963 CURVE SMOOTH",
"690 1002 OFFCURVE",
"723 1030 OFFCURVE",
"776 1067 CURVE SMOOTH",
"786 1074 OFFCURVE",
"783 1084 OFFCURVE",
"771 1082 CURVE SMOOTH",
"725 1074 LINE SMOOTH",
"719 1073 OFFCURVE",
"714 1071 OFFCURVE",
"709 1067 CURVE SMOOTH",
"659 1029 OFFCURVE",
"552 955 OFFCURVE",
"552 889 CURVE SMOOTH",
"552 884 OFFCURVE",
"552 880 OFFCURVE",
"553 875 CURVE SMOOTH",
"555 868 OFFCURVE",
"553 863 OFFCURVE",
"547 859 CURVE SMOOTH",
"443 790 OFFCURVE",
"338 718 OFFCURVE",
"232 651 CURVE SMOOTH",
"160 603 OFFCURVE",
"73 550 OFFCURVE",
"-11 484 CURVE SMOOTH",
"-98 414 OFFCURVE",
"-167 340 OFFCURVE",
"-222 262 CURVE SMOOTH",
"-228 254 OFFCURVE",
"-222 247 OFFCURVE",
"-213 252 CURVE SMOOTH",
"-181 268 OFFCURVE",
"-150 286 OFFCURVE",
"-117 301 CURVE SMOOTH",
"-111 304 OFFCURVE",
"-108 307 OFFCURVE",
"-104 313 CURVE SMOOTH",
"-1 463 OFFCURVE",
"105 529 OFFCURVE",
"259 629 CURVE SMOOTH",
"363 693 OFFCURVE",
"466 761 OFFCURVE",
"567 830 CURVE SMOOTH",
"573 834 OFFCURVE",
"578 834 OFFCURVE",
"584 829 CURVE SMOOTH",
"603 816 OFFCURVE",
"627 811 OFFCURVE",
"653 811 CURVE SMOOTH",
"708 811 OFFCURVE",
"739 814 OFFCURVE",
"785 836 CURVE SMOOTH",
"797 842 OFFCURVE",
"803 839 OFFCURVE",
"799 826 CURVE SMOOTH",
"789 798 OFFCURVE",
"781 769 OFFCURVE",
"775 739 CURVE SMOOTH",
"748 625 OFFCURVE",
"733 508 OFFCURVE",
"705 396 CURVE SMOOTH",
"675 282 OFFCURVE",
"640 170 OFFCURVE",
"607 56 CURVE SMOOTH",
"533 -200 OFFCURVE",
"483 -456 OFFCURVE",
"398 -699 CURVE SMOOTH",
"395 -710 OFFCURVE",
"401 -715 OFFCURVE",
"410 -710 CURVE SMOOTH"
);
}
);
width = 2030;
}
);
note = P;
unicode = 0050;
},
{
glyphname = Thorn;
lastChange = "2020-04-06 13:15:59 +0000";
layers = (
{
anchors = (
{
name = bottom;
position = "{745, 0}";
},
{
name = top;
position = "{945, 984}";
}
);
layerId = "BA9C892D-7698-4063-AF69-14CFA3D9CF82";
paths = (
{
closed = 1;
nodes = (
"280 -684 OFFCURVE",
"310 -594 OFFCURVE",
"335 -503 CURVE SMOOTH",
"369 -384 OFFCURVE",
"396 -260 OFFCURVE",
"437 -142 CURVE SMOOTH",
"470 -43 OFFCURVE",
"506 49 OFFCURVE",
"526 154 CURVE SMOOTH",
"528 161 OFFCURVE",
"530 165 OFFCURVE",
"534 170 CURVE SMOOTH",
"596 247 OFFCURVE",
"676 313 OFFCURVE",
"762 362 CURVE SMOOTH",
"838 405 OFFCURVE",
"921 438 OFFCURVE",
"1009 438 CURVE SMOOTH",
"1176 438 OFFCURVE",
"1307 313 OFFCURVE",
"1307 130 CURVE SMOOTH",
"1307 -46 OFFCURVE",
"1184 -211 OFFCURVE",
"973 -211 CURVE SMOOTH",
"861 -211 OFFCURVE",
"750 -152 OFFCURVE",
"750 -42 CURVE SMOOTH",
"750 35 OFFCURVE",
"806 88 OFFCURVE",
"870 106 CURVE SMOOTH",
"880 109 OFFCURVE",
"888 104 OFFCURVE",
"890 94 CURVE SMOOTH",
"894 72 OFFCURVE",
"906 48 OFFCURVE",
"922 48 CURVE SMOOTH",
"926 48 OFFCURVE",
"929 49 OFFCURVE",
"933 53 CURVE",
"956 66 OFFCURVE",
"973 105 OFFCURVE",
"973 141 CURVE SMOOTH",
"973 168 OFFCURVE",
"962 203 OFFCURVE",
"935 203 CURVE SMOOTH",
"925 203 OFFCURVE",
"914 195 OFFCURVE",
"907 186 CURVE SMOOTH",
"900 177 OFFCURVE",
"894 173 OFFCURVE",
"883 176 CURVE SMOOTH",
"879 177 OFFCURVE",
"874 178 OFFCURVE",
"869 178 CURVE SMOOTH",
"828 178 OFFCURVE",
"802 162 OFFCURVE",
"777 141 CURVE SMOOTH",
"721 95 OFFCURVE",
"667 4 OFFCURVE",
"667 -84 CURVE SMOOTH",
"667 -217 OFFCURVE",
"779 -301 OFFCURVE",
"914 -301 CURVE SMOOTH",
"1153 -301 OFFCURVE",
"1425 -45 OFFCURVE",
"1425 206 CURVE SMOOTH",
"1425 400 OFFCURVE",
"1272 528 OFFCURVE",
"1070 528 CURVE SMOOTH",
"1032 528 OFFCURVE",
"992 523 OFFCURVE",
"956 513 CURVE SMOOTH",
"838 480 OFFCURVE",
"745 410 OFFCURVE",
"648 353 CURVE SMOOTH",
"625 340 OFFCURVE",
"599 328 OFFCURVE",
"571 328 CURVE SMOOTH",
"553 328 OFFCURVE",
"546 332 OFFCURVE",
"546 345 CURVE SMOOTH",
"546 356 OFFCURVE",
"554 376 OFFCURVE",
"559 406 CURVE SMOOTH",
"586 544 OFFCURVE",
"657 826 OFFCURVE",
"677 914 CURVE SMOOTH",
"685 947 OFFCURVE",
"664 942 OFFCURVE",
"646 931 CURVE SMOOTH",
"624 917 OFFCURVE",
"605 902 OFFCURVE",
"590 881 CURVE SMOOTH",
"584 872 OFFCURVE",
"578 865 OFFCURVE",
"571 865 CURVE SMOOTH",
"529 865 OFFCURVE",
"472 869 OFFCURVE",
"472 910 CURVE SMOOTH",
"472 936 OFFCURVE",
"496 963 OFFCURVE",
"517 986 CURVE SMOOTH",
"542 1015 OFFCURVE",
"516 1023 OFFCURVE",
"500 1020 CURVE SMOOTH",
"436 1006 OFFCURVE",
"406 945 OFFCURVE",
"377 899 CURVE SMOOTH",
"370 888 OFFCURVE",
"361 867 OFFCURVE",
"361 849 CURVE SMOOTH",
"361 844 OFFCURVE",
"360 838 OFFCURVE",
"363 833 CURVE",
"230 738 OFFCURVE",
"82 663 OFFCURVE",
"-48 564 CURVE SMOOTH",
"-120 510 OFFCURVE",
"-196 456 OFFCURVE",
"-241 372 CURVE SMOOTH",
"-263 331 OFFCURVE",
"-249 325 OFFCURVE",
"-221 348 CURVE SMOOTH",
"-202 364 OFFCURVE",
"-182 380 OFFCURVE",
"-163 399 CURVE SMOOTH",
"-131 431 OFFCURVE",
"-114 467 OFFCURVE",
"-84 500 CURVE SMOOTH",
"-46 542 OFFCURVE",
"6 563 OFFCURVE",
"58 590 CURVE SMOOTH",
"108 616 OFFCURVE",
"152 646 OFFCURVE",
"194 682 CURVE SMOOTH",
"251 730 OFFCURVE",
"310 774 OFFCURVE",
"373 815 CURVE",
"391 796 OFFCURVE",
"419 790 OFFCURVE",
"455 790 CURVE SMOOTH",
"477 790 OFFCURVE",
"498 792 OFFCURVE",
"518 795 CURVE SMOOTH",
"535 797 OFFCURVE",
"547 786 OFFCURVE",
"543 769 CURVE SMOOTH",
"515 659 OFFCURVE",
"437 306 OFFCURVE",
"430 270 CURVE SMOOTH",
"411 171 OFFCURVE",
"385 74 OFFCURVE",
"358 -23 CURVE SMOOTH",
"328 -135 OFFCURVE",
"310 -251 OFFCURVE",
"287 -363 CURVE SMOOTH",
"259 -496 OFFCURVE",
"226 -627 OFFCURVE",
"194 -757 CURVE SMOOTH",
"184 -798 OFFCURVE",
"228 -807 OFFCURVE",
"244 -769 CURVE SMOOTH"
);
}
);
width = 1490;
}
);
note = Thorn;
unicode = 00DE;
},
{
glyphname = Q;
lastChange = "2020-04-06 13:16:07 +0000";
layers = (
{
anchors = (
{
name = bottom;
position = "{990, 0}";
},
{
name = top;
position = "{1160, 984}";
}
);
layerId = "BA9C892D-7698-4063-AF69-14CFA3D9CF82";
paths = (
{
closed = 1;
nodes = (
"1211 -415 OFFCURVE",
"1506 -342 OFFCURVE",
"1625 -302 CURVE SMOOTH",
"1792 -247 OFFCURVE",
"1945 -171 OFFCURVE",
"2090 -85 CURVE SMOOTH",
"2102 -77 OFFCURVE",
"2093 -43 OFFCURVE",
"2076 -53 CURVE SMOOTH",
"2022 -86 OFFCURVE",
"1961 -114 OFFCURVE",
"1902 -142 CURVE SMOOTH",
"1710 -230 OFFCURVE",
"1355 -328 OFFCURVE",
"1166 -328 CURVE SMOOTH",
"1001 -328 OFFCURVE",
"857 -246 OFFCURVE",
"857 -81 CURVE SMOOTH",
"857 -71 OFFCURVE",
"858 -59 OFFCURVE",
"859 -48 CURVE SMOOTH",
"860 -41 OFFCURVE",
"864 -38 OFFCURVE",
"872 -37 CURVE SMOOTH",
"1034 -24 OFFCURVE",
"1171 2 OFFCURVE",
"1319 45 CURVE SMOOTH",
"1348 53 OFFCURVE",
"1428 134 OFFCURVE",
"1394 124 CURVE SMOOTH",
"1242 80 OFFCURVE",
"1081 52 OFFCURVE",
"899 46 CURVE SMOOTH",
"890 46 OFFCURVE",
"886 52 OFFCURVE",
"889 60 CURVE SMOOTH",
"935 192 OFFCURVE",
"1014 244 OFFCURVE",
"1204 244 CURVE SMOOTH",
"1476 244 OFFCURVE",
"1684 149 OFFCURVE",
"1818 -3 CURVE SMOOTH",
"1833 -20 OFFCURVE",
"1968 63 OFFCURVE",
"1953 81 CURVE SMOOTH",
"1871 174 OFFCURVE",
"1769 239 OFFCURVE",
"1641 282 CURVE SMOOTH",
"1632 285 OFFCURVE",
"1632 291 OFFCURVE",
"1640 296 CURVE SMOOTH",
"1771 382 OFFCURVE",
"1848 472 OFFCURVE",
"1912 604 CURVE SMOOTH",
"1935 655 OFFCURVE",
"1958 710 OFFCURVE",
"1958 766 CURVE SMOOTH",
"1958 944 OFFCURVE",
"1782 987 OFFCURVE",
"1604 987 CURVE SMOOTH",
"1486 987 OFFCURVE",
"1401 972 OFFCURVE",
"1291 924 CURVE SMOOTH",
"1075 833 OFFCURVE",
"885 671 OFFCURVE",
"757 497 CURVE SMOOTH",
"732 460 OFFCURVE",
"856 514 OFFCURVE",
"874 541 CURVE SMOOTH",
"930 622 OFFCURVE",
"996 692 OFFCURVE",
"1059 743 CURVE SMOOTH",
"1168 834 OFFCURVE",
"1292 896 OFFCURVE",
"1486 896 CURVE SMOOTH",
"1654 896 OFFCURVE",
"1821 853 OFFCURVE",
"1821 688 CURVE SMOOTH",
"1821 599 OFFCURVE",
"1749 469 OFFCURVE",
"1694 400 CURVE SMOOTH",
"1654 348 OFFCURVE",
"1627 327 OFFCURVE",
"1589 306 CURVE SMOOTH",
"1583 302 OFFCURVE",
"1577 302 OFFCURVE",
"1570 303 CURVE SMOOTH",
"1496 321 OFFCURVE",
"1408 333 OFFCURVE",
"1323 333 CURVE SMOOTH",
"1234 333 OFFCURVE",
"1134 328 OFFCURVE",
"996 251 CURVE SMOOTH",
"882 186 OFFCURVE",
"839 137 OFFCURVE",
"786 54 CURVE SMOOTH",
"783 48 OFFCURVE",
"778 46 OFFCURVE",
"771 46 CURVE SMOOTH",
"607 51 OFFCURVE",
"466 86 OFFCURVE",
"356 157 CURVE SMOOTH",
"303 193 OFFCURVE",
"248 247 OFFCURVE",
"248 333 CURVE SMOOTH",
"248 428 OFFCURVE",
"318 535 OFFCURVE",
"396 613 CURVE SMOOTH",
"484 701 OFFCURVE",
"647 756 OFFCURVE",
"796 781 CURVE SMOOTH",
"828 787 OFFCURVE",
"930 873 OFFCURVE",
"889 866 CURVE SMOOTH",
"794 848 OFFCURVE",
"694 821 OFFCURVE",
"594 777 CURVE SMOOTH",
"340 667 OFFCURVE",
"112 436 OFFCURVE",
"112 254 CURVE SMOOTH",
"112 165 OFFCURVE",
"170 109 OFFCURVE",
"226 71 CURVE SMOOTH",
"348 -9 OFFCURVE",
"510 -46 OFFCURVE",
"698 -46 CURVE SMOOTH",
"707 -46 OFFCURVE",
"718 -45 OFFCURVE",
"729 -44 CURVE SMOOTH",
"737 -43 OFFCURVE",
"741 -48 OFFCURVE",
"739 -57 CURVE SMOOTH",
"730 -90 OFFCURVE",
"724 -124 OFFCURVE",
"724 -160 CURVE SMOOTH",
"724 -335 OFFCURVE",
"869 -415 OFFCURVE",
"1044 -415 CURVE SMOOTH"
);
}
);
width = 1980;
}
);
note = Q;
unicode = 0051;
},
{
glyphname = R;
lastChange = "2020-04-06 13:16:28 +0000";
layers = (
{
anchors = (
{
name = bottom;
position = "{623, 0}";
},
{
name = top;
position = "{793, 984}";
}
);
layerId = "BA9C892D-7698-4063-AF69-14CFA3D9CF82";
paths = (
{
closed = 1;
nodes = (
"-71 -520 OFFCURVE",
"-63 -462 OFFCURVE",
"-64 -450 CURVE SMOOTH",
"-69 -387 OFFCURVE",
"-69 -319 OFFCURVE",
"-69 -248 CURVE SMOOTH",
"-69 -179 OFFCURVE",
"-51 -104 OFFCURVE",
"-33 -38 CURVE SMOOTH",
"41 226 OFFCURVE",
"138 422 OFFCURVE",
"305 640 CURVE SMOOTH",
"394 755 OFFCURVE",
"421 782 OFFCURVE",
"523 879 CURVE SMOOTH",
"536 890 OFFCURVE",
"549 896 OFFCURVE",
"560 896 CURVE SMOOTH",
"575 896 OFFCURVE",
"587 880 OFFCURVE",
"587 842 CURVE SMOOTH",
"587 776 OFFCURVE",
"579 701 OFFCURVE",
"571 636 CURVE SMOOTH",
"563 570 OFFCURVE",
"559 500 OFFCURVE",
"556 434 CURVE SMOOTH",
"552 353 OFFCURVE",
"539 211 OFFCURVE",
"531 121 CURVE SMOOTH",
"530 114 OFFCURVE",
"526 110 OFFCURVE",
"519 109 CURVE SMOOTH",
"418 99 OFFCURVE",
"348 82 OFFCURVE",
"252 37 CURVE SMOOTH",
"233 28 OFFCURVE",
"195 -37 OFFCURVE",
"220 -25 CURVE SMOOTH",
"288 5 OFFCURVE",
"393 27 OFFCURVE",
"493 27 CURVE SMOOTH",
"511 27 LINE SMOOTH",
"519 27 OFFCURVE",
"523 23 OFFCURVE",
"522 15 CURVE SMOOTH",
"514 -101 OFFCURVE",
"507 -218 OFFCURVE",
"488 -321 CURVE SMOOTH",
"482 -355 OFFCURVE",
"616 -274 OFFCURVE",
"619 -254 CURVE SMOOTH",
"635 -172 OFFCURVE",
"645 -85 OFFCURVE",
"650 6 CURVE SMOOTH",
"651 14 OFFCURVE",
"655 18 OFFCURVE",
"663 17 CURVE SMOOTH",
"709 13 OFFCURVE",
"757 10 OFFCURVE",
"804 10 CURVE SMOOTH",
"950 10 OFFCURVE",
"1087 36 OFFCURVE",
"1215 63 CURVE SMOOTH",
"1229 65 OFFCURVE",
"1343 154 OFFCURVE",
"1304 147 CURVE SMOOTH",
"1189 121 OFFCURVE",
"1062 102 OFFCURVE",
"926 102 CURVE SMOOTH",
"922 102 LINE SMOOTH",
"838 102 OFFCURVE",
"756 109 OFFCURVE",
"671 113 CURVE SMOOTH",
"663 114 OFFCURVE",
"660 118 OFFCURVE",
"660 126 CURVE SMOOTH",
"663 152 OFFCURVE",
"666 196 OFFCURVE",
"669 221 CURVE SMOOTH",
"670 228 OFFCURVE",
"673 232 OFFCURVE",
"679 235 CURVE SMOOTH",
"876 329 OFFCURVE",
"1168 503 OFFCURVE",
"1168 636 CURVE SMOOTH",
"1168 689 OFFCURVE",
"1119 721 OFFCURVE",
"1062 721 CURVE SMOOTH",
"967 721 OFFCURVE",
"818 641 OFFCURVE",
"707 560 CURVE SMOOTH",
"699 554 OFFCURVE",
"693 557 OFFCURVE",
"694 567 CURVE SMOOTH",
"698 648 OFFCURVE",
"708 725 OFFCURVE",
"712 805 CURVE SMOOTH",
"715 839 OFFCURVE",
"721 878 OFFCURVE",
"721 912 CURVE SMOOTH",
"721 958 OFFCURVE",
"709 996 OFFCURVE",
"663 996 CURVE SMOOTH",
"621 996 OFFCURVE",
"585 978 OFFCURVE",
"537 945 CURVE SMOOTH",
"452 886 OFFCURVE",
"265 700 OFFCURVE",
"179 584 CURVE SMOOTH",
"-18 329 OFFCURVE",
"-78 193 OFFCURVE",
"-163 -114 CURVE SMOOTH",
"-181 -183 OFFCURVE",
"-196 -257 OFFCURVE",
"-196 -328 CURVE SMOOTH",
"-196 -405 OFFCURVE",
"-177 -468 OFFCURVE",
"-110 -501 CURVE SMOOTH"
);
},
{
closed = 1;
nodes = (
"682 355 OFFCURVE",
"686 415 OFFCURVE",
"690 475 CURVE SMOOTH",
"691 482 OFFCURVE",
"693 487 OFFCURVE",
"698 492 CURVE SMOOTH",
"764 563 OFFCURVE",
"850 632 OFFCURVE",
"941 632 CURVE SMOOTH",
"991 632 OFFCURVE",
"1031 602 OFFCURVE",
"1031 556 CURVE SMOOTH",
"1031 443 OFFCURVE",
"780 321 OFFCURVE",
"691 285 CURVE SMOOTH",
"682 281 OFFCURVE",
"676 285 OFFCURVE",
"677 295 CURVE SMOOTH"
);
}
);
width = 1245;
}
);
note = R;
unicode = 0052;
},
{
glyphname = S;
lastChange = "2020-04-06 13:16:36 +0000";
layers = (
{
anchors = (
{
name = bottom;
position = "{1051, 0}";
},
{
name = top;
position = "{1191, 984}";
}
);
layerId = "BA9C892D-7698-4063-AF69-14CFA3D9CF82";
paths = (
{
closed = 1;
nodes = (
"1445 -213 OFFCURVE",
"1586 -188 OFFCURVE",
"1719 -142 CURVE SMOOTH",
"1857 -96 OFFCURVE",
"2084 18 OFFCURVE",
"2084 168 CURVE SMOOTH",
"2084 336 OFFCURVE",
"1824 378 OFFCURVE",
"1653 378 CURVE SMOOTH",
"1512 378 OFFCURVE",
"1391 350 OFFCURVE",
"1272 330 CURVE SMOOTH",
"1170 312 OFFCURVE",
"1071 294 OFFCURVE",
"968 279 CURVE SMOOTH",
"842 261 OFFCURVE",
"724 234 OFFCURVE",
"595 222 CURVE SMOOTH",
"588 221 OFFCURVE",
"582 224 OFFCURVE",
"578 231 CURVE SMOOTH",
"537 300 OFFCURVE",
"498 385 OFFCURVE",
"498 484 CURVE SMOOTH",
"498 641 OFFCURVE",
"614 691 OFFCURVE",
"781 691 CURVE SMOOTH",
"844 691 OFFCURVE",
"908 683 OFFCURVE",
"973 673 CURVE SMOOTH",
"1169 643 OFFCURVE",
"1371 609 OFFCURVE",
"1528 533 CURVE SMOOTH",
"1565 516 OFFCURVE",
"1596 491 OFFCURVE",
"1615 455 CURVE SMOOTH",
"1627 432 OFFCURVE",
"1759 520 OFFCURVE",
"1750 538 CURVE SMOOTH",
"1731 576 OFFCURVE",
"1695 602 OFFCURVE",
"1657 621 CURVE SMOOTH",
"1497 700 OFFCURVE",
"1296 728 OFFCURVE",
"1100 758 CURVE SMOOTH",
"1035 768 OFFCURVE",
"968 781 OFFCURVE",
"902 781 CURVE SMOOTH",
"742 781 OFFCURVE",
"605 718 OFFCURVE",
"495 632 CURVE SMOOTH",
"397 558 OFFCURVE",
"361 484 OFFCURVE",
"361 404 CURVE SMOOTH",
"361 340 OFFCURVE",
"379 286 OFFCURVE",
"399 237 CURVE SMOOTH",
"403 228 OFFCURVE",
"399 222 OFFCURVE",
"389 223 CURVE SMOOTH",
"263 243 OFFCURVE",
"155 318 OFFCURVE",
"155 461 CURVE SMOOTH",
"155 560 OFFCURVE",
"213 641 OFFCURVE",
"256 682 CURVE SMOOTH",
"286 709 OFFCURVE",
"319 722 OFFCURVE",
"376 750 CURVE SMOOTH",
"579 850 OFFCURVE",
"889 955 OFFCURVE",
"1219 955 CURVE SMOOTH",
"1507 955 OFFCURVE",
"1735 886 OFFCURVE",
"1907 757 CURVE SMOOTH",
"1941 732 OFFCURVE",
"1954 748 OFFCURVE",
"1922 775 CURVE SMOOTH",
"1748 922 OFFCURVE",
"1500 996 OFFCURVE",
"1186 996 CURVE SMOOTH",
"890 996 OFFCURVE",
"629 922 OFFCURVE",
"416 819 CURVE SMOOTH",
"215 723 OFFCURVE",
"18 557 OFFCURVE",
"18 385 CURVE SMOOTH",
"18 202 OFFCURVE",
"183 127 OFFCURVE",
"361 127 CURVE SMOOTH",
"390 127 OFFCURVE",
"414 129 OFFCURVE",
"442 132 CURVE SMOOTH",
"449 133 OFFCURVE",
"455 130 OFFCURVE",
"459 123 CURVE SMOOTH",
"610 -109 OFFCURVE",
"909 -213 OFFCURVE",
"1280 -213 CURVE SMOOTH"
);
},
{
closed = 1;
nodes = (
"1070 -126 OFFCURVE",
"797 -41 OFFCURVE",
"640 145 CURVE SMOOTH",
"635 151 OFFCURVE",
"639 156 OFFCURVE",
"649 158 CURVE SMOOTH",
"822 185 OFFCURVE",
"993 209 OFFCURVE",
"1166 241 CURVE SMOOTH",
"1288 261 OFFCURVE",
"1394 290 OFFCURVE",
"1534 290 CURVE SMOOTH",
"1656 290 OFFCURVE",
"1762 277 OFFCURVE",
"1851 229 CURVE SMOOTH",
"1899 202 OFFCURVE",
"1948 160 OFFCURVE",
"1948 89 CURVE SMOOTH",
"1948 4 OFFCURVE",
"1898 -27 OFFCURVE",
"1802 -58 CURVE SMOOTH",
"1688 -99 OFFCURVE",
"1548 -126 OFFCURVE",
"1399 -126 CURVE SMOOTH"
);
}
);
width = 2102;
}
);
note = S;
unicode = 0053;
},
{
glyphname = T;
lastChange = "2020-04-06 13:16:42 +0000";
layers = (
{
anchors = (
{
name = bottom;
position = "{804, 0}";
},
{
name = center;
position = "{804, 492}";
},
{
name = top;
position = "{1004, 984}";
}
);
layerId = "BA9C892D-7698-4063-AF69-14CFA3D9CF82";
paths = (
{
closed = 1;
nodes = (
"1286 -28 OFFCURVE",
"1424 9 OFFCURVE",
"1554 44 CURVE SMOOTH",
"1588 48 OFFCURVE",
"1669 137 OFFCURVE",
"1631 127 CURVE SMOOTH",
"1514 96 OFFCURVE",
"1389 66 OFFCURVE",
"1252 66 CURVE SMOOTH",
"1148 66 OFFCURVE",
"988 95 OFFCURVE",
"862 143 CURVE SMOOTH",
"753 185 OFFCURVE",
"670 261 OFFCURVE",
"670 361 CURVE SMOOTH",
"670 459 OFFCURVE",
"756 552 OFFCURVE",
"838 617 CURVE SMOOTH",
"919 678 OFFCURVE",
"1094 756 OFFCURVE",
"1237 824 CURVE SMOOTH",
"1244 827 OFFCURVE",
"1249 827 OFFCURVE",
"1255 826 CURVE SMOOTH",
"1395 794 OFFCURVE",
"1528 754 OFFCURVE",
"1662 700 CURVE SMOOTH",
"1687 691 OFFCURVE",
"1818 780 OFFCURVE",
"1786 794 CURVE SMOOTH",
"1504 908 OFFCURVE",
"1193 961 OFFCURVE",
"851 1002 CURVE SMOOTH",
"775 1010 OFFCURVE",
"703 1018 OFFCURVE",
"627 1018 CURVE SMOOTH",
"505 1018 OFFCURVE",
"323 990 OFFCURVE",
"196 896 CURVE SMOOTH",
"79 818 OFFCURVE",
"27 737 OFFCURVE",
"27 629 CURVE SMOOTH",
"27 587 OFFCURVE",
"37 543 OFFCURVE",
"56 507 CURVE SMOOTH",
"125 385 OFFCURVE",
"280 350 OFFCURVE",
"460 350 CURVE SMOOTH",
"491 350 OFFCURVE",
"518 352 OFFCURVE",
"534 352 CURVE SMOOTH",
"543 353 OFFCURVE",
"547 348 OFFCURVE",
"544 339 CURVE SMOOTH",
"538 319 OFFCURVE",
"536 301 OFFCURVE",
"536 279 CURVE SMOOTH",
"536 141 OFFCURVE",
"652 78 OFFCURVE",
"803 30 CURVE SMOOTH",
"910 -3 OFFCURVE",
"1007 -28 OFFCURVE",
"1133 -28 CURVE SMOOTH"
);
},
{
closed = 1;
nodes = (
"477 446 OFFCURVE",
"389 454 OFFCURVE",
"312 488 CURVE SMOOTH",
"233 524 OFFCURVE",
"160 597 OFFCURVE",
"160 711 CURVE SMOOTH",
"160 783 OFFCURVE",
"195 858 OFFCURVE",
"246 881 CURVE SMOOTH",
"307 909 OFFCURVE",
"410 926 OFFCURVE",
"507 926 CURVE SMOOTH",
"579 926 OFFCURVE",
"657 917 OFFCURVE",
"729 909 CURVE SMOOTH",
"871 892 OFFCURVE",
"1012 874 OFFCURVE",
"1153 847 CURVE SMOOTH",
"1164 845 OFFCURVE",
"1165 836 OFFCURVE",
"1155 831 CURVE SMOOTH",
"1020 766 OFFCURVE",
"909 722 OFFCURVE",
"781 625 CURVE SMOOTH",
"705 570 OFFCURVE",
"652 516 OFFCURVE",
"605 455 CURVE SMOOTH",
"600 449 OFFCURVE",
"596 446 OFFCURVE",
"588 446 CURVE SMOOTH"
);
}
);
width = 1608;
}
);
note = T;
unicode = 0054;
},
{
glyphname = U;
lastChange = "2020-03-28 20:06:39 +0000";
layers = (
{
anchors = (
{
name = bottom;
position = "{1707, 0}";
},
{
name = ogonek;
position = "{2352, 10}";
},
{
name = top;
position = "{1707, 984}";
},
{
name = topright;
position = "{2593, 984}";
}
);
layerId = "BA9C892D-7698-4063-AF69-14CFA3D9CF82";
paths = (
{
closed = 1;
nodes = (
"-921 -756 OFFCURVE",
"-908 -725 CURVE SMOOTH",
"-871 -645 OFFCURVE",
"-830 -571 OFFCURVE",
"-781 -498 CURVE SMOOTH",
"-644 -296 OFFCURVE",
"-467 -145 OFFCURVE",
"-269 -4 CURVE SMOOTH",
"-63 143 OFFCURVE",
"169 274 OFFCURVE",
"363 442 CURVE SMOOTH",
"469 536 OFFCURVE",
"632 694 OFFCURVE",
"734 810 CURVE SMOOTH",
"739 816 OFFCURVE",
"745 817 OFFCURVE",
"751 812 CURVE SMOOTH",
"798 776 OFFCURVE",
"841 737 OFFCURVE",
"884 698 CURVE SMOOTH",
"947 641 OFFCURVE",
"1008 575 OFFCURVE",
"1008 465 CURVE SMOOTH",
"1008 363 OFFCURVE",
"962 283 OFFCURVE",
"916 218 CURVE SMOOTH",
"912 212 OFFCURVE",
"907 210 OFFCURVE",
"899 209 CURVE SMOOTH",
"731 199 OFFCURVE",
"447 90 OFFCURVE",
"335 -71 CURVE SMOOTH",
"312 -105 OFFCURVE",
"297 -136 OFFCURVE",
"297 -179 CURVE SMOOTH",
"297 -299 OFFCURVE",
"393 -311 OFFCURVE",
"443 -312 CURVE SMOOTH",
"458 -312 OFFCURVE",
"582 -228 OFFCURVE",
"547 -225 CURVE SMOOTH",
"477 -217 OFFCURVE",
"432 -163 OFFCURVE",
"432 -99 CURVE SMOOTH",
"432 57 OFFCURVE",
"651 126 OFFCURVE",
"904 126 CURVE SMOOTH",
"993 126 OFFCURVE",
"1075 120 OFFCURVE",
"1161 110 CURVE SMOOTH",
"1339 90 OFFCURVE",
"1509 33 OFFCURVE",
"1679 -3 CURVE SMOOTH",
"1767 -21 OFFCURVE",
"1848 -36 OFFCURVE",
"1947 -36 CURVE SMOOTH",
"2062 -36 OFFCURVE",
"2160 -19 OFFCURVE",
"2259 3 CURVE SMOOTH",
"2291 9 OFFCURVE",
"2379 95 OFFCURVE",
"2339 88 CURVE SMOOTH",
"2254 70 OFFCURVE",
"2166 53 OFFCURVE",
"2067 53 CURVE SMOOTH",
"1970 53 OFFCURVE",
"1891 68 OFFCURVE",
"1803 86 CURVE SMOOTH",
"1633 122 OFFCURVE",
"1463 175 OFFCURVE",
"1284 198 CURVE SMOOTH",
"1201 208 OFFCURVE",
"1125 213 OFFCURVE",
"1015 213 CURVE SMOOTH",
"1005 213 OFFCURVE",
"1002 220 OFFCURVE",
"1008 228 CURVE SMOOTH",
"1065 294 OFFCURVE",
"1145 413 OFFCURVE",
"1145 545 CURVE SMOOTH",
"1145 659 OFFCURVE",
"1083 729 OFFCURVE",
"1018 787 CURVE SMOOTH",
"964 835 OFFCURVE",
"904 880 OFFCURVE",
"845 926 CURVE SMOOTH",
"839 930 OFFCURVE",
"839 936 OFFCURVE",
"844 942 CURVE SMOOTH",
"876 984 OFFCURVE",
"906 1025 OFFCURVE",
"936 1067 CURVE SMOOTH",
"958 1097 OFFCURVE",
"836 1047 OFFCURVE",
"818 1021 CURVE SMOOTH",
"674 811 OFFCURVE",
"462 583 OFFCURVE",
"274 416 CURVE SMOOTH",
"155 312 OFFCURVE",
"30 239 OFFCURVE",
"-112 145 CURVE SMOOTH",
"-261 48 OFFCURVE",
"-409 -53 OFFCURVE",
"-546 -165 CURVE SMOOTH",
"-748 -331 OFFCURVE",
"-920 -535 OFFCURVE",
"-1038 -781 CURVE SMOOTH",
"-1055 -815 OFFCURVE"
);
},
{
closed = 1;
nodes = (
"2262 110 OFFCURVE",
"2309 132 OFFCURVE",
"2357 165 CURVE SMOOTH",
"2516 274 OFFCURVE",
"2557 429 OFFCURVE",
"2557 551 CURVE SMOOTH",
"2557 778 OFFCURVE",
"2359 912 OFFCURVE",
"2103 912 CURVE SMOOTH",
"2017 912 OFFCURVE",
"1944 904 OFFCURVE",
"1864 891 CURVE SMOOTH",
"1783 878 OFFCURVE",
"1686 859 OFFCURVE",
"1567 787 CURVE SMOOTH",
"1397 684 OFFCURVE",
"1299 545 OFFCURVE",
"1252 412 CURVE SMOOTH",
"1241 375 OFFCURVE",
"1380 454 OFFCURVE",
"1385 472 CURVE SMOOTH",
"1418 570 OFFCURVE",
"1483 690 OFFCURVE",
"1575 747 CURVE SMOOTH",
"1668 800 OFFCURVE",
"1858 825 OFFCURVE",
"1983 825 CURVE SMOOTH",
"2124 825 OFFCURVE",
"2225 785 OFFCURVE",
"2306 716 CURVE SMOOTH",
"2372 659 OFFCURVE",
"2420 586 OFFCURVE",
"2420 472 CURVE SMOOTH",
"2420 358 OFFCURVE",
"2375 229 OFFCURVE",
"2311 179 CURVE SMOOTH",
"2307 176 OFFCURVE",
"2299 172 OFFCURVE",
"2290 170 CURVE SMOOTH",
"2257 159 OFFCURVE",
"2181 81 OFFCURVE",
"2223 96 CURVE SMOOTH"
);
},
{
closed = 1;
nodes = (
"1984 399 OFFCURVE",
"2014 416 OFFCURVE",
"2024 424 CURVE SMOOTH",
"2035 434 OFFCURVE",
"2042 451 OFFCURVE",
"2042 469 CURVE SMOOTH",
"2042 492 OFFCURVE",
"2027 514 OFFCURVE",
"2004 514 CURVE SMOOTH",
"1961 514 OFFCURVE",
"1930 465 OFFCURVE",
"1930 427 CURVE SMOOTH",
"1930 408 OFFCURVE",
"1946 399 OFFCURVE",
"1961 399 CURVE SMOOTH"
);
}
);
width = 2613;
}
);
note = U;
unicode = 0055;
},
{
glyphname = V;
lastChange = "2020-04-06 13:17:04 +0000";
layers = (
{
anchors = (
{
name = bottom;
position = "{804, 0}";
},
{
name = top;
position = "{1104, 984}";
}
);
layerId = "BA9C892D-7698-4063-AF69-14CFA3D9CF82";
paths = (
{
closed = 1;
nodes = (
"1124 -28 OFFCURVE",
"1148 -23 OFFCURVE",
"1186 -8 CURVE SMOOTH",
"1313 43 OFFCURVE",
"1399 142 OFFCURVE",
"1468 226 CURVE SMOOTH",
"1491 254 OFFCURVE",
"1515 284 OFFCURVE",
"1534 298 CURVE SMOOTH",
"1548 310 OFFCURVE",
"1526 336 OFFCURVE",
"1511 327 CURVE SMOOTH",
"1482 307 LINE SMOOTH",
"1475 302 OFFCURVE",
"1470 303 OFFCURVE",
"1465 308 CURVE SMOOTH",
"1415 362 OFFCURVE",
"1343 411 OFFCURVE",
"1249 411 CURVE SMOOTH",
"1165 411 OFFCURVE",
"1088 376 OFFCURVE",
"1025 336 CURVE SMOOTH",
"1018 331 OFFCURVE",
"1012 333 OFFCURVE",
"1009 342 CURVE SMOOTH",
"969 495 OFFCURVE",
"949 654 OFFCURVE",
"879 785 CURVE SMOOTH",
"814 903 OFFCURVE",
"689 1008 OFFCURVE",
"510 1008 CURVE SMOOTH",
"454 1008 OFFCURVE",
"400 1000 OFFCURVE",
"312 957 CURVE SMOOTH",
"235 916 OFFCURVE",
"159 865 OFFCURVE",
"117 790 CURVE SMOOTH",
"89 744 OFFCURVE",
"79 695 OFFCURVE",
"79 645 CURVE SMOOTH",
"79 574 OFFCURVE",
"99 517 OFFCURVE",
"137 467 CURVE SMOOTH",
"208 370 OFFCURVE",
"336 307 OFFCURVE",
"493 307 CURVE SMOOTH",
"509 307 OFFCURVE",
"526 307 OFFCURVE",
"543 309 CURVE SMOOTH",
"575 315 OFFCURVE",
"682 401 OFFCURVE",
"641 397 CURVE SMOOTH",
"631 396 OFFCURVE",
"621 396 OFFCURVE",
"612 396 CURVE SMOOTH",
"555 396 OFFCURVE",
"498 410 OFFCURVE",
"442 429 CURVE SMOOTH",
"328 472 OFFCURVE",
"211 570 OFFCURVE",
"211 726 CURVE SMOOTH",
"211 792 OFFCURVE",
"246 866 OFFCURVE",
"284 899 CURVE SMOOTH",
"297 910 OFFCURVE",
"346 919 OFFCURVE",
"392 919 CURVE SMOOTH",
"560 919 OFFCURVE",
"680 812 OFFCURVE",
"743 698 CURVE SMOOTH",
"814 566 OFFCURVE",
"833 410 OFFCURVE",
"876 255 CURVE SMOOTH",
"910 129 OFFCURVE",
"960 -28 OFFCURVE",
"1101 -28 CURVE SMOOTH"
);
},
{
closed = 1;
nodes = (
"1166 61 OFFCURVE",
"1128 93 OFFCURVE",
"1100 127 CURVE SMOOTH",
"1066 167 OFFCURVE",
"1044 226 OFFCURVE",
"1029 277 CURVE SMOOTH",
"1027 283 OFFCURVE",
"1028 288 OFFCURVE",
"1033 292 CURVE SMOOTH",
"1067 320 OFFCURVE",
"1101 324 OFFCURVE",
"1148 324 CURVE SMOOTH",
"1225 324 OFFCURVE",
"1302 259 OFFCURVE",
"1352 198 CURVE SMOOTH",
"1357 193 OFFCURVE",
"1357 187 OFFCURVE",
"1352 182 CURVE",
"1316 135 OFFCURVE",
"1276 61 OFFCURVE",
"1222 61 CURVE SMOOTH"
);
}
);
width = 1607;
}
);
note = V;
unicode = 0056;
},
{
glyphname = W;
lastChange = "2020-04-06 13:16:59 +0000";
layers = (
{
anchors = (
{
name = bottom;
position = "{1073, 0}";
},
{
name = top;
position = "{1473, 984}";
}
);
layerId = "BA9C892D-7698-4063-AF69-14CFA3D9CF82";
paths = (
{
closed = 1;
nodes = (
"1057 0 OFFCURVE",
"1054 24 CURVE SMOOTH",
"1052 58 OFFCURVE",
"1050 90 OFFCURVE",
"1047 123 CURVE SMOOTH",
"1046 130 OFFCURVE",
"1048 135 OFFCURVE",
"1053 141 CURVE SMOOTH",
"1147 240 OFFCURVE",
"1243 309 OFFCURVE",
"1348 401 CURVE SMOOTH",
"1354 407 OFFCURVE",
"1361 405 OFFCURVE",
"1364 397 CURVE SMOOTH",
"1382 345 OFFCURVE",
"1398 292 OFFCURVE",
"1413 239 CURVE SMOOTH",
"1446 121 OFFCURVE",
"1482 -23 OFFCURVE",
"1634 -23 CURVE SMOOTH",
"1680 -23 OFFCURVE",
"1716 -15 OFFCURVE",
"1787 27 CURVE SMOOTH",
"1904 93 OFFCURVE",
"1941 154 OFFCURVE",
"1968 190 CURVE SMOOTH",
"1996 228 OFFCURVE",
"2026 265 OFFCURVE",
"2046 284 CURVE SMOOTH",
"2052 290 OFFCURVE",
"2072 301 OFFCURVE",
"2090 311 CURVE SMOOTH",
"2105 318 OFFCURVE",
"2092 358 OFFCURVE",
"2076 346 CURVE SMOOTH",
"2057 334 OFFCURVE",
"2038 320 OFFCURVE",
"2018 307 CURVE SMOOTH",
"2012 303 OFFCURVE",
"2006 303 OFFCURVE",
"2001 308 CURVE SMOOTH",
"1941 362 OFFCURVE",
"1862 411 OFFCURVE",
"1755 411 CURVE SMOOTH",
"1697 411 OFFCURVE",
"1631 396 OFFCURVE",
"1554 352 CURVE SMOOTH",
"1547 348 OFFCURVE",
"1541 350 OFFCURVE",
"1538 358 CURVE SMOOTH",
"1522 412 OFFCURVE",
"1506 467 OFFCURVE",
"1482 519 CURVE SMOOTH",
"1479 525 OFFCURVE",
"1480 530 OFFCURVE",
"1485 535 CURVE SMOOTH",
"1492 542 LINE SMOOTH",
"1506 556 OFFCURVE",
"1460 589 OFFCURVE",
"1448 574 CURVE SMOOTH",
"1342 448 OFFCURVE",
"1181 324 OFFCURVE",
"1053 208 CURVE SMOOTH",
"1046 201 OFFCURVE",
"1039 204 OFFCURVE",
"1038 214 CURVE SMOOTH",
"1017 423 OFFCURVE",
"973 613 OFFCURVE",
"889 769 CURVE SMOOTH",
"823 891 OFFCURVE",
"707 1002 OFFCURVE",
"522 1002 CURVE SMOOTH",
"471 1002 OFFCURVE",
"418 997 OFFCURVE",
"347 964 CURVE SMOOTH",
"210 913 OFFCURVE",
"79 795 OFFCURVE",
"79 644 CURVE SMOOTH",
"79 466 OFFCURVE",
"256 310 OFFCURVE",
"500 310 CURVE SMOOTH",
"516 310 OFFCURVE",
"537 311 OFFCURVE",
"555 314 CURVE SMOOTH",
"561 315 OFFCURVE",
"566 317 OFFCURVE",
"571 321 CURVE SMOOTH",
"655 388 LINE SMOOTH",
"664 396 OFFCURVE",
"661 402 OFFCURVE",
"650 401 CURVE SMOOTH",
"640 400 OFFCURVE",
"630 400 OFFCURVE",
"621 400 CURVE SMOOTH",
"563 400 OFFCURVE",
"501 412 OFFCURVE",
"444 432 CURVE SMOOTH",
"334 475 OFFCURVE",
"213 574 OFFCURVE",
"213 724 CURVE SMOOTH",
"213 789 OFFCURVE",
"248 861 OFFCURVE",
"284 891 CURVE SMOOTH",
"301 906 OFFCURVE",
"351 912 OFFCURVE",
"401 912 CURVE SMOOTH",
"482 912 OFFCURVE",
"549 891 OFFCURVE",
"610 849 CURVE SMOOTH",
"767 742 OFFCURVE",
"837 521 OFFCURVE",
"879 305 CURVE SMOOTH",
"898 193 OFFCURVE",
"910 75 OFFCURVE",
"918 -49 CURVE SMOOTH",
"921 -79 OFFCURVE"
);
},
{
closed = 1;
nodes = (
"1736 65 OFFCURVE",
"1708 71 OFFCURVE",
"1688 81 CURVE SMOOTH",
"1610 120 OFFCURVE",
"1579 207 OFFCURVE",
"1553 298 CURVE SMOOTH",
"1551 305 OFFCURVE",
"1554 311 OFFCURVE",
"1561 313 CURVE SMOOTH",
"1581 319 OFFCURVE",
"1609 324 OFFCURVE",
"1634 324 CURVE SMOOTH",
"1743 324 OFFCURVE",
"1827 266 OFFCURVE",
"1885 206 CURVE SMOOTH",
"1890 201 OFFCURVE",
"1890 195 OFFCURVE",
"1886 189 CURVE SMOOTH",
"1851 145 OFFCURVE",
"1806 65 OFFCURVE",
"1756 65 CURVE SMOOTH"
);
}
);
width = 2145;
}
);
note = W;
unicode = 0057;
},
{
glyphname = X;
lastChange = "2020-04-06 13:17:12 +0000";
layers = (
{
anchors = (
{
name = bottom;
position = "{796, 0}";
},
{
name = top;
position = "{896, 984}";
}
);
layerId = "BA9C892D-7698-4063-AF69-14CFA3D9CF82";
paths = (
{
closed = 1;
nodes = (
"875 -330 OFFCURVE",
"1321 -262 OFFCURVE",
"1604 -102 CURVE SMOOTH",
"1617 -95 OFFCURVE",
"1622 -51 OFFCURVE",
"1601 -61 CURVE SMOOTH",
"1469 -136 OFFCURVE",
"1094 -240 OFFCURVE",
"790 -240 CURVE SMOOTH",
"550 -240 OFFCURVE",
"312 -149 OFFCURVE",
"312 97 CURVE SMOOTH",
"312 254 OFFCURVE",
"403 351 OFFCURVE",
"491 430 CURVE SMOOTH",
"544 478 OFFCURVE",
"590 515 OFFCURVE",
"643 549 CURVE",
"649 554 OFFCURVE",
"655 552 OFFCURVE",
"659 545 CURVE SMOOTH",
"715 442 OFFCURVE",
"776 344 OFFCURVE",
"857 263 CURVE SMOOTH",
"913 207 OFFCURVE",
"978 160 OFFCURVE",
"1082 160 CURVE SMOOTH",
"1145 160 OFFCURVE",
"1245 184 OFFCURVE",
"1351 254 CURVE SMOOTH",
"1477 339 OFFCURVE",
"1529 438 OFFCURVE",
"1529 531 CURVE SMOOTH",
"1529 681 OFFCURVE",
"1391 752 OFFCURVE",
"1196 752 CURVE SMOOTH",
"1031 752 OFFCURVE",
"912 723 OFFCURVE",
"785 668 CURVE SMOOTH",
"779 665 OFFCURVE",
"773 666 OFFCURVE",
"769 673 CURVE SMOOTH",
"723 753 OFFCURVE",
"676 828 OFFCURVE",
"610 889 CURVE SMOOTH",
"553 942 OFFCURVE",
"496 979 OFFCURVE",
"392 979 CURVE SMOOTH",
"365 979 OFFCURVE",
"338 975 OFFCURVE",
"315 970 CURVE SMOOTH",
"264 957 OFFCURVE",
"212 937 OFFCURVE",
"133 871 CURVE SMOOTH",
"-15 743 OFFCURVE",
"-30 707 OFFCURVE",
"-110 562 CURVE SMOOTH",
"-134 519 OFFCURVE",
"-90 502 OFFCURVE",
"-65 542 CURVE SMOOTH",
"-10 629 OFFCURVE",
"143 872 OFFCURVE",
"307 872 CURVE SMOOTH",
"378 872 OFFCURVE",
"430 845 OFFCURVE",
"476 804 CURVE SMOOTH",
"538 748 OFFCURVE",
"586 676 OFFCURVE",
"630 599 CURVE SMOOTH",
"634 593 OFFCURVE",
"632 587 OFFCURVE",
"626 583 CURVE SMOOTH",
"541 531 OFFCURVE",
"457 463 OFFCURVE",
"394 404 CURVE SMOOTH",
"292 313 OFFCURVE",
"179 198 OFFCURVE",
"179 18 CURVE SMOOTH",
"179 -207 OFFCURVE",
"380 -330 OFFCURVE",
"673 -330 CURVE SMOOTH"
);
},
{
closed = 1;
nodes = (
"1104 249 OFFCURVE",
"1043 297 OFFCURVE",
"990 350 CURVE SMOOTH",
"913 427 OFFCURVE",
"856 516 OFFCURVE",
"802 613 CURVE SMOOTH",
"798 621 OFFCURVE",
"801 627 OFFCURVE",
"809 629 CURVE SMOOTH",
"886 653 OFFCURVE",
"979 663 OFFCURVE",
"1077 663 CURVE SMOOTH",
"1223 663 OFFCURVE",
"1392 619 OFFCURVE",
"1392 452 CURVE SMOOTH",
"1392 351 OFFCURVE",
"1322 249 OFFCURVE",
"1201 249 CURVE SMOOTH"
);
}
);
width = 1592;
}
);
note = X;
unicode = 0058;
},
{
glyphname = Y;
lastChange = "2020-04-06 13:17:21 +0000";
layers = (
{
anchors = (
{
name = bottom;
position = "{838, 0}";
},
{
name = top;
position = "{1033, 984}";
},
{
name = topleft;
position = "{20, 984}";
}
);
layerId = "BA9C892D-7698-4063-AF69-14CFA3D9CF82";
paths = (
{
closed = 1;
nodes = (
"727 -437 OFFCURVE",
"767 -423 OFFCURVE",
"813 -408 CURVE SMOOTH",
"935 -368 OFFCURVE",
"1049 -325 OFFCURVE",
"1147 -262 CURVE SMOOTH",
"1242 -204 OFFCURVE",
"1257 -153 OFFCURVE",
"1257 -58 CURVE SMOOTH",
"1257 -33 OFFCURVE",
"1254 -9 OFFCURVE",
"1250 16 CURVE SMOOTH",
"1244 53 OFFCURVE",
"1187 48 OFFCURVE",
"1195 9 CURVE SMOOTH",
"1199 -12 OFFCURVE",
"1200 -34 OFFCURVE",
"1200 -56 CURVE SMOOTH",
"1200 -135 OFFCURVE",
"1177 -185 OFFCURVE",
"1116 -226 CURVE SMOOTH",
"1055 -268 OFFCURVE",
"965 -302 OFFCURVE",
"896 -325 CURVE SMOOTH",
"862 -336 OFFCURVE",
"834 -347 OFFCURVE",
"792 -347 CURVE SMOOTH",
"716 -347 OFFCURVE",
"651 -307 OFFCURVE",
"651 -231 CURVE SMOOTH",
"651 -171 OFFCURVE",
"691 -133 OFFCURVE",
"747 -99 CURVE SMOOTH",
"873 -20 OFFCURVE",
"993 48 OFFCURVE",
"1112 142 CURVE SMOOTH",
"1156 176 OFFCURVE",
"1252 257 OFFCURVE",
"1252 312 CURVE SMOOTH",
"1252 368 OFFCURVE",
"1206 386 OFFCURVE",
"1158 386 CURVE SMOOTH",
"1117 386 OFFCURVE",
"1079 375 OFFCURVE",
"1046 370 CURVE SMOOTH",
"1017 366 OFFCURVE",
"988 360 OFFCURVE",
"959 355 CURVE SMOOTH",
"951 354 OFFCURVE",
"946 358 OFFCURVE",
"943 365 CURVE SMOOTH",
"879 540 OFFCURVE",
"740 840 OFFCURVE",
"627 935 CURVE SMOOTH",
"593 965 OFFCURVE",
"549 988 OFFCURVE",
"488 988 CURVE SMOOTH",
"407 988 OFFCURVE",
"277 948 OFFCURVE",
"206 863 CURVE SMOOTH",
"134 777 OFFCURVE",
"80 662 OFFCURVE",
"80 513 CURVE SMOOTH",
"80 269 OFFCURVE",
"214 65 OFFCURVE",
"429 20 CURVE SMOOTH",
"467 12 OFFCURVE",
"475 38 OFFCURVE",
"438 50 CURVE SMOOTH",
"261 109 OFFCURVE",
"142 267 OFFCURVE",
"142 491 CURVE SMOOTH",
"142 598 OFFCURVE",
"160 685 OFFCURVE",
"201 764 CURVE SMOOTH",
"234 827 OFFCURVE",
"287 903 OFFCURVE",
"381 903 CURVE SMOOTH",
"460 903 OFFCURVE",
"510 842 OFFCURVE",
"546 796 CURVE SMOOTH",
"623 696 OFFCURVE",
"703 529 OFFCURVE",
"758 409 CURVE SMOOTH",
"808 290 OFFCURVE",
"847 171 OFFCURVE",
"895 48 CURVE SMOOTH",
"898 41 OFFCURVE",
"896 36 OFFCURVE",
"890 32 CURVE SMOOTH",
"836 0 OFFCURVE",
"788 -27 OFFCURVE",
"728 -66 CURVE SMOOTH",
"636 -126 OFFCURVE",
"516 -209 OFFCURVE",
"516 -305 CURVE SMOOTH",
"516 -391 OFFCURVE",
"588 -437 OFFCURVE",
"674 -437 CURVE SMOOTH"
);
},
{
closed = 1;
nodes = (
"1011 190 OFFCURVE",
"993 234 OFFCURVE",
"977 278 CURVE",
"975 286 OFFCURVE",
"978 291 OFFCURVE",
"986 293 CURVE SMOOTH",
"1003 297 OFFCURVE",
"1023 300 OFFCURVE",
"1039 300 CURVE SMOOTH",
"1081 300 OFFCURVE",
"1112 277 OFFCURVE",
"1112 239 CURVE SMOOTH",
"1112 196 OFFCURVE",
"1085 177 OFFCURVE",
"1043 141 CURVE SMOOTH",
"1037 136 OFFCURVE",
"1030 137 OFFCURVE",
"1027 146 CURVE SMOOTH"
);
}
);
width = 1276;
}
);
note = Y;
unicode = 0059;
},
{
glyphname = Z;
lastChange = "2020-04-06 13:17:30 +0000";
layers = (
{
anchors = (
{
name = bottom;
position = "{541, 0}";
},
{
name = center;
position = "{541, 492}";
},
{
name = top;
position = "{641, 984}";
}
);
layerId = "BA9C892D-7698-4063-AF69-14CFA3D9CF82";
paths = (
{
closed = 1;
nodes = (
"645 -721 OFFCURVE",
"756 -631 OFFCURVE",
"813 -566 CURVE SMOOTH",
"952 -409 OFFCURVE",
"1024 -322 OFFCURVE",
"1081 -105 CURVE SMOOTH",
"1086 -88 OFFCURVE",
"1044 -72 OFFCURVE",
"1037 -91 CURVE SMOOTH",
"978 -263 OFFCURVE",
"932 -364 OFFCURVE",
"863 -446 CURVE SMOOTH",
"829 -487 OFFCURVE",
"712 -632 OFFCURVE",
"610 -632 CURVE SMOOTH",
"552 -632 OFFCURVE",
"513 -586 OFFCURVE",
"513 -523 CURVE SMOOTH",
"513 -451 OFFCURVE",
"588 -367 OFFCURVE",
"651 -300 CURVE SMOOTH",
"727 -221 OFFCURVE",
"783 -190 OFFCURVE",
"871 -110 CURVE SMOOTH",
"965 -22 OFFCURVE",
"1039 69 OFFCURVE",
"1039 163 CURVE SMOOTH",
"1039 272 OFFCURVE",
"944 310 OFFCURVE",
"849 327 CURVE SMOOTH",
"838 329 OFFCURVE",
"836 336 OFFCURVE",
"845 342 CURVE SMOOTH",
"966 426 OFFCURVE",
"1049 506 OFFCURVE",
"1155 590 CURVE SMOOTH",
"1165 597 OFFCURVE",
"1177 604 OFFCURVE",
"1186 608 CURVE SMOOTH",
"1198 614 OFFCURVE",
"1226 669 OFFCURVE",
"1196 655 CURVE SMOOTH",
"1081 603 OFFCURVE",
"899 592 OFFCURVE",
"734 592 CURVE SMOOTH",
"668 592 OFFCURVE",
"576 594 OFFCURVE",
"576 663 CURVE SMOOTH",
"576 710 OFFCURVE",
"624 732 OFFCURVE",
"691 782 CURVE SMOOTH",
"783 848 OFFCURVE",
"888 908 OFFCURVE",
"991 972 CURVE",
"1008 981 OFFCURVE",
"983 1006 OFFCURVE",
"970 997 CURVE SMOOTH",
"859 928 OFFCURVE",
"743 867 OFFCURVE",
"632 785 CURVE SMOOTH",
"574 745 OFFCURVE",
"439 660 OFFCURVE",
"439 589 CURVE SMOOTH",
"439 508 OFFCURVE",
"533 503 OFFCURVE",
"613 503 CURVE SMOOTH",
"756 503 OFFCURVE",
"886 511 OFFCURVE",
"1007 541 CURVE SMOOTH",
"1019 544 OFFCURVE",
"1023 536 OFFCURVE",
"1014 528 CURVE SMOOTH",
"937 465 OFFCURVE",
"854 391 OFFCURVE",
"783 341 CURVE SMOOTH",
"777 337 OFFCURVE",
"772 335 OFFCURVE",
"765 336 CURVE SMOOTH",
"727 340 OFFCURVE",
"690 343 OFFCURVE",
"650 343 CURVE SMOOTH",
"523 343 OFFCURVE",
"360 307 OFFCURVE",
"236 248 CURVE SMOOTH",
"170 218 OFFCURVE",
"63 148 OFFCURVE",
"63 88 CURVE SMOOTH",
"63 45 OFFCURVE",
"116 20 OFFCURVE",
"164 20 CURVE SMOOTH",
"385 20 OFFCURVE",
"555 141 OFFCURVE",
"689 234 CURVE SMOOTH",
"695 238 OFFCURVE",
"700 239 OFFCURVE",
"707 238 CURVE SMOOTH",
"801 223 OFFCURVE",
"903 190 OFFCURVE",
"903 84 CURVE SMOOTH",
"903 16 OFFCURVE",
"834 -85 OFFCURVE",
"772 -141 CURVE SMOOTH",
"744 -168 OFFCURVE",
"709 -191 OFFCURVE",
"663 -229 CURVE SMOOTH",
"578 -299 OFFCURVE",
"467 -404 OFFCURVE",
"409 -503 CURVE SMOOTH",
"391 -536 OFFCURVE",
"378 -564 OFFCURVE",
"378 -602 CURVE SMOOTH",
"378 -673 OFFCURVE",
"431 -721 OFFCURVE",
"503 -721 CURVE SMOOTH"
);
},
{
closed = 1;
nodes = (
"242 112 OFFCURVE",
"201 124 OFFCURVE",
"201 157 CURVE SMOOTH",
"201 180 OFFCURVE",
"284 217 OFFCURVE",
"320 226 CURVE SMOOTH",
"385 242 OFFCURVE",
"459 254 OFFCURVE",
"530 254 CURVE SMOOTH",
"563 254 OFFCURVE",
"592 253 OFFCURVE",
"621 250 CURVE SMOOTH",
"632 249 OFFCURVE",
"634 241 OFFCURVE",
"625 234 CURVE SMOOTH",
"590 209 OFFCURVE",
"566 192 OFFCURVE",
"549 183 CURVE SMOOTH",
"484 145 OFFCURVE",
"393 112 OFFCURVE",
"284 112 CURVE SMOOTH"
);
}
);
width = 1081;
}
);
note = Z;
unicode = 005A;
},
{
glyphname = a;
lastChange = "2020-03-15 02:40:25 +0000";
layers = (
{
anchors = (
{
name = bottom;
position = "{336, 0}";
},
{
name = ogonek;
position = "{497, 10}";
},
{
name = top;
position = "{336, 400}";
}
);
layerId = "BA9C892D-7698-4063-AF69-14CFA3D9CF82";
paths = (
{
closed = 1;
nodes = (
"423 256 OFFCURVE",
"439 294 OFFCURVE",
"484 352 CURVE SMOOTH",
"486 355 OFFCURVE",
"488 359 OFFCURVE",
"488 363 CURVE SMOOTH",
"488 368 OFFCURVE",
"486 373 OFFCURVE",
"483 376 CURVE SMOOTH",
"465 395 OFFCURVE",
"415 406 OFFCURVE",
"385 406 CURVE SMOOTH",
"219 406 OFFCURVE",
"19 307 OFFCURVE",
"19 145 CURVE SMOOTH",
"19 48 OFFCURVE",
"66 0 OFFCURVE",
"163 0 CURVE SMOOTH",
"210 0 OFFCURVE",
"244 0 OFFCURVE",
"279 26 CURVE",
"284 31 OFFCURVE",
"289 30 OFFCURVE",
"294 25 CURVE SMOOTH",
"331 -16 OFFCURVE",
"399 -63 OFFCURVE",
"446 -63 CURVE SMOOTH",
"494 -63 OFFCURVE",
"534 -32 OFFCURVE",
"573 14 CURVE SMOOTH",
"577 19 OFFCURVE",
"580 24 OFFCURVE",
"580 29 CURVE SMOOTH",
"580 34 OFFCURVE",
"577 38 OFFCURVE",
"571 39 CURVE SMOOTH",
"468 58 OFFCURVE",
"423 102 OFFCURVE",
"423 218 CURVE SMOOTH"
);
},
{
closed = 1;
nodes = (
"133 251 OFFCURVE",
"238 295 OFFCURVE",
"340 301 CURVE SMOOTH",
"352 302 OFFCURVE",
"358 297 OFFCURVE",
"354 289 CURVE SMOOTH",
"320 210 OFFCURVE",
"295 144 OFFCURVE",
"290 97 CURVE SMOOTH",
"289 90 OFFCURVE",
"285 86 OFFCURVE",
"278 86 CURVE SMOOTH",
"184 90 OFFCURVE",
"133 125 OFFCURVE",
"133 179 CURVE SMOOTH"
);
}
);
width = 552;
}
);
note = a;
unicode = 0061;
},
{
glyphname = ae;
lastChange = "2020-03-16 02:34:22 +0000";
layers = (
{
anchors = (
{
name = bottom;
position = "{354, 0}";
},
{
name = top;
position = "{354, 440}";
}
);
layerId = "BA9C892D-7698-4063-AF69-14CFA3D9CF82";
paths = (
{
closed = 1;
nodes = (
"510 -61 OFFCURVE",
"541 -41 OFFCURVE",
"574 -20 CURVE SMOOTH",
"602 -2 OFFCURVE",
"654 46 OFFCURVE",
"688 82 CURVE",
"681 97 LINE",
"637 79 OFFCURVE",
"577 51 OFFCURVE",
"533 51 CURVE SMOOTH",
"505 51 OFFCURVE",
"471 79 OFFCURVE",
"461 91 CURVE SMOOTH",
"433 124 OFFCURVE",
"424 167 OFFCURVE",
"424 217 CURVE SMOOTH",
"424 252 OFFCURVE",
"432 280 OFFCURVE",
"446 300 CURVE SMOOTH",
"451 307 OFFCURVE",
"458 306 OFFCURVE",
"463 300 CURVE SMOOTH",
"505 251 OFFCURVE",
"572 226 OFFCURVE",
"632 226 CURVE SMOOTH",
"712 226 OFFCURVE",
"775 263 OFFCURVE",
"823 297 CURVE",
"815 307 LINE",
"795 303 OFFCURVE",
"772 297 OFFCURVE",
"739 297 CURVE SMOOTH",
"706 297 OFFCURVE",
"680 297 OFFCURVE",
"630 320 CURVE SMOOTH",
"596 335 OFFCURVE",
"556 376 OFFCURVE",
"556 389 CURVE SMOOTH",
"556 430 OFFCURVE",
"589 490 OFFCURVE",
"630 490 CURVE SMOOTH",
"649 490 OFFCURVE",
"662 480 OFFCURVE",
"681 480 CURVE SMOOTH",
"689 480 OFFCURVE",
"697 483 OFFCURVE",
"697 491 CURVE SMOOTH",
"697 508 OFFCURVE",
"649 526 OFFCURVE",
"632 526 CURVE SMOOTH",
"576 526 OFFCURVE",
"543 497 OFFCURVE",
"523 477 CURVE SMOOTH",
"512 466 OFFCURVE",
"483 436 OFFCURVE",
"467 400 CURVE SMOOTH",
"463 393 OFFCURVE",
"458 391 OFFCURVE",
"451 394 CURVE SMOOTH",
"429 402 OFFCURVE",
"402 406 OFFCURVE",
"385 406 CURVE SMOOTH",
"290 406 OFFCURVE",
"218 380 OFFCURVE",
"155 347 CURVE SMOOTH",
"106 321 OFFCURVE",
"19 240 OFFCURVE",
"19 145 CURVE SMOOTH",
"19 48 OFFCURVE",
"66 0 OFFCURVE",
"163 0 CURVE SMOOTH",
"210 0 OFFCURVE",
"243 0 OFFCURVE",
"278 26 CURVE SMOOTH",
"284 31 OFFCURVE",
"290 31 OFFCURVE",
"295 25 CURVE SMOOTH",
"323 -5 OFFCURVE",
"388 -61 OFFCURVE",
"444 -61 CURVE SMOOTH"
);
},
{
closed = 1;
nodes = (
"189 89 OFFCURVE",
"132 126 OFFCURVE",
"132 179 CURVE SMOOTH",
"132 259 OFFCURVE",
"249 293 OFFCURVE",
"343 297 CURVE SMOOTH",
"352 297 OFFCURVE",
"356 291 OFFCURVE",
"352 283 CURVE SMOOTH",
"330 230 OFFCURVE",
"295 150 OFFCURVE",
"291 98 CURVE SMOOTH",
"290 90 OFFCURVE",
"286 86 OFFCURVE",
"278 86 CURVE SMOOTH"
);
}
);
width = 708;
}
);
note = ae;
unicode = 00E6;
},
{
glyphname = b;
lastChange = "2020-04-05 20:52:26 +0000";
layers = (
{
anchors = (
{
name = bottom;
position = "{259, 0}";
},
{
name = top;
position = "{259, 872}";
}
);
layerId = "BA9C892D-7698-4063-AF69-14CFA3D9CF82";
paths = (
{
closed = 1;
nodes = (
"77 -14 OFFCURVE",
"129 3 OFFCURVE",
"157 25 CURVE SMOOTH",
"162 29 OFFCURVE",
"166 29 OFFCURVE",
"172 26 CURVE SMOOTH",
"194 14 OFFCURVE",
"229 3 OFFCURVE",
"261 3 CURVE SMOOTH",
"345 3 OFFCURVE",
"487 64 OFFCURVE",
"487 155 CURVE SMOOTH",
"487 252 OFFCURVE",
"368 294 OFFCURVE",
"286 294 CURVE SMOOTH",
"275 294 OFFCURVE",
"259 293 OFFCURVE",
"242 290 CURVE SMOOTH",
"234 289 OFFCURVE",
"230 293 OFFCURVE",
"231 301 CURVE SMOOTH",
"244 384 OFFCURVE",
"278 591 OFFCURVE",
"307 651 CURVE SMOOTH",
"359 757 OFFCURVE",
"404 781 OFFCURVE",
"503 781 CURVE SMOOTH",
"566 781 OFFCURVE",
"606 729 OFFCURVE",
"606 687 CURVE SMOOTH",
"606 622 OFFCURVE",
"512 538 OFFCURVE",
"459 494 CURVE SMOOTH",
"428 468 OFFCURVE",
"434 454 OFFCURVE",
"468 477 CURVE SMOOTH",
"554 535 OFFCURVE",
"703 644 OFFCURVE",
"703 739 CURVE SMOOTH",
"703 823 OFFCURVE",
"610 872 OFFCURVE",
"529 872 CURVE SMOOTH",
"376 872 OFFCURVE",
"251 732 OFFCURVE",
"185 601 CURVE SMOOTH",
"145 522 OFFCURVE",
"124 416 OFFCURVE",
"101 262 CURVE SMOOTH",
"99 255 OFFCURVE",
"96 252 OFFCURVE",
"89 251 CURVE SMOOTH",
"85 250 OFFCURVE",
"81 249 OFFCURVE",
"77 246 CURVE SMOOTH",
"66 238 OFFCURVE",
"31 208 OFFCURVE",
"31 196 CURVE SMOOTH",
"31 184 OFFCURVE",
"48 165 OFFCURVE",
"65 148 CURVE SMOOTH",
"70 144 OFFCURVE",
"71 139 OFFCURVE",
"69 133 CURVE SMOOTH",
"58 98 OFFCURVE",
"45 66 OFFCURVE",
"31 47 CURVE SMOOTH",
"24 37 OFFCURVE",
"16 24 OFFCURVE",
"16 12 CURVE SMOOTH",
"16 -2 OFFCURVE",
"28 -14 OFFCURVE",
"50 -14 CURVE SMOOTH"
);
},
{
closed = 1;
nodes = (
"282 88 OFFCURVE",
"232 116 OFFCURVE",
"203 136 CURVE SMOOTH",
"198 139 OFFCURVE",
"197 144 OFFCURVE",
"198 150 CURVE SMOOTH",
"203 167 OFFCURVE",
"209 190 OFFCURVE",
"214 212 CURVE SMOOTH",
"215 218 OFFCURVE",
"218 221 OFFCURVE",
"224 223 CURVE SMOOTH",
"242 230 OFFCURVE",
"261 232 OFFCURVE",
"279 232 CURVE SMOOTH",
"322 232 OFFCURVE",
"371 198 OFFCURVE",
"371 147 CURVE SMOOTH",
"371 102 OFFCURVE",
"351 88 OFFCURVE",
"322 88 CURVE SMOOTH"
);
}
);
width = 518;
}
);
note = b;
rightKerningGroup = b;
unicode = 0062;
},
{
glyphname = c;
lastChange = "2020-03-14 20:12:59 +0000";
layers = (
{
anchors = (
{
name = bottom;
position = "{229, 0}";
},
{
name = top;
position = "{229, 400}";
}
);
layerId = "BA9C892D-7698-4063-AF69-14CFA3D9CF82";
paths = (
{
closed = 1;
nodes = (
"216 -10 OFFCURVE",
"244 14 OFFCURVE",
"244 56 CURVE SMOOTH",
"244 88 OFFCURVE",
"232 97 OFFCURVE",
"232 122 CURVE SMOOTH",
"232 172 OFFCURVE",
"258 256 OFFCURVE",
"267 267 CURVE SMOOTH",
"300 305 OFFCURVE",
"352 307 OFFCURVE",
"419 307 CURVE SMOOTH",
"447 307 OFFCURVE",
"474 310 OFFCURVE",
"485 315 CURVE",
"490 318 OFFCURVE",
"507 342 OFFCURVE",
"507 353 CURVE SMOOTH",
"507 357 OFFCURVE",
"505 358 OFFCURVE",
"495 358 CURVE SMOOTH",
"350 361 OFFCURVE",
"317 362 OFFCURVE",
"217 376 CURVE SMOOTH",
"193 379 OFFCURVE",
"171 381 OFFCURVE",
"152 381 CURVE SMOOTH",
"119 381 OFFCURVE",
"97 373 OFFCURVE",
"79 361 CURVE SMOOTH",
"52 343 OFFCURVE",
"52 324 OFFCURVE",
"41 290 CURVE SMOOTH",
"36 275 OFFCURVE",
"30 266 OFFCURVE",
"30 251 CURVE SMOOTH",
"30 224 OFFCURVE",
"50 220 OFFCURVE",
"65 217 CURVE SMOOTH",
"98 211 OFFCURVE",
"114 195 OFFCURVE",
"114 165 CURVE SMOOTH",
"114 147 OFFCURVE",
"112 125 OFFCURVE",
"112 94 CURVE SMOOTH",
"112 55 OFFCURVE",
"121 -10 OFFCURVE",
"183 -10 CURVE SMOOTH"
);
}
);
width = 458;
}
);
note = c;
rightKerningGroup = c;
unicode = 0063;
},
{
glyphname = d;
lastChange = "2020-04-05 20:53:55 +0000";
layers = (
{
anchors = (
{
name = bottom;
position = "{293, 0}";
},
{
name = center;
position = "{293, 200}";
},
{
name = top;
position = "{293, 876}";
},
{
name = topright;
position = "{565, 400}";
}
);
layerId = "BA9C892D-7698-4063-AF69-14CFA3D9CF82";
paths = (
{
closed = 1;
nodes = (
"413 -13 OFFCURVE",
"575 178 OFFCURVE",
"575 396 CURVE SMOOTH",
"575 529 OFFCURVE",
"500 619 OFFCURVE",
"429 690 CURVE SMOOTH",
"331 788 OFFCURVE",
"218 876 OFFCURVE",
"88 876 CURVE SMOOTH",
"-6 876 OFFCURVE",
"-91 789 OFFCURVE",
"-91 690 CURVE SMOOTH",
"-91 506 OFFCURVE",
"286 300 OFFCURVE",
"430 300 CURVE SMOOTH",
"441 300 OFFCURVE",
"456 301 OFFCURVE",
"470 303 CURVE SMOOTH",
"478 304 OFFCURVE",
"483 299 OFFCURVE",
"481 291 CURVE SMOOTH",
"463 197 OFFCURVE",
"402 91 OFFCURVE",
"297 91 CURVE SMOOTH",
"243 91 OFFCURVE",
"201 114 OFFCURVE",
"177 152 CURVE SMOOTH",
"155 187 OFFCURVE",
"142 206 OFFCURVE",
"119 206 CURVE SMOOTH",
"97 206 OFFCURVE",
"50 179 OFFCURVE",
"50 147 CURVE SMOOTH",
"50 68 OFFCURVE",
"106 -13 OFFCURVE",
"202 -13 CURVE SMOOTH"
);
},
{
closed = 1;
nodes = (
"319 428 OFFCURVE",
"46 615 OFFCURVE",
"46 742 CURVE SMOOTH",
"46 770 OFFCURVE",
"61 785 OFFCURVE",
"81 785 CURVE SMOOTH",
"139 785 OFFCURVE",
"255 705 OFFCURVE",
"318 653 CURVE SMOOTH",
"394 591 OFFCURVE",
"478 521 OFFCURVE",
"487 396 CURVE SMOOTH",
"488 387 OFFCURVE",
"483 382 OFFCURVE",
"474 385 CURVE SMOOTH"
);
}
);
width = 585;
}
);
note = d;
rightKerningGroup = d;
unicode = 0064;
},
{
glyphname = eth;
lastChange = "2020-04-05 20:54:32 +0000";
layers = (
{
anchors = (
{
name = bottom;
position = "{283, 0}";
},
{
name = center;
position = "{283, 200}";
},
{
name = top;
position = "{283, 945}";
},
{
name = topright;
position = "{555, 400}";
}
);
layerId = "BA9C892D-7698-4063-AF69-14CFA3D9CF82";
paths = (
{
closed = 1;
nodes = (
"422 845 OFFCURVE",
"498 889 OFFCURVE",
"559 919 CURVE SMOOTH",
"594 936 OFFCURVE",
"572 992 OFFCURVE",
"536 975 CURVE SMOOTH",
"468 942 OFFCURVE",
"378 889 OFFCURVE",
"290 818 CURVE SMOOTH",
"285 814 OFFCURVE",
"279 814 OFFCURVE",
"273 817 CURVE SMOOTH",
"221 849 OFFCURVE",
"176 876 OFFCURVE",
"88 876 CURVE SMOOTH",
"-6 876 OFFCURVE",
"-91 789 OFFCURVE",
"-91 690 CURVE SMOOTH",
"-91 632 OFFCURVE",
"-54 574 OFFCURVE",
"-2 522 CURVE SMOOTH",
"3 516 OFFCURVE",
"4 511 OFFCURVE",
"0 505 CURVE SMOOTH",
"-23 470 OFFCURVE",
"-44 433 OFFCURVE",
"-66 389 CURVE SMOOTH",
"-92 337 OFFCURVE",
"-14 330 OFFCURVE",
"2 362 CURVE SMOOTH",
"20 399 OFFCURVE",
"36 430 OFFCURVE",
"52 458 CURVE SMOOTH",
"56 465 OFFCURVE",
"62 466 OFFCURVE",
"68 461 CURVE SMOOTH",
"122 420 OFFCURVE",
"180 385 OFFCURVE",
"229 361 CURVE SMOOTH",
"293 329 OFFCURVE",
"354 300 OFFCURVE",
"430 300 CURVE SMOOTH",
"441 300 OFFCURVE",
"456 301 OFFCURVE",
"470 303 CURVE SMOOTH",
"478 304 OFFCURVE",
"483 299 OFFCURVE",
"481 291 CURVE SMOOTH",
"463 197 OFFCURVE",
"402 91 OFFCURVE",
"297 91 CURVE SMOOTH",
"243 91 OFFCURVE",
"201 114 OFFCURVE",
"177 152 CURVE SMOOTH",
"155 187 OFFCURVE",
"142 206 OFFCURVE",
"119 206 CURVE SMOOTH",
"106 206 OFFCURVE",
"79 193 OFFCURVE",
"66 180 CURVE SMOOTH",
"56 170 OFFCURVE",
"50 162 OFFCURVE",
"50 147 CURVE SMOOTH",
"50 115 OFFCURVE",
"63 72 OFFCURVE",
"84 44 CURVE SMOOTH",
"111 9 OFFCURVE",
"152 -13 OFFCURVE",
"202 -13 CURVE SMOOTH",
"290 -13 OFFCURVE",
"372 27 OFFCURVE",
"429 69 CURVE SMOOTH",
"477 105 OFFCURVE",
"510 159 OFFCURVE",
"533 217 CURVE SMOOTH",
"556 274 OFFCURVE",
"575 325 OFFCURVE",
"575 396 CURVE SMOOTH",
"575 529 OFFCURVE",
"500 619 OFFCURVE",
"429 690 CURVE SMOOTH",
"403 716 OFFCURVE",
"374 742 OFFCURVE",
"344 767 CURVE SMOOTH",
"337 772 OFFCURVE",
"337 778 OFFCURVE",
"344 784 CURVE SMOOTH"
);
},
{
closed = 1;
nodes = (
"65 665 OFFCURVE",
"46 708 OFFCURVE",
"46 742 CURVE SMOOTH",
"46 770 OFFCURVE",
"61 785 OFFCURVE",
"81 785 CURVE SMOOTH",
"115 785 OFFCURVE",
"141 771 OFFCURVE",
"164 757 CURVE SMOOTH",
"185 744 LINE SMOOTH",
"193 739 OFFCURVE",
"194 733 OFFCURVE",
"188 727 CURVE SMOOTH",
"167 706 LINE SMOOTH",
"144 682 OFFCURVE",
"125 660 OFFCURVE",
"106 640 CURVE SMOOTH",
"101 634 OFFCURVE",
"95 634 OFFCURVE",
"89 639 CURVE"
);
},
{
closed = 1;
nodes = (
"180 550 OFFCURVE",
"166 564 OFFCURVE",
"152 577 CURVE SMOOTH",
"147 582 OFFCURVE",
"146 588 OFFCURVE",
"151 594 CURVE SMOOTH",
"171 617 OFFCURVE",
"194 642 OFFCURVE",
"221 670 CURVE SMOOTH",
"229 678 OFFCURVE",
"237 686 OFFCURVE",
"244 694 CURVE",
"250 699 OFFCURVE",
"255 700 OFFCURVE",
"261 696 CURVE SMOOTH",
"280 683 OFFCURVE",
"299 669 OFFCURVE",
"318 653 CURVE SMOOTH",
"394 590 OFFCURVE",
"478 521 OFFCURVE",
"487 396 CURVE SMOOTH",
"488 387 OFFCURVE",
"483 382 OFFCURVE",
"474 385 CURVE SMOOTH",
"379 411 OFFCURVE",
"254 486 OFFCURVE",
"194 538 CURVE SMOOTH"
);
}
);
width = 585;
}
);
note = eth;
unicode = 00F0;
},
{
glyphname = e;
lastChange = "2020-04-05 20:54:48 +0000";
layers = (
{
anchors = (
{
name = bottom;
position = "{225, 0}";
},
{
name = ogonek;
position = "{405, 10}";
},
{
name = top;
position = "{285, 516}";
}
);
layerId = "BA9C892D-7698-4063-AF69-14CFA3D9CF82";
paths = (
{
closed = 1;
nodes = (
"185 -3 OFFCURVE",
"204 13 OFFCURVE",
"239 33 CURVE SMOOTH",
"284 58 OFFCURVE",
"325 75 OFFCURVE",
"373 91 CURVE SMOOTH",
"394 98 OFFCURVE",
"396 107 OFFCURVE",
"373 107 CURVE SMOOTH",
"315 107 OFFCURVE",
"279 94 OFFCURVE",
"229 94 CURVE SMOOTH",
"171 94 OFFCURVE",
"142 132 OFFCURVE",
"142 183 CURVE SMOOTH",
"142 236 OFFCURVE",
"169 278 OFFCURVE",
"186 301 CURVE SMOOTH",
"191 308 OFFCURVE",
"197 308 OFFCURVE",
"202 301 CURVE SMOOTH",
"246 249 OFFCURVE",
"307 226 OFFCURVE",
"373 226 CURVE SMOOTH",
"444 226 OFFCURVE",
"500 255 OFFCURVE",
"545 284 CURVE SMOOTH",
"553 289 OFFCURVE",
"556 294 OFFCURVE",
"556 298 CURVE SMOOTH",
"556 303 OFFCURVE",
"550 305 OFFCURVE",
"539 303 CURVE SMOOTH",
"522 300 OFFCURVE",
"504 297 OFFCURVE",
"480 297 CURVE SMOOTH",
"447 297 OFFCURVE",
"421 299 OFFCURVE",
"370 320 CURVE SMOOTH",
"336 334 OFFCURVE",
"297 376 OFFCURVE",
"297 389 CURVE SMOOTH",
"297 427 OFFCURVE",
"322 490 OFFCURVE",
"370 490 CURVE SMOOTH",
"378 490 OFFCURVE",
"390 489 OFFCURVE",
"401 484 CURVE SMOOTH",
"406 482 OFFCURVE",
"411 480 OFFCURVE",
"419 480 CURVE SMOOTH",
"427 480 OFFCURVE",
"438 483 OFFCURVE",
"438 491 CURVE SMOOTH",
"438 506 OFFCURVE",
"392 526 OFFCURVE",
"373 526 CURVE SMOOTH",
"317 526 OFFCURVE",
"284 496 OFFCURVE",
"263 477 CURVE SMOOTH",
"246 462 OFFCURVE",
"210 411 OFFCURVE",
"196 363 CURVE",
"195 357 OFFCURVE",
"191 353 OFFCURVE",
"185 352 CURVE",
"107 329 OFFCURVE",
"19 240 OFFCURVE",
"19 145 CURVE SMOOTH",
"19 77 OFFCURVE",
"98 -3 OFFCURVE",
"157 -3 CURVE SMOOTH"
);
}
);
width = 450;
}
);
note = e;
unicode = 0065;
},
{
glyphname = eogonek;
lastChange = "2020-03-14 20:17:16 +0000";
layers = (
{
anchors = (
{
name = top;
position = "{255, 506}";
}
);
layerId = "BA9C892D-7698-4063-AF69-14CFA3D9CF82";
paths = (
{
closed = 1;
nodes = (
"445 -267 OFFCURVE",
"539 -212 OFFCURVE",
"592 -160 CURVE SMOOTH",
"607 -146 OFFCURVE",
"603 -139 OFFCURVE",
"587 -147 CURVE SMOOTH",
"555 -163 OFFCURVE",
"520 -180 OFFCURVE",
"480 -180 CURVE SMOOTH",
"389 -180 OFFCURVE",
"297 -118 OFFCURVE",
"297 -27 CURVE SMOOTH",
"297 15 OFFCURVE",
"324 53 OFFCURVE",
"347 72 CURVE SMOOTH",
"359 82 OFFCURVE",
"379 90 OFFCURVE",
"400 97 CURVE SMOOTH",
"408 100 OFFCURVE",
"409 106 OFFCURVE",
"400 106 CURVE SMOOTH",
"392 106 OFFCURVE",
"383 107 OFFCURVE",
"373 107 CURVE SMOOTH",
"317 107 OFFCURVE",
"279 94 OFFCURVE",
"229 94 CURVE SMOOTH",
"171 94 OFFCURVE",
"142 132 OFFCURVE",
"142 183 CURVE SMOOTH",
"142 238 OFFCURVE",
"170 280 OFFCURVE",
"187 303 CURVE SMOOTH",
"191 309 OFFCURVE",
"197 309 OFFCURVE",
"201 303 CURVE",
"245 250 OFFCURVE",
"308 226 OFFCURVE",
"373 226 CURVE SMOOTH",
"453 226 OFFCURVE",
"513 263 OFFCURVE",
"561 297 CURVE SMOOTH",
"575 307 OFFCURVE",
"574 311 OFFCURVE",
"556 307 CURVE SMOOTH",
"536 303 OFFCURVE",
"513 297 OFFCURVE",
"480 297 CURVE SMOOTH",
"380 297 OFFCURVE",
"297 338 OFFCURVE",
"297 389 CURVE SMOOTH",
"297 432 OFFCURVE",
"326 490 OFFCURVE",
"370 490 CURVE SMOOTH",
"388 490 OFFCURVE",
"404 480 OFFCURVE",
"419 480 CURVE SMOOTH",
"427 480 OFFCURVE",
"438 483 OFFCURVE",
"438 491 CURVE SMOOTH",
"438 508 OFFCURVE",
"392 526 OFFCURVE",
"373 526 CURVE SMOOTH",
"285 526 OFFCURVE",
"217 442 OFFCURVE",
"196 363 CURVE SMOOTH",
"195 357 OFFCURVE",
"191 353 OFFCURVE",
"185 352 CURVE SMOOTH",
"106 328 OFFCURVE",
"19 239 OFFCURVE",
"19 145 CURVE SMOOTH",
"19 94 OFFCURVE",
"54 56 OFFCURVE",
"69 41 CURVE SMOOTH",
"82 28 OFFCURVE",
"116 -3 OFFCURVE",
"157 -3 CURVE SMOOTH",
"172 -3 OFFCURVE",
"183 0 OFFCURVE",
"196 7 CURVE SMOOTH",
"206 12 OFFCURVE",
"214 11 OFFCURVE",
"203 -2 CURVE SMOOTH",
"184 -26 OFFCURVE",
"165 -60 OFFCURVE",
"165 -103 CURVE SMOOTH",
"165 -175 OFFCURVE",
"241 -267 OFFCURVE",
"363 -267 CURVE SMOOTH"
);
}
);
width = 450;
}
);
note = eogonek;
unicode = 0119;
},
{
glyphname = et;
lastChange = "2020-03-14 20:17:37 +0000";
layers = (
{
layerId = "BA9C892D-7698-4063-AF69-14CFA3D9CF82";
paths = (
{
closed = 1;
nodes = (
"209 -69 OFFCURVE",
"279 -19 OFFCURVE",
"279 44 CURVE SMOOTH",
"279 82 OFFCURVE",
"250 99 OFFCURVE",
"216 106 CURVE SMOOTH",
"209 107 OFFCURVE",
"208 111 OFFCURVE",
"213 116 CURVE SMOOTH",
"255 147 OFFCURVE",
"292 186 OFFCURVE",
"292 230 CURVE SMOOTH",
"292 286 OFFCURVE",
"242 310 OFFCURVE",
"175 310 CURVE SMOOTH",
"137 310 OFFCURVE",
"94 303 OFFCURVE",
"51 289 CURVE SMOOTH",
"32 283 OFFCURVE",
"39 232 OFFCURVE",
"58 234 CURVE SMOOTH",
"83 237 OFFCURVE",
"104 238 OFFCURVE",
"121 238 CURVE SMOOTH",
"200 238 OFFCURVE",
"217 211 OFFCURVE",
"217 186 CURVE SMOOTH",
"217 161 OFFCURVE",
"190 136 OFFCURVE",
"151 111 CURVE",
"111 111 OFFCURVE",
"61 82 OFFCURVE",
"28 50 CURVE SMOOTH",
"16 39 OFFCURVE",
"46 12 OFFCURVE",
"60 23 CURVE SMOOTH",
"89 45 OFFCURVE",
"102 47 OFFCURVE",
"132 47 CURVE SMOOTH",
"169 47 OFFCURVE",
"186 19 OFFCURVE",
"186 -3 CURVE SMOOTH",
"186 -25 OFFCURVE",
"169 -61 OFFCURVE",
"117 -85 CURVE SMOOTH",
"102 -92 OFFCURVE",
"113 -109 OFFCURVE",
"128 -103 CURVE SMOOTH"
);
}
);
width = 291;
}
);
rightMetricsKey = o;
unicode = A76B;
},
{
glyphname = f;
lastChange = "2020-04-05 20:55:23 +0000";
layers = (
{
anchors = (
{
name = bottom;
position = "{301, 0}";
},
{
name = top;
position = "{791, 1089}";
}
);
layerId = "BA9C892D-7698-4063-AF69-14CFA3D9CF82";
paths = (
{
closed = 1;
nodes = (
"98 -619 OFFCURVE",
"131 -485 OFFCURVE",
"171 -305 CURVE SMOOTH",
"203 -157 OFFCURVE",
"248 -17 OFFCURVE",
"296 129 CURVE SMOOTH",
"298 136 OFFCURVE",
"302 139 OFFCURVE",
"310 139 CURVE SMOOTH",
"364 138 OFFCURVE",
"407 140 OFFCURVE",
"437 147 CURVE SMOOTH",
"485 158 OFFCURVE",
"524 190 OFFCURVE",
"574 198 CURVE",
"579 216 LINE",
"566 226 OFFCURVE",
"546 234 OFFCURVE",
"526 234 CURVE SMOOTH",
"503 234 OFFCURVE",
"480 226 OFFCURVE",
"460 226 CURVE SMOOTH",
"428 226 OFFCURVE",
"378 230 OFFCURVE",
"344 242 CURVE SMOOTH",
"337 244 OFFCURVE",
"334 250 OFFCURVE",
"337 257 CURVE SMOOTH",
"344 279 OFFCURVE",
"356 313 OFFCURVE",
"363 332 CURVE SMOOTH",
"365 338 OFFCURVE",
"368 341 OFFCURVE",
"373 344 CURVE SMOOTH",
"507 429 OFFCURVE",
"688 548 OFFCURVE",
"800 686 CURVE SMOOTH",
"859 759 OFFCURVE",
"947 871 OFFCURVE",
"947 968 CURVE SMOOTH",
"947 1034 OFFCURVE",
"902 1089 OFFCURVE",
"836 1089 CURVE SMOOTH",
"739 1089 OFFCURVE",
"637 1027 OFFCURVE",
"574 942 CURVE SMOOTH",
"475 807 OFFCURVE",
"380 635 OFFCURVE",
"316 465 CURVE SMOOTH",
"292 401 OFFCURVE",
"263 324 OFFCURVE",
"213 277 CURVE SMOOTH",
"138 207 OFFCURVE",
"41 242 OFFCURVE",
"-13 145 CURVE",
"0 117 LINE",
"20 130 OFFCURVE",
"108 152 OFFCURVE",
"164 152 CURVE SMOOTH",
"169 152 OFFCURVE",
"174 152 OFFCURVE",
"179 151 CURVE SMOOTH",
"186 150 OFFCURVE",
"189 145 OFFCURVE",
"188 137 CURVE SMOOTH",
"176 38 OFFCURVE",
"99 -210 OFFCURVE",
"84 -309 CURVE SMOOTH",
"61 -457 OFFCURVE",
"27 -619 OFFCURVE",
"4 -757 CURVE SMOOTH",
"-2 -791 OFFCURVE",
"17 -792 OFFCURVE",
"31 -762 CURVE SMOOTH"
);
},
{
closed = 1;
nodes = (
"411 437 OFFCURVE",
"404 442 OFFCURVE",
"408 453 CURVE SMOOTH",
"449 558 OFFCURVE",
"558 783 OFFCURVE",
"615 889 CURVE SMOOTH",
"643 940 OFFCURVE",
"688 1021 OFFCURVE",
"759 1021 CURVE SMOOTH",
"809 1021 OFFCURVE",
"842 970 OFFCURVE",
"842 919 CURVE SMOOTH",
"842 848 OFFCURVE",
"797 772 OFFCURVE",
"757 716 CURVE SMOOTH",
"682 611 OFFCURVE",
"537 515 OFFCURVE",
"421 443 CURVE SMOOTH"
);
}
);
width = 601;
}
);
note = f;
rightKerningGroup = f;
unicode = 0066;
},
{
glyphname = g;
lastChange = "2020-04-05 20:55:27 +0000";
layers = (
{
anchors = (
{
name = bottom;
position = "{273, -810}";
},
{
name = top;
position = "{273, 400}";
}
);
layerId = "BA9C892D-7698-4063-AF69-14CFA3D9CF82";
paths = (
{
closed = 1;
nodes = (
"-602 -452 OFFCURVE",
"-558 -424 OFFCURVE",
"-523 -401 CURVE SMOOTH",
"-515 -395 OFFCURVE",
"-516 -392 OFFCURVE",
"-524 -391 CURVE SMOOTH",
"-542 -388 OFFCURVE",
"-556 -380 OFFCURVE",
"-556 -361 CURVE SMOOTH",
"-556 -333 OFFCURVE",
"-499 -287 OFFCURVE",
"-467 -287 CURVE SMOOTH",
"-436 -287 OFFCURVE",
"-357 -327 OFFCURVE",
"-311 -341 CURVE SMOOTH",
"-250 -359 OFFCURVE",
"-183 -370 OFFCURVE",
"-114 -370 CURVE SMOOTH",
"28 -370 OFFCURVE",
"127 -307 OFFCURVE",
"201 -229 CURVE SMOOTH",
"300 -124 OFFCURVE",
"379 -8 OFFCURVE",
"416 155 CURVE SMOOTH",
"433 231 OFFCURVE",
"467 301 OFFCURVE",
"561 301 CURVE SMOOTH",
"583 301 OFFCURVE",
"606 297 OFFCURVE",
"627 290 CURVE SMOOTH",
"668 276 OFFCURVE",
"681 314 OFFCURVE",
"642 327 CURVE SMOOTH",
"609 338 OFFCURVE",
"576 347 OFFCURVE",
"536 347 CURVE SMOOTH",
"499 347 OFFCURVE",
"466 335 OFFCURVE",
"440 321 CURVE SMOOTH",
"434 318 OFFCURVE",
"430 319 OFFCURVE",
"425 322 CURVE SMOOTH",
"377 352 OFFCURVE",
"313 366 OFFCURVE",
"241 366 CURVE SMOOTH",
"103 366 OFFCURVE",
"8 286 OFFCURVE",
"8 170 CURVE SMOOTH",
"8 84 OFFCURVE",
"82 0 OFFCURVE",
"157 0 CURVE SMOOTH",
"210 0 OFFCURVE",
"261 32 OFFCURVE",
"304 67 CURVE SMOOTH",
"313 74 OFFCURVE",
"321 69 OFFCURVE",
"317 58 CURVE SMOOTH",
"308 29 OFFCURVE",
"297 0 OFFCURVE",
"282 -28 CURVE SMOOTH",
"211 -160 OFFCURVE",
"110 -293 OFFCURVE",
"-88 -293 CURVE SMOOTH",
"-207 -293 OFFCURVE",
"-313 -263 OFFCURVE",
"-408 -229 CURVE SMOOTH",
"-423 -224 OFFCURVE",
"-442 -221 OFFCURVE",
"-455 -221 CURVE SMOOTH",
"-478 -221 OFFCURVE",
"-504 -227 OFFCURVE",
"-522 -239 CURVE SMOOTH",
"-580 -278 OFFCURVE",
"-628 -336 OFFCURVE",
"-669 -387 CURVE SMOOTH",
"-678 -398 OFFCURVE",
"-682 -406 OFFCURVE",
"-682 -416 CURVE SMOOTH",
"-682 -435 OFFCURVE",
"-664 -452 OFFCURVE",
"-637 -452 CURVE SMOOTH"
);
},
{
closed = 1;
nodes = (
"171 107 OFFCURVE",
"147 153 OFFCURVE",
"147 203 CURVE SMOOTH",
"147 272 OFFCURVE",
"212 290 OFFCURVE",
"278 290 CURVE SMOOTH",
"314 290 OFFCURVE",
"346 290 OFFCURVE",
"378 285 CURVE SMOOTH",
"386 283 OFFCURVE",
"388 278 OFFCURVE",
"384 271 CURVE SMOOTH",
"366 242 OFFCURVE",
"356 211 OFFCURVE",
"347 174 CURVE SMOOTH",
"346 168 OFFCURVE",
"343 164 OFFCURVE",
"337 160 CURVE SMOOTH",
"303 138 OFFCURVE",
"251 107 OFFCURVE",
"217 107 CURVE SMOOTH"
);
}
);
width = 546;
}
);
note = g;
unicode = 0067;
},
{
glyphname = h;
lastChange = "2020-04-05 20:55:43 +0000";
layers = (
{
anchors = (
{
name = bottom;
position = "{401, 0}";
},
{
name = center;
position = "{401, 600}";
},
{
name = top;
position = "{471, 998}";
}
);
layerId = "BA9C892D-7698-4063-AF69-14CFA3D9CF82";
paths = (
{
closed = 1;
nodes = (
"138 -804 OFFCURVE",
"209 -783 OFFCURVE",
"274 -759 CURVE SMOOTH",
"464 -689 OFFCURVE",
"662 -601 OFFCURVE",
"819 -438 CURVE SMOOTH",
"881 -374 OFFCURVE",
"894 -305 OFFCURVE",
"894 -221 CURVE SMOOTH",
"894 -99 OFFCURVE",
"805 -48 OFFCURVE",
"739 -48 CURVE SMOOTH",
"726 -48 LINE SMOOTH",
"699 -48 OFFCURVE",
"702 -72 OFFCURVE",
"728 -72 CURVE SMOOTH",
"813 -72 OFFCURVE",
"857 -147 OFFCURVE",
"857 -213 CURVE SMOOTH",
"857 -350 OFFCURVE",
"712 -496 OFFCURVE",
"594 -568 CURVE SMOOTH",
"482 -637 OFFCURVE",
"264 -734 OFFCURVE",
"156 -734 CURVE SMOOTH",
"32 -734 OFFCURVE",
"-65 -657 OFFCURVE",
"-65 -533 CURVE SMOOTH",
"-65 -373 OFFCURVE",
"158 -272 OFFCURVE",
"279 -202 CURVE SMOOTH",
"456 -99 OFFCURVE",
"665 35 OFFCURVE",
"665 180 CURVE SMOOTH",
"665 275 OFFCURVE",
"591 307 OFFCURVE",
"503 307 CURVE SMOOTH",
"438 307 OFFCURVE",
"331 277 OFFCURVE",
"271 260 CURVE SMOOTH",
"263 257 OFFCURVE",
"259 261 OFFCURVE",
"258 268 CURVE SMOOTH",
"255 326 OFFCURVE",
"248 395 OFFCURVE",
"241 451 CURVE SMOOTH",
"240 458 OFFCURVE",
"243 462 OFFCURVE",
"249 465 CURVE SMOOTH",
"432 554 OFFCURVE",
"688 703 OFFCURVE",
"688 879 CURVE SMOOTH",
"688 967 OFFCURVE",
"612 998 OFFCURVE",
"556 998 CURVE SMOOTH",
"443 998 OFFCURVE",
"318 907 OFFCURVE",
"234 800 CURVE SMOOTH",
"136 675 OFFCURVE",
"95 541 OFFCURVE",
"95 347 CURVE SMOOTH",
"95 240 OFFCURVE",
"98 146 OFFCURVE",
"105 51 CURVE SMOOTH",
"108 8 OFFCURVE",
"116 -20 OFFCURVE",
"157 -20 CURVE SMOOTH",
"185 -20 OFFCURVE",
"200 7 OFFCURVE",
"211 34 CURVE SMOOTH",
"229 77 OFFCURVE",
"243 130 OFFCURVE",
"254 178 CURVE SMOOTH",
"255 184 OFFCURVE",
"259 188 OFFCURVE",
"265 190 CURVE SMOOTH",
"305 204 OFFCURVE",
"388 225 OFFCURVE",
"442 225 CURVE SMOOTH",
"498 225 OFFCURVE",
"556 190 OFFCURVE",
"556 118 CURVE SMOOTH",
"556 24 OFFCURVE",
"361 -100 OFFCURVE",
"263 -155 CURVE SMOOTH",
"75 -260 OFFCURVE",
"-168 -397 OFFCURVE",
"-168 -589 CURVE SMOOTH",
"-168 -724 OFFCURVE",
"-63 -804 OFFCURVE",
"72 -804 CURVE SMOOTH"
);
},
{
closed = 1;
nodes = (
"244 513 OFFCURVE",
"239 516 OFFCURVE",
"239 525 CURVE SMOOTH",
"244 729 OFFCURVE",
"356 926 OFFCURVE",
"495 926 CURVE SMOOTH",
"546 926 OFFCURVE",
"583 861 OFFCURVE",
"583 810 CURVE SMOOTH",
"583 685 OFFCURVE",
"360 569 OFFCURVE",
"252 516 CURVE"
);
}
);
width = 801;
}
);
note = h;
unicode = 0068;
},
{
glyphname = i;
lastChange = "2020-04-05 20:55:49 +0000";
layers = (
{
layerId = "BA9C892D-7698-4063-AF69-14CFA3D9CF82";
paths = (
{
closed = 1;
nodes = (
"208 -11 OFFCURVE",
"252 26 OFFCURVE",
"289 73 CURVE SMOOTH",
"313 104 OFFCURVE",
"363 178 OFFCURVE",
"363 198 CURVE SMOOTH",
"363 208 OFFCURVE",
"361 210 OFFCURVE",
"353 210 CURVE SMOOTH",
"326 210 OFFCURVE",
"296 173 OFFCURVE",
"270 141 CURVE SMOOTH",
"261 130 OFFCURVE",
"250 122 OFFCURVE",
"240 122 CURVE SMOOTH",
"221 122 OFFCURVE",
"206 142 OFFCURVE",
"206 170 CURVE SMOOTH",
"206 227 OFFCURVE",
"217 279 OFFCURVE",
"217 330 CURVE SMOOTH",
"217 366 OFFCURVE",
"201 377 OFFCURVE",
"178 377 CURVE SMOOTH",
"128 377 OFFCURVE",
"46 300 OFFCURVE",
"-11 239 CURVE SMOOTH",
"-22 228 OFFCURVE",
"-28 214 OFFCURVE",
"-28 206 CURVE SMOOTH",
"-28 195 OFFCURVE",
"-15 188 OFFCURVE",
"-4 188 CURVE SMOOTH",
"21 188 OFFCURVE",
"38 212 OFFCURVE",
"50 234 CURVE SMOOTH",
"57 247 OFFCURVE",
"72 262 OFFCURVE",
"91 262 CURVE SMOOTH",
"109 262 OFFCURVE",
"109 234 OFFCURVE",
"109 164 CURVE SMOOTH",
"109 131 OFFCURVE",
"104 104 OFFCURVE",
"104 71 CURVE SMOOTH",
"104 28 OFFCURVE",
"111 -11 OFFCURVE",
"155 -11 CURVE SMOOTH"
);
},
{
closed = 1;
nodes = (
"263 518 OFFCURVE",
"279 536 OFFCURVE",
"290 549 CURVE SMOOTH",
"300 560 OFFCURVE",
"311 572 OFFCURVE",
"324 582 CURVE SMOOTH",
"335 590 OFFCURVE",
"338 599 OFFCURVE",
"338 610 CURVE SMOOTH",
"338 633 OFFCURVE",
"318 655 OFFCURVE",
"295 655 CURVE SMOOTH",
"256 655 OFFCURVE",
"203 606 OFFCURVE",
"203 554 CURVE SMOOTH",
"203 539 OFFCURVE",
"212 518 OFFCURVE",
"236 518 CURVE SMOOTH"
);
}
);
width = 321;
}
);
note = i;
unicode = 0069;
},
{
glyphname = idotless;
lastChange = "2020-03-15 13:59:00 +0000";
layers = (
{
anchors = (
{
name = bottom;
position = "{161, 0}";
},
{
name = ogonek;
position = "{289, 10}";
},
{
name = top;
position = "{181, 400}";
}
);
layerId = "BA9C892D-7698-4063-AF69-14CFA3D9CF82";
paths = (
{
closed = 1;
nodes = (
"208 -11 OFFCURVE",
"252 26 OFFCURVE",
"289 73 CURVE SMOOTH",
"313 104 OFFCURVE",
"363 178 OFFCURVE",
"363 198 CURVE SMOOTH",
"363 208 OFFCURVE",
"361 210 OFFCURVE",
"353 210 CURVE SMOOTH",
"326 210 OFFCURVE",
"296 173 OFFCURVE",
"270 141 CURVE SMOOTH",
"261 130 OFFCURVE",
"250 122 OFFCURVE",
"240 122 CURVE SMOOTH",
"221 122 OFFCURVE",
"206 142 OFFCURVE",
"206 170 CURVE SMOOTH",
"206 227 OFFCURVE",
"217 279 OFFCURVE",
"217 330 CURVE SMOOTH",
"217 366 OFFCURVE",
"201 377 OFFCURVE",
"178 377 CURVE SMOOTH",
"128 377 OFFCURVE",
"46 300 OFFCURVE",
"-11 239 CURVE SMOOTH",
"-22 228 OFFCURVE",
"-28 214 OFFCURVE",
"-28 206 CURVE SMOOTH",
"-28 195 OFFCURVE",
"-15 188 OFFCURVE",
"-4 188 CURVE SMOOTH",
"21 188 OFFCURVE",
"38 212 OFFCURVE",
"50 234 CURVE SMOOTH",
"57 247 OFFCURVE",
"72 262 OFFCURVE",
"91 262 CURVE SMOOTH",
"109 262 OFFCURVE",
"109 234 OFFCURVE",
"109 164 CURVE SMOOTH",
"109 131 OFFCURVE",
"104 104 OFFCURVE",
"104 71 CURVE SMOOTH",
"104 28 OFFCURVE",
"111 -11 OFFCURVE",
"155 -11 CURVE SMOOTH"
);
}
);
width = 321;
}
);
note = dotlessi;
unicode = 0131;
},
{
glyphname = j;
lastChange = "2019-03-30 10:54:48 +0000";
layers = (
{
layerId = "BA9C892D-7698-4063-AF69-14CFA3D9CF82";
paths = (
{
closed = 1;
nodes = (
"146 -498 OFFCURVE",
"191 -403 OFFCURVE",
"213 -316 CURVE SMOOTH",
"254 -155 OFFCURVE",
"288 7 OFFCURVE",
"308 183 CURVE SMOOTH",
"312 215 OFFCURVE",
"320 288 OFFCURVE",
"320 320 CURVE SMOOTH",
"320 363 OFFCURVE",
"320 400 OFFCURVE",
"282 400 CURVE SMOOTH",
"246 400 OFFCURVE",
"207 379 OFFCURVE",
"188 368 CURVE SMOOTH",
"142 341 OFFCURVE",
"97 315 OFFCURVE",
"50 290 CURVE SMOOTH",
"14 271 OFFCURVE",
"-4 247 OFFCURVE",
"-4 236 CURVE SMOOTH",
"-4 232 OFFCURVE",
"0 229 OFFCURVE",
"8 229 CURVE SMOOTH",
"19 229 OFFCURVE",
"38 234 OFFCURVE",
"71 254 CURVE SMOOTH",
"94 268 OFFCURVE",
"143 297 OFFCURVE",
"179 297 CURVE SMOOTH",
"207 297 OFFCURVE",
"214 270 OFFCURVE",
"214 234 CURVE SMOOTH",
"214 186 OFFCURVE",
"203 124 OFFCURVE",
"198 97 CURVE SMOOTH",
"167 -66 OFFCURVE",
"137 -217 OFFCURVE",
"103 -373 CURVE SMOOTH",
"96 -403 OFFCURVE",
"88 -441 OFFCURVE",
"88 -467 CURVE SMOOTH",
"88 -485 OFFCURVE",
"92 -498 OFFCURVE",
"104 -498 CURVE SMOOTH"
);
},
{
closed = 1;
nodes = (
"307 518 OFFCURVE",
"323 536 OFFCURVE",
"334 549 CURVE SMOOTH",
"344 560 OFFCURVE",
"355 572 OFFCURVE",
"368 582 CURVE SMOOTH",
"379 590 OFFCURVE",
"382 599 OFFCURVE",
"382 610 CURVE SMOOTH",
"382 633 OFFCURVE",
"362 655 OFFCURVE",
"339 655 CURVE SMOOTH",
"299 655 OFFCURVE",
"247 606 OFFCURVE",
"247 554 CURVE SMOOTH",
"247 539 OFFCURVE",
"256 518 OFFCURVE",
"280 518 CURVE SMOOTH"
);
}
);
width = 397;
}
);
note = j;
unicode = 006A;
},
{
glyphname = jdotless;
lastChange = "2020-04-05 20:56:20 +0000";
layers = (
{
anchors = (
{
name = bottom;
position = "{159, -498}";
},
{
name = top;
position = "{199, 400}";
}
);
layerId = "BA9C892D-7698-4063-AF69-14CFA3D9CF82";
paths = (
{
closed = 1;
nodes = (
"146 -498 OFFCURVE",
"191 -403 OFFCURVE",
"213 -316 CURVE SMOOTH",
"254 -155 OFFCURVE",
"288 7 OFFCURVE",
"308 183 CURVE SMOOTH",
"312 215 OFFCURVE",
"320 288 OFFCURVE",
"320 320 CURVE SMOOTH",
"320 363 OFFCURVE",
"320 400 OFFCURVE",
"282 400 CURVE SMOOTH",
"246 400 OFFCURVE",
"207 379 OFFCURVE",
"188 368 CURVE SMOOTH",
"142 341 OFFCURVE",
"97 315 OFFCURVE",
"50 290 CURVE SMOOTH",
"14 271 OFFCURVE",
"-4 247 OFFCURVE",
"-4 236 CURVE SMOOTH",
"-4 232 OFFCURVE",
"0 229 OFFCURVE",
"8 229 CURVE SMOOTH",
"19 229 OFFCURVE",
"38 234 OFFCURVE",
"71 254 CURVE SMOOTH",
"94 268 OFFCURVE",
"143 297 OFFCURVE",
"179 297 CURVE SMOOTH",
"207 297 OFFCURVE",
"214 270 OFFCURVE",
"214 234 CURVE SMOOTH",
"214 186 OFFCURVE",
"203 124 OFFCURVE",
"198 97 CURVE SMOOTH",
"167 -66 OFFCURVE",
"137 -217 OFFCURVE",
"103 -373 CURVE SMOOTH",
"96 -403 OFFCURVE",
"88 -441 OFFCURVE",
"88 -467 CURVE SMOOTH",
"88 -485 OFFCURVE",
"92 -498 OFFCURVE",
"104 -498 CURVE SMOOTH"
);
}
);
width = 397;
}
);
leftMetricsKey = j;
widthMetricsKey = j;
unicode = 0237;
},
{
glyphname = k;
lastChange = "2020-04-05 20:56:37 +0000";
layers = (
{
anchors = (
{
name = bottom;
position = "{261, 0}";
},
{
name = top;
position = "{631, 984}";
}
);
layerId = "BA9C892D-7698-4063-AF69-14CFA3D9CF82";
paths = (
{
closed = 1;
nodes = (
"197 -4 OFFCURVE",
"262 29 OFFCURVE",
"330 67 CURVE SMOOTH",
"343 74 OFFCURVE",
"337 91 OFFCURVE",
"322 85 CURVE SMOOTH",
"302 77 OFFCURVE",
"282 71 OFFCURVE",
"263 71 CURVE SMOOTH",
"229 71 OFFCURVE",
"198 88 OFFCURVE",
"193 131 CURVE SMOOTH",
"192 138 OFFCURVE",
"195 143 OFFCURVE",
"201 146 CURVE SMOOTH",
"256 181 OFFCURVE",
"314 206 OFFCURVE",
"394 206 CURVE SMOOTH",
"419 206 OFFCURVE",
"458 198 OFFCURVE",
"477 198 CURVE SMOOTH",
"502 198 OFFCURVE",
"518 210 OFFCURVE",
"518 221 CURVE SMOOTH",
"518 232 OFFCURVE",
"506 248 OFFCURVE",
"472 254 CURVE SMOOTH",
"411 264 OFFCURVE",
"334 269 OFFCURVE",
"263 269 CURVE SMOOTH",
"252 269 LINE SMOOTH",
"236 269 OFFCURVE",
"236 274 OFFCURVE",
"252 280 CURVE SMOOTH",
"280 291 OFFCURVE",
"308 303 OFFCURVE",
"335 316 CURVE SMOOTH",
"388 341 OFFCURVE",
"483 398 OFFCURVE",
"511 453 CURVE",
"513 459 OFFCURVE",
"516 462 OFFCURVE",
"522 465 CURVE SMOOTH",
"597 500 OFFCURVE",
"671 560 OFFCURVE",
"747 641 CURVE SMOOTH",
"806 703 OFFCURVE",
"842 757 OFFCURVE",
"842 831 CURVE SMOOTH",
"842 901 OFFCURVE",
"764 983 OFFCURVE",
"655 983 CURVE SMOOTH",
"483 983 OFFCURVE",
"296 832 OFFCURVE",
"194 643 CURVE SMOOTH",
"130 524 OFFCURVE",
"107 423 OFFCURVE",
"96 304 CURVE SMOOTH",
"95 296 OFFCURVE",
"92 293 OFFCURVE",
"85 291 CURVE SMOOTH",
"66 288 OFFCURVE",
"36 281 OFFCURVE",
"13 274 CURVE SMOOTH",
"-20 263 OFFCURVE",
"-41 250 OFFCURVE",
"-41 231 CURVE SMOOTH",
"-41 204 OFFCURVE",
"-13 198 OFFCURVE",
"10 198 CURVE SMOOTH",
"30 198 OFFCURVE",
"54 202 OFFCURVE",
"72 207 CURVE SMOOTH",
"80 209 OFFCURVE",
"85 205 OFFCURVE",
"84 196 CURVE SMOOTH",
"81 160 OFFCURVE",
"81 116 OFFCURVE",
"81 81 CURVE SMOOTH",
"81 22 OFFCURVE",
"88 -4 OFFCURVE",
"141 -4 CURVE SMOOTH"
);
},
{
closed = 1;
nodes = (
"209 311 OFFCURVE",
"204 316 OFFCURVE",
"205 325 CURVE SMOOTH",
"210 384 LINE SMOOTH",
"210 389 OFFCURVE",
"212 394 OFFCURVE",
"215 399 CURVE SMOOTH",
"242 440 OFFCURVE",
"278 491 OFFCURVE",
"338 491 CURVE SMOOTH",
"374 491 OFFCURVE",
"408 468 OFFCURVE",
"408 432 CURVE SMOOTH",
"408 402 OFFCURVE",
"370 382 OFFCURVE",
"347 370 CURVE SMOOTH",
"305 349 OFFCURVE",
"263 328 OFFCURVE",
"218 314 CURVE SMOOTH"
);
},
{
closed = 1;
nodes = (
"531 490 OFFCURVE",
"526 493 OFFCURVE",
"525 502 CURVE SMOOTH",
"515 552 OFFCURVE",
"450 561 OFFCURVE",
"394 561 CURVE SMOOTH",
"340 561 OFFCURVE",
"294 543 OFFCURVE",
"253 521 CURVE SMOOTH",
"244 516 OFFCURVE",
"237 521 OFFCURVE",
"240 531 CURVE SMOOTH",
"264 604 OFFCURVE",
"326 732 OFFCURVE",
"385 796 CURVE SMOOTH",
"436 852 OFFCURVE",
"518 910 OFFCURVE",
"617 910 CURVE SMOOTH",
"697 910 OFFCURVE",
"759 870 OFFCURVE",
"759 789 CURVE SMOOTH",
"759 718 OFFCURVE",
"713 641 OFFCURVE",
"658 584 CURVE SMOOTH",
"623 547 OFFCURVE",
"588 517 OFFCURVE",
"540 494 CURVE SMOOTH"
);
}
);
width = 521;
}
);
note = k;
unicode = 006B;
},
{
glyphname = l;
lastChange = "2020-04-05 20:57:04 +0000";
layers = (
{
anchors = (
{
name = bottom;
position = "{212, 0}";
},
{
name = center;
position = "{212, 600}";
},
{
name = top;
position = "{542, 871}";
},
{
name = topright;
position = "{733, 871}";
}
);
layerId = "BA9C892D-7698-4063-AF69-14CFA3D9CF82";
paths = (
{
closed = 1;
nodes = (
"147 -27 OFFCURVE",
"175 -18 OFFCURVE",
"195 -10 CURVE SMOOTH",
"253 14 OFFCURVE",
"316 37 OFFCURVE",
"373 57 CURVE SMOOTH",
"389 63 OFFCURVE",
"408 75 OFFCURVE",
"408 94 CURVE SMOOTH",
"408 110 OFFCURVE",
"391 118 OFFCURVE",
"375 118 CURVE SMOOTH",
"358 118 OFFCURVE",
"325 107 OFFCURVE",
"302 107 CURVE SMOOTH",
"216 107 OFFCURVE",
"213 186 OFFCURVE",
"213 270 CURVE SMOOTH",
"213 295 OFFCURVE",
"215 321 OFFCURVE",
"217 346 CURVE SMOOTH",
"218 353 OFFCURVE",
"221 357 OFFCURVE",
"227 359 CURVE SMOOTH",
"319 393 OFFCURVE",
"394 451 OFFCURVE",
"462 517 CURVE SMOOTH",
"521 574 OFFCURVE",
"648 701 OFFCURVE",
"648 789 CURVE SMOOTH",
"648 845 OFFCURVE",
"615 871 OFFCURVE",
"565 871 CURVE SMOOTH",
"499 871 OFFCURVE",
"438 842 OFFCURVE",
"389 816 CURVE SMOOTH",
"217 723 OFFCURVE",
"30 447 OFFCURVE",
"30 249 CURVE SMOOTH",
"30 137 OFFCURVE",
"23 -27 OFFCURVE",
"124 -27 CURVE SMOOTH"
);
},
{
closed = 1;
nodes = (
"223 416 OFFCURVE",
"218 420 OFFCURVE",
"219 429 CURVE SMOOTH",
"231 591 OFFCURVE",
"323 690 OFFCURVE",
"427 764 CURVE SMOOTH",
"446 777 OFFCURVE",
"483 796 OFFCURVE",
"511 796 CURVE SMOOTH",
"552 796 OFFCURVE",
"576 772 OFFCURVE",
"576 735 CURVE SMOOTH",
"576 684 OFFCURVE",
"515 619 OFFCURVE",
"459 559 CURVE SMOOTH",
"401 496 OFFCURVE",
"333 439 OFFCURVE",
"232 418 CURVE SMOOTH"
);
}
);
width = 423;
}
);
note = l;
unicode = 006C;
},
{
glyphname = lslash;
lastChange = "2020-04-05 20:57:16 +0000";
layers = (
{
anchors = (
{
name = bottom;
position = "{212, 0}";
},
{
name = center;
position = "{212, 600}";
},
{
name = top;
position = "{542, 871}";
},
{
name = topright;
position = "{733, 871}";
}
);
hints = (
{
horizontal = 1;
place = "{-27, 21}";
target = up;
type = BottomGhost;
},
{
horizontal = 1;
place = "{366, 73}";
type = Stem;
},
{
horizontal = 1;
place = "{796, 75}";
type = Stem;
},
{
horizontal = 1;
place = "{363, 76}";
type = Stem;
},
{
horizontal = 1;
place = "{415, 20}";
type = Stem;
},
{
horizontal = 1;
place = "{416, -20}";
target = down;
type = TopGhost;
}
);
layerId = "BA9C892D-7698-4063-AF69-14CFA3D9CF82";
paths = (
{
closed = 1;
nodes = (
"211 -27 OFFCURVE",
"239 -19 OFFCURVE",
"259 -10 CURVE SMOOTH",
"317 16 OFFCURVE",
"380 37 OFFCURVE",
"437 57 CURVE SMOOTH",
"453 63 OFFCURVE",
"472 75 OFFCURVE",
"472 94 CURVE SMOOTH",
"472 110 OFFCURVE",
"455 118 OFFCURVE",
"439 118 CURVE SMOOTH",
"429 118 OFFCURVE",
"418 117 OFFCURVE",
"408 114 CURVE SMOOTH",
"393 110 OFFCURVE",
"381 107 OFFCURVE",
"366 107 CURVE SMOOTH",
"280 107 OFFCURVE",
"277 186 OFFCURVE",
"277 270 CURVE SMOOTH",
"277 295 OFFCURVE",
"279 321 OFFCURVE",
"281 345 CURVE SMOOTH",
"282 353 OFFCURVE",
"285 357 OFFCURVE",
"292 358 CURVE SMOOTH",
"334 364 OFFCURVE",
"374 366 OFFCURVE",
"416 366 CURVE SMOOTH",
"435 366 OFFCURVE",
"456 363 OFFCURVE",
"475 363 CURVE SMOOTH",
"490 363 LINE SMOOTH",
"509 363 OFFCURVE",
"539 377 OFFCURVE",
"559 396 CURVE SMOOTH",
"570 407 OFFCURVE",
"579 418 OFFCURVE",
"579 426 CURVE SMOOTH",
"579 430 OFFCURVE",
"574 435 OFFCURVE",
"566 435 CURVE",
"543 438 OFFCURVE",
"518 439 OFFCURVE",
"495 439 CURVE SMOOTH",
"483 439 OFFCURVE",
"469 439 OFFCURVE",
"455 438 CURVE SMOOTH",
"440 437 OFFCURVE",
"440 443 OFFCURVE",
"451 451 CURVE SMOOTH",
"522 506 OFFCURVE",
"586 572 OFFCURVE",
"640 637 CURVE SMOOTH",
"671 675 OFFCURVE",
"712 726 OFFCURVE",
"712 789 CURVE SMOOTH",
"712 845 OFFCURVE",
"679 871 OFFCURVE",
"629 871 CURVE SMOOTH",
"511 871 OFFCURVE",
"371 776 OFFCURVE",
"290 676 CURVE SMOOTH",
"241 616 OFFCURVE",
"144 478 OFFCURVE",
"112 375 CURVE SMOOTH",
"110 369 OFFCURVE",
"106 365 OFFCURVE",
"100 363 CURVE SMOOTH",
"69 350 OFFCURVE",
"20 329 OFFCURVE",
"-2 306 CURVE SMOOTH",
"-9 298 OFFCURVE",
"-13 291 OFFCURVE",
"-13 286 CURVE SMOOTH",
"-13 278 OFFCURVE",
"-8 274 OFFCURVE",
"0 274 CURVE SMOOTH",
"10 274 OFFCURVE",
"23 278 OFFCURVE",
"38 286 CURVE SMOOTH",
"50 292 OFFCURVE",
"64 298 OFFCURVE",
"82 304 CURVE SMOOTH",
"91 307 OFFCURVE",
"96 303 OFFCURVE",
"95 294 CURVE SMOOTH",
"94 279 OFFCURVE",
"94 264 OFFCURVE",
"94 249 CURVE SMOOTH",
"94 188 OFFCURVE",
"96 127 OFFCURVE",
"104 66 CURVE SMOOTH",
"111 14 OFFCURVE",
"140 -27 OFFCURVE",
"188 -27 CURVE SMOOTH"
);
},
{
closed = 1;
nodes = (
"287 415 OFFCURVE",
"282 420 OFFCURVE",
"283 428 CURVE SMOOTH",
"295 590 OFFCURVE",
"387 690 OFFCURVE",
"491 764 CURVE SMOOTH",
"510 777 OFFCURVE",
"547 796 OFFCURVE",
"575 796 CURVE SMOOTH",
"616 796 OFFCURVE",
"640 772 OFFCURVE",
"640 735 CURVE SMOOTH",
"640 687 OFFCURVE",
"574 614 OFFCURVE",
"523 559 CURVE SMOOTH",
"469 501 OFFCURVE",
"413 445 OFFCURVE",
"325 422 CURVE SMOOTH",
"315 419 OFFCURVE",
"306 417 OFFCURVE",
"295 416 CURVE SMOOTH"
);
}
);
width = 487;
}
);
note = lslash;
unicode = 0142;
},
{
glyphname = m;
lastChange = "2020-04-05 20:57:25 +0000";
layers = (
{
anchors = (
{
name = bottom;
position = "{443, 0}";
},
{
name = top;
position = "{443, 400}";
}
);
layerId = "BA9C892D-7698-4063-AF69-14CFA3D9CF82";
paths = (
{
closed = 1;
nodes = (
"747 -13 OFFCURVE",
"768 0 OFFCURVE",
"775 19 CURVE SMOOTH",
"825 151 OFFCURVE",
"846 235 OFFCURVE",
"846 300 CURVE SMOOTH",
"846 328 OFFCURVE",
"845 381 OFFCURVE",
"823 381 CURVE SMOOTH",
"812 381 OFFCURVE",
"790 372 OFFCURVE",
"781 366 CURVE SMOOTH",
"732 334 OFFCURVE",
"618 221 OFFCURVE",
"590 189 CURVE SMOOTH",
"583 181 OFFCURVE",
"576 173 OFFCURVE",
"570 166 CURVE SMOOTH",
"562 158 OFFCURVE",
"555 161 OFFCURVE",
"556 172 CURVE SMOOTH",
"558 192 OFFCURVE",
"559 213 OFFCURVE",
"559 234 CURVE SMOOTH",
"559 311 OFFCURVE",
"535 391 OFFCURVE",
"491 391 CURVE SMOOTH",
"475 391 OFFCURVE",
"441 360 OFFCURVE",
"422 341 CURVE SMOOTH",
"374 294 OFFCURVE",
"348 269 OFFCURVE",
"295 247 CURVE SMOOTH",
"288 244 OFFCURVE",
"280 240 OFFCURVE",
"270 235 CURVE SMOOTH",
"263 231 OFFCURVE",
"257 233 OFFCURVE",
"254 241 CURVE SMOOTH",
"248 258 OFFCURVE",
"244 278 OFFCURVE",
"243 291 CURVE SMOOTH",
"241 339 OFFCURVE",
"217 370 OFFCURVE",
"178 370 CURVE SMOOTH",
"117 370 OFFCURVE",
"48 320 OFFCURVE",
"24 277 CURVE SMOOTH",
"10 253 OFFCURVE",
"51 231 OFFCURVE",
"67 253 CURVE SMOOTH",
"77 267 OFFCURVE",
"89 277 OFFCURVE",
"100 277 CURVE SMOOTH",
"131 277 OFFCURVE",
"136 249 OFFCURVE",
"145 183 CURVE SMOOTH",
"150 147 OFFCURVE",
"152 114 OFFCURVE",
"152 81 CURVE SMOOTH",
"152 46 OFFCURVE",
"159 -8 OFFCURVE",
"190 -8 CURVE SMOOTH",
"201 -8 OFFCURVE",
"215 1 OFFCURVE",
"225 11 CURVE SMOOTH",
"249 35 OFFCURVE",
"256 63 OFFCURVE",
"264 96 CURVE SMOOTH",
"273 133 OFFCURVE",
"280 155 OFFCURVE",
"312 190 CURVE SMOOTH",
"340 220 OFFCURVE",
"377 248 OFFCURVE",
"401 248 CURVE SMOOTH",
"442 248 OFFCURVE",
"449 221 OFFCURVE",
"452 183 CURVE SMOOTH",
"453 173 OFFCURVE",
"453 159 OFFCURVE",
"453 140 CURVE SMOOTH",
"453 117 OFFCURVE",
"457 84 OFFCURVE",
"460 61 CURVE SMOOTH",
"464 28 OFFCURVE",
"469 4 OFFCURVE",
"491 4 CURVE SMOOTH",
"517 4 OFFCURVE",
"562 61 OFFCURVE",
"583 95 CURVE SMOOTH",
"607 134 OFFCURVE",
"639 183 OFFCURVE",
"671 217 CURVE SMOOTH",
"678 224 OFFCURVE",
"693 239 OFFCURVE",
"703 239 CURVE SMOOTH",
"723 239 OFFCURVE",
"736 210 OFFCURVE",
"736 187 CURVE SMOOTH",
"736 183 OFFCURVE",
"732 90 OFFCURVE",
"722 63 CURVE SMOOTH",
"716 46 OFFCURVE",
"710 27 OFFCURVE",
"710 17 CURVE SMOOTH",
"710 -3 OFFCURVE",
"721 -13 OFFCURVE",
"736 -13 CURVE SMOOTH"
);
}
);
width = 885;
}
);
note = m;
unicode = 006D;
},
{
glyphname = n;
lastChange = "2020-04-05 20:57:29 +0000";
layers = (
{
anchors = (
{
name = bottom;
position = "{303, 0}";
},
{
name = top;
position = "{343, 400}";
}
);
layerId = "BA9C892D-7698-4063-AF69-14CFA3D9CF82";
paths = (
{
closed = 1;
nodes = (
"212 -15 OFFCURVE",
"231 30 OFFCURVE",
"239 71 CURVE SMOOTH",
"248 117 OFFCURVE",
"259 165 OFFCURVE",
"278 201 CURVE SMOOTH",
"298 238 OFFCURVE",
"384 282 OFFCURVE",
"404 282 CURVE SMOOTH",
"438 282 OFFCURVE",
"447 236 OFFCURVE",
"447 198 CURVE SMOOTH",
"447 132 OFFCURVE",
"422 76 OFFCURVE",
"395 29 CURVE SMOOTH",
"385 11 OFFCURVE",
"388 -3 OFFCURVE",
"410 2 CURVE SMOOTH",
"415 3 OFFCURVE",
"422 6 OFFCURVE",
"429 10 CURVE SMOOTH",
"509 50 OFFCURVE",
"566 234 OFFCURVE",
"566 305 CURVE SMOOTH",
"566 362 OFFCURVE",
"535 394 OFFCURVE",
"484 394 CURVE SMOOTH",
"461 394 OFFCURVE",
"436 390 OFFCURVE",
"416 383 CURVE SMOOTH",
"350 361 OFFCURVE",
"301 323 OFFCURVE",
"252 281 CURVE SMOOTH",
"246 275 OFFCURVE",
"240 278 OFFCURVE",
"240 286 CURVE SMOOTH",
"240 295 LINE SMOOTH",
"240 323 OFFCURVE",
"237 416 OFFCURVE",
"194 416 CURVE SMOOTH",
"167 416 OFFCURVE",
"141 401 OFFCURVE",
"122 389 CURVE SMOOTH",
"79 363 OFFCURVE",
"35 310 OFFCURVE",
"23 289 CURVE SMOOTH",
"15 275 OFFCURVE",
"29 251 OFFCURVE",
"40 257 CURVE SMOOTH",
"45 260 OFFCURVE",
"50 262 OFFCURVE",
"58 262 CURVE SMOOTH",
"107 262 OFFCURVE",
"117 179 OFFCURVE",
"117 122 CURVE SMOOTH",
"117 75 OFFCURVE",
"117 -15 OFFCURVE",
"164 -15 CURVE SMOOTH"
);
}
);
width = 606;
}
);
note = n;
unicode = 006E;
},
{
glyphname = o;
lastChange = "2020-03-16 02:34:00 +0000";
layers = (
{
anchors = (
{
name = bottom;
position = "{252, 0}";
},
{
name = center;
position = "{232, 200}";
},
{
name = ogonek;
position = "{418, 10}";
},
{
name = top;
position = "{252, 400}";
},
{
name = topright;
position = "{444, 400}";
}
);
layerId = "BA9C892D-7698-4063-AF69-14CFA3D9CF82";
paths = (
{
closed = 1;
nodes = (
"119 0 OFFCURVE",
"192 23 OFFCURVE",
"263 58 CURVE SMOOTH",
"314 83 OFFCURVE",
"396 146 OFFCURVE",
"424 183 CURVE SMOOTH",
"430 191 OFFCURVE",
"435 193 OFFCURVE",
"453 193 CURVE SMOOTH",
"463 193 OFFCURVE",
"465 194 OFFCURVE",
"465 202 CURVE SMOOTH",
"465 215 OFFCURVE",
"449 239 OFFCURVE",
"439 249 CURVE SMOOTH",
"425 263 OFFCURVE",
"418 279 OFFCURVE",
"413 295 CURVE SMOOTH",
"407 313 OFFCURVE",
"401 331 OFFCURVE",
"383 345 CURVE SMOOTH",
"372 354 OFFCURVE",
"299 389 OFFCURVE",
"256 389 CURVE SMOOTH",
"245 389 OFFCURVE",
"224 383 OFFCURVE",
"213 378 CURVE",
"216 382 OFFCURVE",
"217 388 OFFCURVE",
"217 391 CURVE SMOOTH",
"217 394 OFFCURVE",
"216 404 OFFCURVE",
"201 404 CURVE SMOOTH",
"186 404 OFFCURVE",
"160 385 OFFCURVE",
"145 373 CURVE SMOOTH",
"131 362 OFFCURVE",
"80 319 OFFCURVE",
"63 297 CURVE SMOOTH",
"36 262 OFFCURVE",
"23 163 OFFCURVE",
"23 97 CURVE SMOOTH",
"23 46 OFFCURVE",
"44 0 OFFCURVE",
"95 0 CURVE SMOOTH"
);
},
{
closed = 1;
nodes = (
"153 99 OFFCURVE",
"150 140 OFFCURVE",
"150 193 CURVE SMOOTH",
"150 243 OFFCURVE",
"151 264 OFFCURVE",
"178 287 CURVE SMOOTH",
"190 297 OFFCURVE",
"240 316 OFFCURVE",
"274 316 CURVE SMOOTH",
"303 316 OFFCURVE",
"347 261 OFFCURVE",
"347 226 CURVE SMOOTH",
"347 215 OFFCURVE",
"345 203 OFFCURVE",
"340 190 CURVE SMOOTH",
"319 140 OFFCURVE",
"243 99 OFFCURVE",
"210 99 CURVE SMOOTH"
);
}
);
width = 464;
}
);
note = o;
unicode = 006F;
},
{
glyphname = oslash;
lastChange = "2020-04-05 20:57:42 +0000";
layers = (
{
anchors = (
{
name = top;
position = "{232, 400}";
}
);
layerId = "BA9C892D-7698-4063-AF69-14CFA3D9CF82";
paths = (
{
closed = 1;
nodes = (
"89 -41 LINE SMOOTH",
"162 77 OFFCURVE",
"230 182 OFFCURVE",
"258 223 CURVE SMOOTH",
"301 283 OFFCURVE",
"363 348 OFFCURVE",
"401 389 CURVE SMOOTH",
"426 415 OFFCURVE",
"445 436 OFFCURVE",
"469 462 CURVE SMOOTH",
"482 477 OFFCURVE",
"434 492 OFFCURVE",
"423 480 CURVE SMOOTH",
"391 445 OFFCURVE",
"361 412 OFFCURVE",
"346 396 CURVE SMOOTH",
"284 329 OFFCURVE",
"233 275 OFFCURVE",
"204 233 CURVE SMOOTH",
"154 162 OFFCURVE",
"75 39 OFFCURVE",
"30 -34 CURVE SMOOTH",
"13 -62 OFFCURVE",
"6 -73 OFFCURVE",
"-8 -93 CURVE SMOOTH",
"-18 -108 OFFCURVE",
"35 -123 OFFCURVE",
"49 -102 CURVE SMOOTH"
);
},
{
closed = 1;
nodes = (
"119 0 OFFCURVE",
"192 23 OFFCURVE",
"263 58 CURVE SMOOTH",
"314 83 OFFCURVE",
"396 146 OFFCURVE",
"424 183 CURVE SMOOTH",
"430 191 OFFCURVE",
"435 193 OFFCURVE",
"453 193 CURVE SMOOTH",
"463 193 OFFCURVE",
"465 194 OFFCURVE",
"465 202 CURVE SMOOTH",
"465 215 OFFCURVE",
"449 239 OFFCURVE",
"439 249 CURVE SMOOTH",
"425 263 OFFCURVE",
"418 279 OFFCURVE",
"413 295 CURVE SMOOTH",
"407 313 OFFCURVE",
"401 331 OFFCURVE",
"383 345 CURVE SMOOTH",
"372 354 OFFCURVE",
"299 389 OFFCURVE",
"256 389 CURVE SMOOTH",
"245 389 OFFCURVE",
"224 383 OFFCURVE",
"213 378 CURVE",
"216 382 OFFCURVE",
"217 388 OFFCURVE",
"217 391 CURVE SMOOTH",
"217 394 OFFCURVE",
"216 404 OFFCURVE",
"201 404 CURVE SMOOTH",
"186 404 OFFCURVE",
"160 385 OFFCURVE",
"145 373 CURVE SMOOTH",
"131 362 OFFCURVE",
"80 319 OFFCURVE",
"63 297 CURVE SMOOTH",
"36 262 OFFCURVE",
"23 163 OFFCURVE",
"23 97 CURVE SMOOTH",
"23 46 OFFCURVE",
"44 0 OFFCURVE",
"95 0 CURVE SMOOTH"
);
},
{
closed = 1;
nodes = (
"153 99 OFFCURVE",
"150 140 OFFCURVE",
"150 193 CURVE SMOOTH",
"150 243 OFFCURVE",
"151 264 OFFCURVE",
"178 287 CURVE SMOOTH",
"190 297 OFFCURVE",
"240 316 OFFCURVE",
"274 316 CURVE SMOOTH",
"303 316 OFFCURVE",
"347 261 OFFCURVE",
"347 226 CURVE SMOOTH",
"347 215 OFFCURVE",
"345 203 OFFCURVE",
"340 190 CURVE SMOOTH",
"319 140 OFFCURVE",
"243 99 OFFCURVE",
"210 99 CURVE SMOOTH"
);
}
);
width = 464;
}
);
note = oslash;
unicode = 00F8;
},
{
glyphname = oe;
lastChange = "2020-04-05 20:57:59 +0000";
layers = (
{
anchors = (
{
name = bottom;
position = "{365, 0}";
},
{
name = top;
position = "{385, 490}";
}
);
layerId = "BA9C892D-7698-4063-AF69-14CFA3D9CF82";
paths = (
{
closed = 1;
nodes = (
"465 -3 OFFCURVE",
"484 9 OFFCURVE",
"519 32 CURVE SMOOTH",
"567 64 OFFCURVE",
"612 80 OFFCURVE",
"665 95 CURVE SMOOTH",
"674 97 OFFCURVE",
"674 107 OFFCURVE",
"664 107 CURVE SMOOTH",
"653 107 LINE SMOOTH",
"595 107 OFFCURVE",
"559 94 OFFCURVE",
"509 94 CURVE SMOOTH",
"451 94 OFFCURVE",
"422 132 OFFCURVE",
"422 183 CURVE SMOOTH",
"422 238 OFFCURVE",
"450 280 OFFCURVE",
"467 303 CURVE SMOOTH",
"471 309 OFFCURVE",
"476 309 OFFCURVE",
"481 303 CURVE SMOOTH",
"493 288 OFFCURVE",
"514 267 OFFCURVE",
"544 251 CURVE SMOOTH",
"586 229 OFFCURVE",
"633 226 OFFCURVE",
"653 226 CURVE SMOOTH",
"733 226 OFFCURVE",
"793 263 OFFCURVE",
"841 297 CURVE SMOOTH",
"851 304 OFFCURVE",
"847 310 OFFCURVE",
"836 307 CURVE SMOOTH",
"816 302 OFFCURVE",
"793 297 OFFCURVE",
"760 297 CURVE SMOOTH",
"727 297 OFFCURVE",
"700 297 OFFCURVE",
"650 320 CURVE SMOOTH",
"616 336 OFFCURVE",
"577 376 OFFCURVE",
"577 389 CURVE SMOOTH",
"577 409 OFFCURVE",
"584 441 OFFCURVE",
"600 461 CURVE SMOOTH",
"611 474 OFFCURVE",
"627 490 OFFCURVE",
"650 490 CURVE SMOOTH",
"658 490 OFFCURVE",
"670 487 OFFCURVE",
"681 483 CURVE SMOOTH",
"686 481 OFFCURVE",
"691 480 OFFCURVE",
"699 480 CURVE SMOOTH",
"707 480 OFFCURVE",
"718 483 OFFCURVE",
"718 491 CURVE SMOOTH",
"718 502 OFFCURVE",
"705 509 OFFCURVE",
"694 515 CURVE SMOOTH",
"681 522 OFFCURVE",
"668 526 OFFCURVE",
"653 526 CURVE SMOOTH",
"597 526 OFFCURVE",
"563 497 OFFCURVE",
"543 477 CURVE SMOOTH",
"526 460 OFFCURVE",
"489 410 OFFCURVE",
"476 362 CURVE SMOOTH",
"474 356 OFFCURVE",
"472 353 OFFCURVE",
"466 352 CURVE SMOOTH",
"444 346 OFFCURVE",
"427 339 OFFCURVE",
"412 328 CURVE SMOOTH",
"407 324 OFFCURVE",
"402 325 OFFCURVE",
"398 330 CURVE SMOOTH",
"394 335 OFFCURVE",
"389 340 OFFCURVE",
"383 345 CURVE SMOOTH",
"373 355 OFFCURVE",
"299 389 OFFCURVE",
"256 389 CURVE SMOOTH",
"245 389 OFFCURVE",
"224 382 OFFCURVE",
"213 378 CURVE",
"216 382 OFFCURVE",
"217 388 OFFCURVE",
"217 391 CURVE SMOOTH",
"217 394 OFFCURVE",
"216 404 OFFCURVE",
"201 404 CURVE SMOOTH",
"186 404 OFFCURVE",
"160 385 OFFCURVE",
"145 373 CURVE SMOOTH",
"127 358 OFFCURVE",
"77 315 OFFCURVE",
"63 297 CURVE SMOOTH",
"36 263 OFFCURVE",
"23 163 OFFCURVE",
"23 97 CURVE SMOOTH",
"23 46 OFFCURVE",
"44 0 OFFCURVE",
"95 0 CURVE SMOOTH",
"132 0 OFFCURVE",
"261 52 OFFCURVE",
"307 80 CURVE SMOOTH",
"312 84 OFFCURVE",
"317 83 OFFCURVE",
"320 77 CURVE SMOOTH",
"340 48 OFFCURVE",
"387 -3 OFFCURVE",
"437 -3 CURVE SMOOTH"
);
},
{
closed = 1;
nodes = (
"183 99 OFFCURVE",
"166 112 OFFCURVE",
"158 127 CURVE SMOOTH",
"150 142 OFFCURVE",
"150 165 OFFCURVE",
"150 193 CURVE SMOOTH",
"150 243 OFFCURVE",
"151 264 OFFCURVE",
"178 287 CURVE SMOOTH",
"190 297 OFFCURVE",
"240 315 OFFCURVE",
"274 315 CURVE SMOOTH",
"291 315 OFFCURVE",
"296 310 OFFCURVE",
"310 295 CURVE SMOOTH",
"327 276 OFFCURVE",
"347 253 OFFCURVE",
"347 226 CURVE SMOOTH",
"347 215 OFFCURVE",
"345 202 OFFCURVE",
"340 190 CURVE SMOOTH",
"325 154 OFFCURVE",
"297 136 OFFCURVE",
"263 117 CURVE SMOOTH",
"240 104 OFFCURVE",
"230 99 OFFCURVE",
"210 99 CURVE SMOOTH"
);
}
);
width = 730;
}
);
note = oe;
unicode = 0153;
},
{
glyphname = p;
lastChange = "2020-04-05 20:58:10 +0000";
layers = (
{
anchors = (
{
name = bottom;
position = "{336, 0}";
},
{
name = top;
position = "{336, 400}";
}
);
layerId = "BA9C892D-7698-4063-AF69-14CFA3D9CF82";
paths = (
{
closed = 1;
nodes = (
"-81 -551 OFFCURVE",
"108 -190 OFFCURVE",
"199 2 CURVE SMOOTH",
"201 7 OFFCURVE",
"205 8 OFFCURVE",
"211 6 CURVE SMOOTH",
"260 -12 OFFCURVE",
"308 -20 OFFCURVE",
"332 -20 CURVE SMOOTH",
"461 -20 OFFCURVE",
"582 101 OFFCURVE",
"582 190 CURVE SMOOTH",
"582 286 OFFCURVE",
"485 358 OFFCURVE",
"400 358 CURVE SMOOTH",
"348 358 OFFCURVE",
"304 336 OFFCURVE",
"266 295 CURVE SMOOTH",
"261 290 OFFCURVE",
"256 291 OFFCURVE",
"253 297 CURVE SMOOTH",
"231 342 OFFCURVE",
"188 374 OFFCURVE",
"129 374 CURVE SMOOTH",
"28 374 OFFCURVE",
"-40 300 OFFCURVE",
"-83 235 CURVE SMOOTH",
"-87 229 OFFCURVE",
"-90 221 OFFCURVE",
"-90 214 CURVE SMOOTH",
"-90 204 OFFCURVE",
"-83 197 OFFCURVE",
"-76 197 CURVE SMOOTH",
"-66 197 OFFCURVE",
"-45 218 OFFCURVE",
"-40 223 CURVE SMOOTH",
"-18 247 OFFCURVE",
"16 284 OFFCURVE",
"63 284 CURVE SMOOTH",
"130 284 OFFCURVE",
"167 230 OFFCURVE",
"167 168 CURVE SMOOTH",
"167 99 OFFCURVE",
"122 19 OFFCURVE",
"24 -8 CURVE SMOOTH",
"-5 -16 OFFCURVE",
"10 -79 OFFCURVE",
"42 -71 CURVE SMOOTH",
"51 -69 OFFCURVE",
"59 -66 OFFCURVE",
"67 -63 CURVE SMOOTH",
"77 -59 OFFCURVE",
"82 -63 OFFCURVE",
"78 -73 CURVE SMOOTH",
"23 -188 OFFCURVE",
"-143 -545 OFFCURVE",
"-230 -777 CURVE SMOOTH",
"-233 -785 OFFCURVE",
"-228 -787 OFFCURVE",
"-223 -779 CURVE SMOOTH"
);
},
{
closed = 1;
nodes = (
"321 65 OFFCURVE",
"276 74 OFFCURVE",
"248 94 CURVE SMOOTH",
"240 101 OFFCURVE",
"238 107 OFFCURVE",
"240 114 CURVE SMOOTH",
"258 187 OFFCURVE",
"316 263 OFFCURVE",
"405 263 CURVE SMOOTH",
"454 263 OFFCURVE",
"478 230 OFFCURVE",
"478 188 CURVE SMOOTH",
"478 105 OFFCURVE",
"417 65 OFFCURVE",
"351 65 CURVE SMOOTH"
);
}
);
width = 592;
}
);
note = p;
rightKerningGroup = p;
unicode = 0070;
},
{
glyphname = thorn;
lastChange = "2020-04-05 20:58:26 +0000";
layers = (
{
anchors = (
{
name = bottom;
position = "{257, 0}";
},
{
name = top;
position = "{577, 828}";
}
);
layerId = "BA9C892D-7698-4063-AF69-14CFA3D9CF82";
paths = (
{
closed = 1;
nodes = (
"-176 -508 OFFCURVE",
"-99 -365 OFFCURVE",
"67 -33 CURVE SMOOTH",
"76 -14 OFFCURVE",
"86 3 OFFCURVE",
"105 3 CURVE SMOOTH",
"109 3 OFFCURVE",
"118 1 OFFCURVE",
"128 -3 CURVE SMOOTH",
"161 -16 OFFCURVE",
"187 -20 OFFCURVE",
"220 -20 CURVE SMOOTH",
"348 -20 OFFCURVE",
"472 95 OFFCURVE",
"472 200 CURVE SMOOTH",
"472 286 OFFCURVE",
"375 358 OFFCURVE",
"289 358 CURVE SMOOTH",
"277 358 OFFCURVE",
"265 357 OFFCURVE",
"254 355 CURVE SMOOTH",
"246 353 OFFCURVE",
"241 357 OFFCURVE",
"244 366 CURVE SMOOTH",
"297 508 OFFCURVE",
"374 698 OFFCURVE",
"465 739 CURVE SMOOTH",
"485 748 OFFCURVE",
"511 750 OFFCURVE",
"534 750 CURVE SMOOTH",
"603 750 OFFCURVE",
"672 734 OFFCURVE",
"672 655 CURVE SMOOTH",
"672 592 OFFCURVE",
"582 539 OFFCURVE",
"560 526 CURVE SMOOTH",
"507 494 OFFCURVE",
"458 471 OFFCURVE",
"420 454 CURVE SMOOTH",
"392 441 OFFCURVE",
"396 428 OFFCURVE",
"426 439 CURVE SMOOTH",
"508 468 OFFCURVE",
"770 584 OFFCURVE",
"770 690 CURVE SMOOTH",
"770 777 OFFCURVE",
"667 828 OFFCURVE",
"593 828 CURVE SMOOTH",
"452 828 OFFCURVE",
"330 701 OFFCURVE",
"279 632 CURVE SMOOTH",
"246 587 OFFCURVE",
"41 134 OFFCURVE",
"0 29 CURVE SMOOTH",
"-1 25 OFFCURVE",
"-4 22 OFFCURVE",
"-8 20 CURVE SMOOTH",
"-36 7 OFFCURVE",
"-82 -8 OFFCURVE",
"-110 -14 CURVE SMOOTH",
"-126 -18 OFFCURVE",
"-112 -80 OFFCURVE",
"-91 -76 CURVE SMOOTH",
"-76 -73 OFFCURVE",
"-58 -68 OFFCURVE",
"-43 -62 CURVE SMOOTH",
"-34 -59 OFFCURVE",
"-30 -64 OFFCURVE",
"-33 -72 CURVE SMOOTH",
"-101 -224 OFFCURVE",
"-243 -542 OFFCURVE",
"-349 -784 CURVE SMOOTH",
"-355 -797 OFFCURVE",
"-346 -800 OFFCURVE",
"-339 -788 CURVE SMOOTH"
);
},
{
closed = 1;
nodes = (
"208 63 OFFCURVE",
"152 80 OFFCURVE",
"134 94 CURVE SMOOTH",
"126 100 OFFCURVE",
"125 106 OFFCURVE",
"127 112 CURVE SMOOTH",
"144 186 OFFCURVE",
"202 263 OFFCURVE",
"293 263 CURVE SMOOTH",
"343 263 OFFCURVE",
"366 231 OFFCURVE",
"366 188 CURVE SMOOTH",
"366 104 OFFCURVE",
"303 63 OFFCURVE",
"237 63 CURVE SMOOTH"
);
}
);
width = 514;
}
);
note = thorn;
unicode = 00FE;
},
{
glyphname = pstrokethroughdescender;
lastChange = "2020-04-05 20:59:04 +0000";
layers = (
{
anchors = (
{
name = bottom;
position = "{44, -716}";
},
{
name = top;
position = "{576, 400}";
}
);
layerId = "BA9C892D-7698-4063-AF69-14CFA3D9CF82";
paths = (
{
closed = 1;
nodes = (
"-109 -716 OFFCURVE",
"97 -517 OFFCURVE",
"253 -284 CURVE SMOOTH",
"258 -277 OFFCURVE",
"264 -276 OFFCURVE",
"271 -280 CURVE SMOOTH",
"348 -320 OFFCURVE",
"408 -385 OFFCURVE",
"461 -474 CURVE SMOOTH",
"481 -507 OFFCURVE",
"607 -379 OFFCURVE",
"578 -344 CURVE SMOOTH",
"504 -256 OFFCURVE",
"423 -206 OFFCURVE",
"333 -179 CURVE SMOOTH",
"326 -177 OFFCURVE",
"323 -172 OFFCURVE",
"327 -165 CURVE SMOOTH",
"360 -108 OFFCURVE",
"388 -50 OFFCURVE",
"412 6 CURVE SMOOTH",
"415 14 OFFCURVE",
"420 18 OFFCURVE",
"428 17 CURVE SMOOTH",
"497 12 OFFCURVE",
"556 8 OFFCURVE",
"590 8 CURVE SMOOTH",
"701 8 OFFCURVE",
"819 86 OFFCURVE",
"819 203 CURVE SMOOTH",
"819 283 OFFCURVE",
"766 333 OFFCURVE",
"687 333 CURVE SMOOTH",
"601 333 OFFCURVE",
"528 272 OFFCURVE",
"472 207 CURVE",
"475 228 OFFCURVE",
"476 247 OFFCURVE",
"476 265 CURVE SMOOTH",
"476 358 OFFCURVE",
"437 382 OFFCURVE",
"360 382 CURVE SMOOTH",
"205 382 OFFCURVE",
"59 287 OFFCURVE",
"59 170 CURVE SMOOTH",
"59 141 OFFCURVE",
"68 113 OFFCURVE",
"83 90 CURVE SMOOTH",
"94 72 OFFCURVE",
"119 86 OFFCURVE",
"113 107 CURVE SMOOTH",
"108 124 OFFCURVE",
"106 139 OFFCURVE",
"106 151 CURVE SMOOTH",
"106 247 OFFCURVE",
"218 306 OFFCURVE",
"294 306 CURVE SMOOTH",
"340 306 OFFCURVE",
"365 285 OFFCURVE",
"365 200 CURVE SMOOTH",
"365 170 OFFCURVE",
"362 137 OFFCURVE",
"356 105 CURVE SMOOTH",
"354 96 OFFCURVE",
"349 93 OFFCURVE",
"340 94 CURVE SMOOTH",
"333 95 OFFCURVE",
"327 96 OFFCURVE",
"321 98 CURVE SMOOTH",
"306 103 OFFCURVE",
"206 8 OFFCURVE",
"244 11 CURVE SMOOTH",
"267 13 OFFCURVE",
"294 15 OFFCURVE",
"318 14 CURVE SMOOTH",
"327 14 OFFCURVE",
"332 10 OFFCURVE",
"329 1 CURVE SMOOTH",
"312 -50 OFFCURVE",
"289 -103 OFFCURVE",
"262 -154 CURVE SMOOTH",
"259 -160 OFFCURVE",
"255 -162 OFFCURVE",
"250 -161 CURVE SMOOTH",
"206 -155 OFFCURVE",
"161 -152 OFFCURVE",
"114 -152 CURVE SMOOTH",
"-186 -152 OFFCURVE",
"-392 -283 OFFCURVE",
"-392 -524 CURVE SMOOTH",
"-392 -642 OFFCURVE",
"-344 -716 OFFCURVE",
"-255 -716 CURVE SMOOTH"
);
},
{
closed = 1;
nodes = (
"-290 -641 OFFCURVE",
"-316 -590 OFFCURVE",
"-316 -517 CURVE SMOOTH",
"-316 -339 OFFCURVE",
"-153 -234 OFFCURVE",
"64 -234 CURVE SMOOTH",
"111 -234 OFFCURVE",
"153 -239 OFFCURVE",
"191 -250 CURVE SMOOTH",
"200 -252 OFFCURVE",
"203 -259 OFFCURVE",
"198 -267 CURVE SMOOTH",
"66 -473 OFFCURVE",
"-112 -641 OFFCURVE",
"-228 -641 CURVE SMOOTH"
);
},
{
closed = 1;
nodes = (
"526 74 OFFCURVE",
"493 75 OFFCURVE",
"458 78 CURVE SMOOTH",
"448 79 OFFCURVE",
"444 84 OFFCURVE",
"449 91 CURVE SMOOTH",
"537 211 OFFCURVE",
"607 268 OFFCURVE",
"670 268 CURVE SMOOTH",
"717 268 OFFCURVE",
"744 236 OFFCURVE",
"744 193 CURVE SMOOTH",
"744 125 OFFCURVE",
"677 74 OFFCURVE",
"550 74 CURVE SMOOTH"
);
}
);
width = 880;
}
);
unicode = A751;
},
{
glyphname = q;
lastChange = "2020-04-05 20:59:12 +0000";
layers = (
{
anchors = (
{
name = bottom;
position = "{357, 0}";
},
{
name = top;
position = "{357, 400}";
}
);
layerId = "BA9C892D-7698-4063-AF69-14CFA3D9CF82";
paths = (
{
closed = 1;
nodes = (
"490 -452 OFFCURVE",
"510 -436 OFFCURVE",
"521 -427 CURVE SMOOTH",
"594 -365 OFFCURVE",
"669 -298 OFFCURVE",
"736 -222 CURVE SMOOTH",
"747 -209 OFFCURVE",
"740 -200 OFFCURVE",
"724 -213 CURVE SMOOTH",
"682 -248 OFFCURVE",
"627 -287 OFFCURVE",
"598 -287 CURVE SMOOTH",
"579 -287 OFFCURVE",
"566 -273 OFFCURVE",
"566 -240 CURVE SMOOTH",
"566 -215 OFFCURVE",
"604 137 OFFCURVE",
"606 156 CURVE SMOOTH",
"610 189 OFFCURVE",
"622 316 OFFCURVE",
"622 340 CURVE SMOOTH",
"622 363 OFFCURVE",
"619 381 OFFCURVE",
"606 381 CURVE SMOOTH",
"593 381 OFFCURVE",
"551 356 OFFCURVE",
"532 336 CURVE SMOOTH",
"528 332 OFFCURVE",
"524 331 OFFCURVE",
"518 332 CURVE SMOOTH",
"497 338 OFFCURVE",
"474 340 OFFCURVE",
"450 340 CURVE SMOOTH",
"444 340 OFFCURVE",
"435 340 OFFCURVE",
"425 339 CURVE SMOOTH",
"417 338 OFFCURVE",
"417 344 OFFCURVE",
"426 348 CURVE SMOOTH",
"485 380 OFFCURVE",
"549 416 OFFCURVE",
"604 452 CURVE SMOOTH",
"797 579 OFFCURVE",
"901 646 OFFCURVE",
"1120 750 CURVE SMOOTH",
"1189 783 OFFCURVE",
"1250 818 OFFCURVE",
"1309 858 CURVE SMOOTH",
"1341 880 OFFCURVE",
"1335 895 OFFCURVE",
"1301 878 CURVE SMOOTH",
"1227 841 OFFCURVE",
"1157 808 OFFCURVE",
"1078 775 CURVE SMOOTH",
"997 741 OFFCURVE",
"921 702 OFFCURVE",
"851 660 CURVE SMOOTH",
"748 598 OFFCURVE",
"645 535 OFFCURVE",
"546 473 CURVE SMOOTH",
"465 422 OFFCURVE",
"379 372 OFFCURVE",
"298 324 CURVE SMOOTH",
"293 321 OFFCURVE",
"289 320 OFFCURVE",
"283 321 CURVE SMOOTH",
"265 324 OFFCURVE",
"244 325 OFFCURVE",
"226 325 CURVE SMOOTH",
"169 325 OFFCURVE",
"133 305 OFFCURVE",
"34 218 CURVE SMOOTH",
"-17 173 OFFCURVE",
"33 130 OFFCURVE",
"64 157 CURVE SMOOTH",
"94 183 OFFCURVE",
"137 213 OFFCURVE",
"175 213 CURVE SMOOTH",
"208 213 OFFCURVE",
"213 166 OFFCURVE",
"216 130 CURVE SMOOTH",
"219 87 OFFCURVE",
"244 63 OFFCURVE",
"287 63 CURVE SMOOTH",
"338 63 OFFCURVE",
"374 85 OFFCURVE",
"408 108 CURVE SMOOTH",
"476 156 LINE SMOOTH",
"482 161 OFFCURVE",
"488 158 OFFCURVE",
"488 150 CURVE SMOOTH",
"484 -32 OFFCURVE",
"469 -191 OFFCURVE",
"450 -368 CURVE SMOOTH",
"449 -379 OFFCURVE",
"448 -393 OFFCURVE",
"448 -404 CURVE SMOOTH",
"448 -427 OFFCURVE",
"460 -452 OFFCURVE",
"475 -452 CURVE SMOOTH"
);
},
{
closed = 1;
nodes = (
"342 155 OFFCURVE",
"305 231 OFFCURVE",
"305 256 CURVE SMOOTH",
"305 275 OFFCURVE",
"325 295 OFFCURVE",
"347 295 CURVE SMOOTH",
"376 295 OFFCURVE",
"442 257 OFFCURVE",
"470 217 CURVE",
"474 213 OFFCURVE",
"473 208 OFFCURVE",
"469 204 CURVE SMOOTH",
"446 183 OFFCURVE",
"401 155 OFFCURVE",
"381 155 CURVE SMOOTH"
);
}
);
width = 713;
}
);
leftKerningGroup = q;
note = q;
unicode = 0071;
},
{
glyphname = r;
lastChange = "2020-04-05 20:59:30 +0000";
layers = (
{
anchors = (
{
name = bottom;
position = "{246, 0}";
},
{
name = top;
position = "{396, 400}";
}
);
layerId = "BA9C892D-7698-4063-AF69-14CFA3D9CF82";
paths = (
{
closed = 1;
nodes = (
"126 -10 OFFCURVE",
"131 -9 OFFCURVE",
"136 -4 CURVE SMOOTH",
"153 13 OFFCURVE",
"177 36 OFFCURVE",
"193 48 CURVE SMOOTH",
"197 51 OFFCURVE",
"221 69 OFFCURVE",
"240 69 CURVE SMOOTH",
"251 69 OFFCURVE",
"277 35 OFFCURVE",
"293 8 CURVE SMOOTH",
"299 -2 OFFCURVE",
"311 -8 OFFCURVE",
"324 -8 CURVE SMOOTH",
"350 -8 OFFCURVE",
"402 25 OFFCURVE",
"402 50 CURVE SMOOTH",
"402 54 OFFCURVE",
"400 59 OFFCURVE",
"397 64 CURVE SMOOTH",
"385 84 OFFCURVE",
"378 106 OFFCURVE",
"378 119 CURVE SMOOTH",
"378 187 OFFCURVE",
"443 262 OFFCURVE",
"536 262 CURVE SMOOTH",
"558 262 OFFCURVE",
"577 259 OFFCURVE",
"594 252 CURVE SMOOTH",
"599 250 OFFCURVE",
"604 249 OFFCURVE",
"608 249 CURVE SMOOTH",
"623 249 OFFCURVE",
"635 260 OFFCURVE",
"635 272 CURVE SMOOTH",
"635 282 OFFCURVE",
"628 292 OFFCURVE",
"612 300 CURVE SMOOTH",
"588 312 OFFCURVE",
"558 316 OFFCURVE",
"531 316 CURVE SMOOTH",
"416 316 OFFCURVE",
"379 277 OFFCURVE",
"327 210 CURVE SMOOTH",
"317 197 OFFCURVE",
"306 188 OFFCURVE",
"300 188 CURVE SMOOTH",
"285 188 OFFCURVE",
"278 204 OFFCURVE",
"278 217 CURVE SMOOTH",
"278 286 OFFCURVE",
"273 324 OFFCURVE",
"256 347 CURVE SMOOTH",
"241 368 OFFCURVE",
"223 385 OFFCURVE",
"180 385 CURVE SMOOTH",
"157 385 OFFCURVE",
"140 385 OFFCURVE",
"117 366 CURVE SMOOTH",
"70 327 OFFCURVE",
"29 304 OFFCURVE",
"-16 287 CURVE SMOOTH",
"-32 281 OFFCURVE",
"-38 274 OFFCURVE",
"-38 267 CURVE SMOOTH",
"-38 264 OFFCURVE",
"-35 248 OFFCURVE",
"-20 248 CURVE SMOOTH",
"-15 248 OFFCURVE",
"-9 250 OFFCURVE",
"0 254 CURVE SMOOTH",
"27 266 OFFCURVE",
"64 282 OFFCURVE",
"97 282 CURVE SMOOTH",
"147 282 OFFCURVE",
"150 202 OFFCURVE",
"150 152 CURVE SMOOTH",
"150 124 OFFCURVE",
"141 94 OFFCURVE",
"127 80 CURVE SMOOTH",
"121 74 OFFCURVE",
"96 56 OFFCURVE",
"80 46 CURVE SMOOTH",
"76 43 OFFCURVE",
"74 40 OFFCURVE",
"74 36 CURVE SMOOTH",
"74 24 OFFCURVE",
"100 -10 OFFCURVE",
"120 -10 CURVE SMOOTH"
);
}
);
width = 492;
}
);
leftKerningGroup = r;
note = r;
rightKerningGroup = r;
unicode = 0072;
},
{
glyphname = rumrotunda;
lastChange = "2020-04-05 20:59:45 +0000";
layers = (
{
anchors = (
{
name = top;
position = "{256, 400}";
}
);
layerId = "BA9C892D-7698-4063-AF69-14CFA3D9CF82";
paths = (
{
closed = 1;
nodes = (
"770 -297 OFFCURVE",
"893 -268 OFFCURVE",
"1047 -189 CURVE SMOOTH",
"1078 -173 OFFCURVE",
"1068 -157 OFFCURVE",
"1035 -167 CURVE SMOOTH",
"893 -210 OFFCURVE",
"768 -233 OFFCURVE",
"637 -233 CURVE SMOOTH",
"495 -233 OFFCURVE",
"421 -179 OFFCURVE",
"421 -73 CURVE SMOOTH",
"421 -54 OFFCURVE",
"423 -33 OFFCURVE",
"429 -9 CURVE SMOOTH",
"431 -1 OFFCURVE",
"433 0 OFFCURVE",
"439 0 CURVE SMOOTH",
"630 0 OFFCURVE",
"782 78 OFFCURVE",
"782 158 CURVE SMOOTH",
"782 201 OFFCURVE",
"739 223 OFFCURVE",
"658 223 CURVE SMOOTH",
"527 223 OFFCURVE",
"426 154 OFFCURVE",
"375 69 CURVE SMOOTH",
"372 64 OFFCURVE",
"369 63 OFFCURVE",
"362 63 CURVE SMOOTH",
"343 63 OFFCURVE",
"316 65 OFFCURVE",
"290 66 CURVE SMOOTH",
"265 67 OFFCURVE",
"240 69 OFFCURVE",
"220 69 CURVE SMOOTH",
"214 69 OFFCURVE",
"215 75 OFFCURVE",
"218 78 CURVE SMOOTH",
"292 152 OFFCURVE",
"329 220 OFFCURVE",
"329 285 CURVE SMOOTH",
"329 353 OFFCURVE",
"287 394 OFFCURVE",
"216 394 CURVE SMOOTH",
"138 394 OFFCURVE",
"14 339 OFFCURVE",
"-74 217 CURVE SMOOTH",
"-92 192 OFFCURVE",
"-55 173 OFFCURVE",
"-34 202 CURVE SMOOTH",
"24 282 OFFCURVE",
"87 309 OFFCURVE",
"137 309 CURVE SMOOTH",
"192 309 OFFCURVE",
"225 273 OFFCURVE",
"225 213 CURVE SMOOTH",
"225 165 OFFCURVE",
"210 123 OFFCURVE",
"146 72 CURVE SMOOTH",
"141 68 OFFCURVE",
"138 66 OFFCURVE",
"127 64 CURVE SMOOTH",
"77 55 OFFCURVE",
"27 46 OFFCURVE",
"-28 25 CURVE SMOOTH",
"-52 16 OFFCURVE",
"-45 -19 OFFCURVE",
"-20 -14 CURVE SMOOTH",
"42 -2 OFFCURVE",
"99 5 OFFCURVE",
"161 5 CURVE SMOOTH",
"187 5 OFFCURVE",
"214 4 OFFCURVE",
"242 2 CURVE SMOOTH",
"271 0 OFFCURVE",
"301 -1 OFFCURVE",
"327 -1 CURVE SMOOTH",
"336 -1 OFFCURVE",
"338 -5 OFFCURVE",
"335 -12 CURVE SMOOTH",
"323 -40 OFFCURVE",
"322 -67 OFFCURVE",
"322 -101 CURVE SMOOTH",
"322 -228 OFFCURVE",
"429 -297 OFFCURVE",
"624 -297 CURVE SMOOTH"
);
},
{
closed = 1;
nodes = (
"502 127 OFFCURVE",
"549 165 OFFCURVE",
"610 165 CURVE SMOOTH",
"647 165 OFFCURVE",
"675 153 OFFCURVE",
"675 134 CURVE SMOOTH",
"675 105 OFFCURVE",
"597 87 OFFCURVE",
"467 65 CURVE SMOOTH",
"461 64 OFFCURVE",
"460 70 OFFCURVE",
"463 74 CURVE SMOOTH"
);
}
);
width = 1069;
}
);
unicode = A75D;
},
{
glyphname = s;
lastChange = "2020-04-05 21:00:02 +0000";
layers = (
{
anchors = (
{
name = bottom;
position = "{221, 0}";
},
{
name = top;
position = "{461, 894}";
}
);
layerId = "BA9C892D-7698-4063-AF69-14CFA3D9CF82";
paths = (
{
closed = 1;
nodes = (
"237 0 OFFCURVE",
"263 2 OFFCURVE",
"286 10 CURVE SMOOTH",
"357 35 OFFCURVE",
"377 113 OFFCURVE",
"394 194 CURVE SMOOTH",
"398 213 OFFCURVE",
"401 230 OFFCURVE",
"401 249 CURVE SMOOTH",
"401 323 OFFCURVE",
"355 346 OFFCURVE",
"278 356 CURVE SMOOTH",
"270 357 OFFCURVE",
"267 363 OFFCURVE",
"273 369 CURVE SMOOTH",
"350 454 OFFCURVE",
"428 541 OFFCURVE",
"498 621 CURVE SMOOTH",
"544 674 OFFCURVE",
"577 713 OFFCURVE",
"577 763 CURVE SMOOTH",
"577 805 OFFCURVE",
"556 894 OFFCURVE",
"480 894 CURVE SMOOTH",
"445 894 OFFCURVE",
"396 853 OFFCURVE",
"396 823 CURVE SMOOTH",
"396 815 OFFCURVE",
"398 812 OFFCURVE",
"406 804 CURVE SMOOTH",
"426 784 OFFCURVE",
"471 737 OFFCURVE",
"471 691 CURVE SMOOTH",
"471 657 OFFCURVE",
"442 628 OFFCURVE",
"411 597 CURVE SMOOTH",
"308 494 OFFCURVE",
"205 389 OFFCURVE",
"104 286 CURVE SMOOTH",
"70 252 OFFCURVE",
"48 213 OFFCURVE",
"48 155 CURVE SMOOTH",
"48 46 OFFCURVE",
"101 0 OFFCURVE",
"210 0 CURVE SMOOTH"
);
},
{
closed = 1;
nodes = (
"180 95 OFFCURVE",
"145 132 OFFCURVE",
"145 175 CURVE SMOOTH",
"145 212 OFFCURVE",
"167 248 OFFCURVE",
"185 271 CURVE SMOOTH",
"188 276 OFFCURVE",
"193 277 OFFCURVE",
"198 275 CURVE SMOOTH",
"242 258 OFFCURVE",
"293 221 OFFCURVE",
"293 163 CURVE SMOOTH",
"293 120 OFFCURVE",
"257 95 OFFCURVE",
"221 95 CURVE SMOOTH"
);
}
);
width = 441;
}
);
note = s;
unicode = 0073;
},
